<svg width="15" height="17" viewBox="0 0 15 17" fill="none" xmlns="http://www.w3.org/2000/svg">
<path fill-rule="evenodd" clip-rule="evenodd" d="M11.329 3H12.9975H14H15V4H13.9286L13 17H2.5L1.10714 4H0V3H1H2.00572H3.67097L4.35737 1.40656C4.59436 0.856405 5.13596 0.5 5.73499 0.5H9.26501C9.86404 0.5 10.4056 0.856408 10.6426 1.40656L11.329 3ZM10.2402 3L9.72422 1.80219C9.64522 1.6188 9.46469 1.5 9.26501 1.5L5.73499 1.5C5.53531 1.5 5.35478 1.6188 5.27578 1.80219L4.7598 3H10.2402ZM2.11287 4H12.926L12.0689 16H3.39858L2.11287 4Z" fill="#1A1A1A" fill-opacity="0.5"/>
</svg>
