<svg width="208" height="56" viewBox="0 0 208 56" fill="none" xmlns="http://www.w3.org/2000/svg">
<path d="M58.2497 25L62.6177 15.2H64.8577L69.2397 25H66.8597L63.2757 16.348H64.1717L60.5737 25H58.2497ZM60.4337 22.9L61.0357 21.178H66.0757L66.6917 22.9H60.4337ZM74.8093 25.112C74.1746 25.112 73.6193 24.972 73.1433 24.692C72.6673 24.412 72.294 23.9873 72.0233 23.418C71.762 22.8393 71.6313 22.1113 71.6313 21.234C71.6313 20.3473 71.7573 19.6193 72.0093 19.05C72.2613 18.4807 72.6253 18.056 73.1013 17.776C73.5773 17.496 74.1466 17.356 74.8093 17.356C75.5186 17.356 76.1533 17.5193 76.7133 17.846C77.2826 18.1633 77.7306 18.6113 78.0573 19.19C78.3933 19.7687 78.5613 20.45 78.5613 21.234C78.5613 22.0273 78.3933 22.7133 78.0573 23.292C77.7306 23.8707 77.2826 24.3187 76.7133 24.636C76.1533 24.9533 75.5186 25.112 74.8093 25.112ZM70.3573 27.716V17.468H72.4433V19.008L72.4013 21.248L72.5413 23.474V27.716H70.3573ZM74.4313 23.32C74.7953 23.32 75.1173 23.236 75.3973 23.068C75.6866 22.9 75.9153 22.662 76.0833 22.354C76.2606 22.0367 76.3493 21.6633 76.3493 21.234C76.3493 20.7953 76.2606 20.422 76.0833 20.114C75.9153 19.806 75.6866 19.568 75.3973 19.4C75.1173 19.232 74.7953 19.148 74.4313 19.148C74.0673 19.148 73.7406 19.232 73.4513 19.4C73.162 19.568 72.9333 19.806 72.7653 20.114C72.5973 20.422 72.5133 20.7953 72.5133 21.234C72.5133 21.6633 72.5973 22.0367 72.7653 22.354C72.9333 22.662 73.162 22.9 73.4513 23.068C73.7406 23.236 74.0673 23.32 74.4313 23.32ZM83.774 25.112C82.9153 25.112 82.1593 24.944 81.506 24.608C80.862 24.272 80.3627 23.8147 80.008 23.236C79.6533 22.648 79.476 21.9807 79.476 21.234C79.476 20.478 79.6487 19.8107 79.994 19.232C80.3487 18.644 80.8293 18.1867 81.436 17.86C82.0427 17.524 82.7287 17.356 83.494 17.356C84.2313 17.356 84.894 17.5147 85.482 17.832C86.0793 18.14 86.5507 18.588 86.896 19.176C87.2413 19.7547 87.414 20.45 87.414 21.262C87.414 21.346 87.4093 21.444 87.4 21.556C87.3907 21.6587 87.3813 21.7567 87.372 21.85H81.254V20.576H86.224L85.384 20.954C85.384 20.562 85.3047 20.2213 85.146 19.932C84.9873 19.6427 84.768 19.4187 84.488 19.26C84.208 19.092 83.8813 19.008 83.508 19.008C83.1347 19.008 82.8033 19.092 82.514 19.26C82.234 19.4187 82.0147 19.6473 81.856 19.946C81.6973 20.2353 81.618 20.5807 81.618 20.982V21.318C81.618 21.7287 81.7067 22.0927 81.884 22.41C82.0707 22.718 82.3273 22.956 82.654 23.124C82.99 23.2827 83.382 23.362 83.83 23.362C84.2313 23.362 84.5813 23.3013 84.88 23.18C85.188 23.0587 85.468 22.8767 85.72 22.634L86.882 23.894C86.5367 24.286 86.1027 24.5893 85.58 24.804C85.0573 25.0093 84.4553 25.112 83.774 25.112ZM89.0881 25V17.468H91.2581V20.408H94.5341V17.468H96.7181V25H94.5341V22.186H91.2581V25H89.0881ZM103.989 24.02V19.26H101.525L101.483 20.226C101.464 20.6273 101.441 21.01 101.413 21.374C101.385 21.738 101.329 22.0693 101.245 22.368C101.17 22.6573 101.058 22.9047 100.909 23.11C100.759 23.306 100.559 23.4413 100.307 23.516L98.1508 23.208C98.4215 23.208 98.6408 23.1287 98.8088 22.97C98.9768 22.802 99.1075 22.5733 99.2008 22.284C99.2941 21.9853 99.3641 21.6493 99.4108 21.276C99.4575 20.8933 99.4901 20.492 99.5088 20.072L99.6068 17.468H106.173V24.02H103.989ZM97.8988 26.624V23.208H107.251V26.624H105.221V25H99.9288V26.624H97.8988ZM112.153 25.112C111.351 25.112 110.637 24.944 110.011 24.608C109.395 24.272 108.905 23.8147 108.541 23.236C108.187 22.648 108.009 21.9807 108.009 21.234C108.009 20.478 108.187 19.8107 108.541 19.232C108.905 18.644 109.395 18.1867 110.011 17.86C110.637 17.524 111.351 17.356 112.153 17.356C112.947 17.356 113.656 17.524 114.281 17.86C114.907 18.1867 115.397 18.6393 115.751 19.218C116.106 19.7967 116.283 20.4687 116.283 21.234C116.283 21.9807 116.106 22.648 115.751 23.236C115.397 23.8147 114.907 24.272 114.281 24.608C113.656 24.944 112.947 25.112 112.153 25.112ZM112.153 23.32C112.517 23.32 112.844 23.236 113.133 23.068C113.423 22.9 113.651 22.662 113.819 22.354C113.987 22.0367 114.071 21.6633 114.071 21.234C114.071 20.7953 113.987 20.422 113.819 20.114C113.651 19.806 113.423 19.568 113.133 19.4C112.844 19.232 112.517 19.148 112.153 19.148C111.789 19.148 111.463 19.232 111.173 19.4C110.884 19.568 110.651 19.806 110.473 20.114C110.305 20.422 110.221 20.7953 110.221 21.234C110.221 21.6633 110.305 22.0367 110.473 22.354C110.651 22.662 110.884 22.9 111.173 23.068C111.463 23.236 111.789 23.32 112.153 23.32ZM117.785 25V17.468H121.635C122.578 17.468 123.315 17.6407 123.847 17.986C124.379 18.322 124.645 18.798 124.645 19.414C124.645 20.03 124.393 20.5153 123.889 20.87C123.395 21.2153 122.737 21.388 121.915 21.388L122.139 20.884C123.054 20.884 123.735 21.052 124.183 21.388C124.641 21.724 124.869 22.214 124.869 22.858C124.869 23.5207 124.617 24.0433 124.113 24.426C123.609 24.8087 122.839 25 121.803 25H117.785ZM119.787 23.516H121.621C122.023 23.516 122.321 23.4507 122.517 23.32C122.723 23.18 122.825 22.97 122.825 22.69C122.825 22.4007 122.732 22.1907 122.545 22.06C122.359 21.92 122.065 21.85 121.663 21.85H119.787V23.516ZM119.787 20.562H121.439C121.822 20.562 122.107 20.492 122.293 20.352C122.489 20.212 122.587 20.0113 122.587 19.75C122.587 19.4793 122.489 19.2787 122.293 19.148C122.107 19.0173 121.822 18.952 121.439 18.952H119.787V20.562ZM131.002 25V23.53L130.862 23.208V20.576C130.862 20.1093 130.718 19.7453 130.428 19.484C130.148 19.2227 129.714 19.092 129.126 19.092C128.725 19.092 128.328 19.1573 127.936 19.288C127.554 19.4093 127.227 19.5773 126.956 19.792L126.172 18.266C126.583 17.9767 127.078 17.7527 127.656 17.594C128.235 17.4353 128.823 17.356 129.42 17.356C130.568 17.356 131.46 17.6267 132.094 18.168C132.729 18.7093 133.046 19.554 133.046 20.702V25H131.002ZM128.706 25.112C128.118 25.112 127.614 25.014 127.194 24.818C126.774 24.6127 126.452 24.3373 126.228 23.992C126.004 23.6467 125.892 23.2593 125.892 22.83C125.892 22.382 126 21.99 126.214 21.654C126.438 21.318 126.788 21.0567 127.264 20.87C127.74 20.674 128.361 20.576 129.126 20.576H131.128V21.85H129.364C128.851 21.85 128.496 21.934 128.3 22.102C128.114 22.27 128.02 22.48 128.02 22.732C128.02 23.012 128.128 23.236 128.342 23.404C128.566 23.5627 128.87 23.642 129.252 23.642C129.616 23.642 129.943 23.558 130.232 23.39C130.522 23.2127 130.732 22.956 130.862 22.62L131.198 23.628C131.04 24.1133 130.75 24.482 130.33 24.734C129.91 24.986 129.369 25.112 128.706 25.112ZM136.554 25V18.756L137.044 19.26H134.006V17.468H141.272V19.26H138.234L138.724 18.756V25H136.554ZM146.51 19.876C147.499 19.8853 148.25 20.1093 148.764 20.548C149.286 20.9773 149.548 21.5887 149.548 22.382C149.548 23.2127 149.254 23.8613 148.666 24.328C148.078 24.7853 147.261 25.014 146.216 25.014L142.436 25V17.468H144.606V19.876H146.51ZM146.02 23.46C146.44 23.4693 146.762 23.3807 146.986 23.194C147.21 23.0073 147.322 22.7273 147.322 22.354C147.322 21.9807 147.21 21.7147 146.986 21.556C146.762 21.388 146.44 21.2993 146.02 21.29L144.606 21.276V23.46H146.02Z" fill="url(#paint0_linear_313_1317)"/>
<path fill-rule="evenodd" clip-rule="evenodd" d="M4 0C1.79086 0 0 1.79086 0 4V36C0 38.2091 1.79086 40 4 40H158L174 56V40H204C206.209 40 208 38.2091 208 36V4C208 1.79086 206.209 0 204 0H4Z" fill="url(#paint1_linear_313_1317)"/>
<defs>
<linearGradient id="paint0_linear_313_1317" x1="43.6524" y1="-2.95683" x2="73.6127" y2="75.0125" gradientUnits="userSpaceOnUse">
<stop stop-color="#FEBE0C"/>
<stop offset="0.25" stop-color="#FC3172"/>
<stop offset="0.45" stop-color="#8759F2"/>
<stop offset="0.6" stop-color="#8759F2"/>
<stop offset="0.8" stop-color="#0096FD"/>
<stop offset="1" stop-color="#26F900"/>
</linearGradient>
<linearGradient id="paint1_linear_313_1317" x1="43.6524" y1="-45.9754" x2="187.033" y2="67.2986" gradientUnits="userSpaceOnUse">
<stop stop-color="#FEBE0C"/>
<stop offset="0.25" stop-color="#FC3172"/>
<stop offset="0.45" stop-color="#8759F2"/>
<stop offset="0.6" stop-color="#8759F2"/>
<stop offset="0.8" stop-color="#0096FD"/>
<stop offset="1" stop-color="#26F900"/>
</linearGradient>
</defs>
</svg>
