<svg width="34" height="29" viewBox="0 0 34 29" fill="none" xmlns="http://www.w3.org/2000/svg">
<path d="M10.816 21.0982L10.816 21.0982L10.8147 21.0928L5.89608 1.62392C5.89604 1.62377 5.89601 1.62362 5.89597 1.62347C5.7405 1.00658 5.17674 0.591962 4.54778 0.591962H0.567303C0.54282 0.591962 0.524318 0.582723 0.512797 0.571677C0.501882 0.561213 0.5 0.552588 0.5 0.545981C0.5 0.537506 0.502549 0.529024 0.512312 0.519628C0.522489 0.509833 0.540378 0.5 0.567303 0.5H4.54778C5.26539 0.5 5.86428 0.967379 6.02674 1.60741C6.02678 1.60754 6.02681 1.60768 6.02685 1.60782L10.8395 20.6597L10.9348 21.0373H11.3242H28.9197C28.9434 21.0379 28.9631 21.0473 28.9762 21.06C28.9893 21.0726 28.9904 21.0822 28.9904 21.0863C28.9904 21.0923 28.9885 21.1014 28.9774 21.1122C28.9663 21.1229 28.9483 21.1323 28.9231 21.1323H10.8785C10.8568 21.1323 10.8405 21.1253 10.8301 21.1175C10.8202 21.11 10.8172 21.103 10.816 21.0982ZM33.4415 7.14497L33.4413 7.14599L31.3466 15.4167L31.3466 15.4169C31.094 16.416 30.1623 17.1334 29.0603 17.1334H14.5722C14.5477 17.1334 14.5292 17.1242 14.5177 17.1131C14.5068 17.1026 14.5049 17.094 14.5049 17.0874C14.5049 17.0789 14.5075 17.0705 14.5172 17.0611C14.5274 17.0513 14.5453 17.0414 14.5722 17.0414H29.0603C30.0709 17.0414 30.9695 16.3795 31.2157 15.401C31.2158 15.4008 31.2158 15.4006 31.2159 15.4004L33.3103 7.13085C33.453 6.56876 33.3171 5.98305 32.9505 5.5358C32.5852 5.09019 32.0398 4.83682 31.4573 4.83682H10.1024C10.0779 4.83682 10.0594 4.82758 10.0479 4.81653C10.0369 4.80607 10.0351 4.79744 10.0351 4.79083C10.0351 4.78236 10.0376 4.77388 10.0474 4.76448C10.0575 4.75469 10.0754 4.74485 10.1024 4.74485H31.4635C32.1003 4.74485 32.6848 5.01978 33.0697 5.49237C33.456 5.96962 33.5885 6.56979 33.4415 7.14497ZM11.1354 26.1771C11.1354 24.9142 12.2087 23.8542 13.5685 23.8542C14.9283 23.8542 16.0017 24.9142 16.0017 26.1771C16.0017 27.44 14.9283 28.5 13.5685 28.5C12.2087 28.5 11.1354 27.44 11.1354 26.1771ZM11.2669 26.1771C11.2669 27.4281 12.3163 28.411 13.5685 28.411C14.8213 28.411 15.8702 27.4245 15.8702 26.1771C15.8702 24.9261 14.8208 23.9432 13.5685 23.9432C12.3163 23.9432 11.2669 24.9261 11.2669 26.1771ZM24.1241 26.1771C24.1241 24.9142 25.1974 23.8542 26.5573 23.8542C27.9171 23.8542 28.9904 24.9142 28.9904 26.1771C28.9904 27.44 27.9171 28.5 26.5573 28.5C25.1974 28.5 24.1241 27.44 24.1241 26.1771ZM24.2556 26.1771C24.2556 27.4281 25.305 28.411 26.5573 28.411C27.8064 28.411 28.8589 27.4251 28.8589 26.1771C28.8589 24.9261 27.8095 23.9432 26.5573 23.9432C25.305 23.9432 24.2556 24.9261 24.2556 26.1771Z" fill="black" stroke="black"/>
</svg>
