<svg width="34" height="29" viewBox="0 0 34 29" fill="none" xmlns="http://www.w3.org/2000/svg">
<path d="M16.9977 29C16.788 29 16.5737 28.9214 16.4141 28.7686L2.81776 15.7507C-0.939252 12.1535 -0.939252 6.29941 2.81776 2.69788C6.57476 -0.899292 12.689 -0.899292 16.4506 2.69788L16.9977 3.22174L17.5449 2.69788C21.3019 -0.899292 27.4161 -0.899292 31.1777 2.69788C32.9969 4.43971 34 6.75779 34 9.22429C34 11.6908 32.9969 14.0089 31.1777 15.7507L17.5859 28.7643C17.4218 28.9214 17.2075 29 16.9977 29ZM9.63417 1.58467C7.59152 1.58467 5.54432 2.33118 3.98954 3.81981C0.875419 6.80145 0.875419 11.6471 3.98954 14.6288L16.9977 27.0835L30.0059 14.6288C31.5151 13.1838 32.3449 11.2673 32.3449 9.22429C32.3449 7.18124 31.5151 5.26479 30.0059 3.81981C28.4967 2.37483 26.4951 1.58031 24.3613 1.58031C22.2274 1.58031 20.2258 2.37483 18.7166 3.81981L17.5813 4.90682C17.2713 5.20367 16.7196 5.20367 16.4095 4.90682L15.2742 3.81981C13.724 2.33118 11.6768 1.58467 9.63417 1.58467Z" fill="black"/>
</svg>
