<svg width="54" height="54" viewBox="0 0 54 54" fill="none" xmlns="http://www.w3.org/2000/svg">
<path fill-rule="evenodd" clip-rule="evenodd" d="M1 27C1 12.6406 12.6406 1 27 1C41.3594 1 53 12.6406 53 27C53 41.3594 41.3594 53 27 53C12.6406 53 1 41.3594 1 27Z" stroke="#1A1A1A"/>
<path fill-rule="evenodd" clip-rule="evenodd" d="M21.2838 13.2171C22.7629 13.1498 23.2355 13.1333 27.0015 13.1333H26.9972C30.7643 13.1333 31.2352 13.1498 32.7143 13.2171C34.1906 13.2847 35.1988 13.5184 36.0828 13.8613C36.9957 14.2152 37.7671 14.689 38.5384 15.4603C39.3098 16.2311 39.7835 17.0047 40.1389 17.9168C40.4798 18.7985 40.7138 19.8061 40.7831 21.2824C40.8495 22.7615 40.8669 23.2341 40.8669 27.0001C40.8669 30.7661 40.8495 31.2376 40.7831 32.7167C40.7138 34.1924 40.4798 35.2003 40.1389 36.0823C39.7835 36.994 39.3098 37.7677 38.5384 38.5385C37.7679 39.3098 36.9954 39.7847 36.0837 40.1389C35.2014 40.4818 34.1926 40.7155 32.7164 40.7831C31.2372 40.8505 30.7661 40.8669 26.9998 40.8669C23.2341 40.8669 22.7617 40.8505 21.2826 40.7831C19.8067 40.7155 18.7987 40.4818 17.9164 40.1389C17.005 39.7847 16.2313 39.3098 15.4609 38.5385C14.6898 37.7677 14.216 36.994 13.8616 36.082C13.5189 35.2003 13.2852 34.1927 13.2173 32.7164C13.1503 31.2373 13.1335 30.7661 13.1335 27.0001C13.1335 23.2341 13.1509 22.7612 13.217 21.2821C13.2835 19.8064 13.5175 18.7985 13.8613 17.9165C14.2166 17.0047 14.6904 16.2311 15.4617 15.4603C16.2325 14.6893 17.0061 14.2155 17.9182 13.8613C18.7999 13.5184 19.8075 13.2847 21.2838 13.2171ZM26.5392 15.6322C26.2588 15.632 25.999 15.6319 25.7574 15.6323V15.6288C23.173 15.6317 22.6772 15.649 21.398 15.7068C20.046 15.7689 19.3119 15.9943 18.8231 16.1849C18.176 16.4369 17.7138 16.7373 17.2284 17.2226C16.7431 17.708 16.4421 18.1702 16.1907 18.8173C16.0009 19.3061 15.775 20.0399 15.7132 21.3919C15.6468 22.8537 15.6335 23.2905 15.6335 26.9935C15.6335 30.6966 15.6468 31.1357 15.7132 32.5975C15.7747 33.9495 16.0009 34.6833 16.1907 35.1715C16.4427 35.8189 16.7431 36.28 17.2284 36.7653C17.7138 37.2507 18.176 37.5511 18.8231 37.8024C19.3122 37.9922 20.046 38.2181 21.398 38.2806C22.8598 38.347 23.2986 38.3614 27.0014 38.3614C30.7038 38.3614 31.1429 38.347 32.6047 38.2806C33.9567 38.2187 34.6911 37.9934 35.1793 37.8027C35.8267 37.5514 36.2875 37.2509 36.7729 36.7656C37.2582 36.2806 37.5592 35.8198 37.8106 35.1727C38.0004 34.6844 38.2263 33.9506 38.2881 32.5986C38.3545 31.1368 38.369 30.6977 38.369 26.997C38.369 23.2963 38.3545 22.8572 38.2881 21.3954C38.2266 20.0434 38.0004 19.3096 37.8106 18.8214C37.5586 18.1743 37.2582 17.712 36.7729 17.2267C36.2878 16.7413 35.8264 16.4409 35.1793 16.1896C34.6905 15.9998 33.9567 15.7738 32.6047 15.712C31.1426 15.6456 30.7038 15.6323 27.0014 15.6323C26.8414 15.6323 26.6874 15.6322 26.5392 15.6322Z" fill="#1A1A1A"/>
<path fill-rule="evenodd" clip-rule="evenodd" d="M34.4034 17.9347C33.4847 17.9347 32.7394 18.6791 32.7394 19.5981C32.7394 20.5168 33.4847 21.2621 34.4034 21.2621C35.3221 21.2621 36.0674 20.5168 36.0674 19.5981C36.0674 18.6794 35.3221 17.9341 34.4034 17.9341V17.9347Z" fill="#1A1A1A"/>
<path fill-rule="evenodd" clip-rule="evenodd" d="M19.88 27.0003C19.88 23.0677 23.0685 19.8792 27.0012 19.8792H27.0009C30.9336 19.8792 34.1212 23.0677 34.1212 27.0003C34.1212 30.933 30.9339 34.1201 27.0012 34.1201C23.0685 34.1201 19.88 30.933 19.88 27.0003ZM31.6235 27.0002C31.6235 24.4473 29.5538 22.378 27.0012 22.378C24.4483 22.378 22.3789 24.4473 22.3789 27.0002C22.3789 29.5529 24.4483 31.6225 27.0012 31.6225C29.5538 31.6225 31.6235 29.5529 31.6235 27.0002Z" fill="#1A1A1A"/>
</svg>
