<svg width="52" height="52" viewBox="0 0 52 52" fill="none" xmlns="http://www.w3.org/2000/svg">
<path d="M4.1925 38.5776L4.13742 38.7788L0.710941 51.2966L13.534 47.9327L13.726 47.8823L13.9004 47.9774C17.59 49.9911 21.7565 51.0515 25.9851 51.0537C39.9112 51.0535 51.2466 39.7184 51.253 25.7875L4.1925 38.5776ZM4.1925 38.5776L4.08823 38.3969M4.1925 38.5776L4.08823 38.3969M4.08823 38.3969C1.87679 34.5646 0.714542 30.2201 0.716667 25.7641C0.72304 11.8353 12.0585 0.500085 25.9847 0.5L4.08823 38.3969ZM43.8592 7.91065C39.0867 3.13389 32.7443 0.502166 25.9848 0.5L43.8592 7.91065ZM43.8592 7.91065C48.6297 12.6875 51.2551 19.0343 51.253 25.7874L43.8592 7.91065Z" stroke="#1A1A1A"/>
<path d="M37.5072 31.6082L37.5065 31.6079C37.1875 31.4479 36.2376 30.9788 35.2936 30.5231C34.3337 30.0596 33.4249 29.6321 33.1598 29.5359L33.1592 29.5357C32.8492 29.4229 32.7031 29.3901 32.6029 29.4015C32.5579 29.4066 32.4586 29.4238 32.2966 29.6664C31.8457 30.3425 30.5874 31.8195 30.2184 32.2419C29.9829 32.5114 29.6913 32.7246 29.3051 32.7713C28.9393 32.8156 28.5775 32.6983 28.2224 32.5201C28.1284 32.4729 27.9948 32.4152 27.8265 32.3424C26.9326 31.956 25.0594 31.1461 22.9353 29.2504C20.9631 27.4903 19.638 25.3281 19.2543 24.6672C19.0074 24.243 18.959 23.8388 19.0981 23.4645C19.2156 23.1483 19.4521 22.9122 19.6003 22.7642C19.6053 22.7593 19.6101 22.7544 19.6149 22.7496L19.6162 22.7483C19.7921 22.5737 19.9836 22.34 20.1929 22.0845C20.3081 21.9439 20.4286 21.7967 20.555 21.6492L20.559 21.6445L20.559 21.6445C20.7903 21.3811 20.8801 21.1989 21.0393 20.876C21.0692 20.8154 21.1016 20.7498 21.1378 20.6777C21.2502 20.4526 21.2141 20.2564 21.084 19.9978L21.5306 19.773M37.5072 31.6082L34.171 37.5435C33.1028 37.702 31.7829 37.7639 30.3399 37.3058C29.4132 37.0112 28.2307 36.6205 26.7164 35.967C20.8424 33.431 16.8536 27.7347 16.0465 26.5822C15.9865 26.4964 15.9441 26.4358 15.9198 26.4036L15.9131 26.3946L15.913 26.3945L15.913 26.3945C15.7447 26.1695 15.1101 25.3209 14.5182 24.1487C13.9228 22.9697 13.3921 21.505 13.3921 20.0439C13.3921 17.2811 14.7281 15.8522 15.3845 15.1501C15.4317 15.0996 15.4753 15.0529 15.5147 15.0098C15.9909 14.488 16.542 14.3677 16.8574 14.3667L18.0799 14.3882C18.1887 14.3933 18.2644 14.3926 18.3223 14.3921C18.4303 14.3912 18.4762 14.3908 18.5588 14.4298C18.6462 14.4711 18.8443 14.6114 19.0844 15.1857C19.249 15.5823 19.4846 16.1564 19.737 16.7715C19.8944 17.155 20.0583 17.5544 20.2156 17.9367C20.6177 18.9137 20.9916 19.8156 21.0846 19.999L21.5306 19.773M37.5072 31.6082C37.6519 31.6806 37.7762 31.7405 37.8863 31.7935M37.5072 31.6082L37.8863 31.7935M21.5306 19.773C21.4182 19.5512 20.7678 17.9663 20.2003 16.5835C19.9474 15.9671 19.7109 15.3908 19.5459 14.9934L21.4921 21.0889C21.5212 21.0297 21.5517 20.9677 21.5848 20.9019C21.7993 20.4729 21.6931 20.0959 21.5306 19.773ZM37.8863 31.7935C38.044 31.8694 38.1724 31.9313 38.2899 31.9957M37.8863 31.7935L38.2899 31.9957M38.2899 31.9957C38.4504 32.0837 38.5083 32.1356 38.528 32.1581M38.2899 31.9957L38.528 32.1581M38.528 32.1581C38.5308 32.1714 38.5442 32.223 38.5529 32.3327C38.5647 32.4813 38.5643 32.6863 38.5426 32.9379C38.4994 33.4398 38.3741 34.0963 38.1201 34.8083C37.9093 35.3981 37.2522 36.0415 36.4103 36.5812C35.5805 37.1132 34.6958 37.4653 34.1712 37.5435L38.528 32.1581Z" fill="white" stroke="#1A1A1A"/>
</svg>
