<svg width="54" height="54" viewBox="0 0 54 54" fill="none" xmlns="http://www.w3.org/2000/svg">
<path fill-rule="evenodd" clip-rule="evenodd" d="M27 53C41.3594 53 53 41.3594 53 27C53 12.6406 41.3594 1 27 1C12.6406 1 1 12.6406 1 27C1 41.3594 12.6406 53 27 53Z" stroke="#1A1A1A"/>
<path fill-rule="evenodd" clip-rule="evenodd" d="M22.6753 32.2893L22.6748 32.2889L22.6754 32.2884L22.6754 32.2882L22.6755 32.2883L34.7311 21.409C35.2602 20.9394 34.6156 20.7104 33.9131 21.1364L19.034 30.5235L12.607 28.5175C11.2191 28.0925 11.2091 27.1388 12.9186 26.4531L37.9631 16.796C39.107 16.2767 40.211 17.0708 39.7743 18.8215L35.5092 38.9201C35.2114 40.3484 34.3485 40.69 33.1528 40.0302L26.6558 35.2302L23.5329 38.2667C23.5231 38.2763 23.5133 38.2858 23.5035 38.2953C23.1543 38.6354 22.8653 38.9167 22.2329 38.9167L22.6753 32.2893Z" fill="#1A1A1A"/>
</svg>
