<svg width="29" height="29" viewBox="0 0 29 29" fill="none" xmlns="http://www.w3.org/2000/svg">
<path d="M17.9336 14.7142C20.6049 13.4641 22.4515 10.8071 22.4515 7.7376C22.4515 3.47233 18.8865 0 14.5 0C10.1135 0 6.54849 3.46913 6.54849 7.7376C6.54849 10.8071 8.39837 13.4673 11.0664 14.7142C4.72491 16.217 0 21.79 0 28.4181C0 28.7378 0.266145 29 0.598006 29C0.929866 29 1.19601 28.741 1.19601 28.4181C1.19601 21.2816 7.16293 15.472 14.5 15.472C21.8338 15.472 27.804 21.2784 27.804 28.4181C27.804 28.7378 28.0701 29 28.402 29C28.7339 29 29 28.741 29 28.4181C28.9967 21.79 24.2751 16.2202 17.9336 14.7142ZM7.74451 7.7376C7.74451 4.1118 10.7773 1.16384 14.5 1.16384C18.2228 1.16384 21.2555 4.11499 21.2555 7.7376C21.2555 11.3602 18.2228 14.3114 14.5 14.3114C10.7773 14.3114 7.74451 11.3634 7.74451 7.7376Z" fill="black"/>
</svg>
