<svg width="58" height="58" viewBox="0 0 58 58" fill="none" xmlns="http://www.w3.org/2000/svg">
<circle cx="29" cy="29" r="28.5" fill="white" fill-opacity="0.5" stroke="url(#paint0_linear_184_4830)"/>
<path d="M27.0142 49.632C26.7257 49.632 26.4616 49.4305 26.3991 49.1351L23.9631 37.9696C23.9144 37.7507 23.9874 37.5214 24.1542 37.3685C24.321 37.2155 24.5573 37.1669 24.7693 37.2329L27.3443 38.053L28.7552 33.6188L20.7764 35.5128C20.5679 35.5614 20.349 35.5023 20.1961 35.3564C20.0397 35.2104 19.9702 34.995 20.0119 34.783L24.5364 10.447C24.599 10.103 24.9291 9.87708 25.2732 9.94311C25.6172 10.0057 25.8431 10.3358 25.7771 10.6798L21.4297 34.0637L29.551 32.135C29.7734 32.0829 30.0062 32.1524 30.1591 32.3192C30.3155 32.486 30.3676 32.7223 30.2981 32.9412L28.3556 39.04C28.3034 39.1998 28.1922 39.3319 28.0428 39.4083C27.8934 39.4848 27.7196 39.4987 27.5632 39.45L25.4261 38.7689L27.6293 48.8675C27.7022 49.2081 27.4868 49.5451 27.1462 49.6181C27.1045 49.6251 27.0594 49.632 27.0142 49.632Z" fill="black"/>
<path d="M27.0167 49.6318C26.8568 49.6318 26.6935 49.5693 26.5719 49.4477C26.3251 49.2009 26.3251 48.8013 26.5719 48.5546L33.661 41.4654L31.3258 40.6175C31.152 40.5549 31.0165 40.4194 30.9505 40.2491C30.8844 40.0788 30.8983 39.8842 30.9852 39.7244L38.7173 25.4904L30.8532 27.1411C30.6308 27.1863 30.4014 27.1133 30.252 26.943C30.1025 26.7728 30.0539 26.5364 30.1269 26.321L33.7375 15.7776L24.8656 11.1245C24.5563 10.9611 24.4382 10.5823 24.598 10.2731C24.7613 9.96378 25.1401 9.84563 25.4494 10.0055L34.7974 14.9019C35.0719 15.0478 35.204 15.371 35.1032 15.6664L31.6768 25.6712L39.7911 23.9684C40.0309 23.9162 40.2811 24.0135 40.427 24.2081C40.573 24.4062 40.5938 24.6703 40.4757 24.8858L32.4413 39.6757L35.0163 40.614C35.2179 40.687 35.3708 40.8607 35.4159 41.0692C35.4611 41.2777 35.3986 41.5002 35.2457 41.6531L27.4545 49.4442C27.3399 49.5693 27.1765 49.6318 27.0167 49.6318Z" fill="url(#paint1_linear_184_4830)"/>
<defs>
<linearGradient id="paint0_linear_184_4830" x1="12.1723" y1="-47.6174" x2="74.2966" y2="-34.4037" gradientUnits="userSpaceOnUse">
<stop stop-color="#FEBE0C"/>
<stop offset="0.25" stop-color="#FC3172"/>
<stop offset="0.45" stop-color="#8759F2"/>
<stop offset="0.6" stop-color="#8759F2"/>
<stop offset="0.8" stop-color="#0096FD"/>
<stop offset="1" stop-color="#26F900"/>
</linearGradient>
<linearGradient id="paint1_linear_184_4830" x1="16.6819" y1="18.1504" x2="37.7193" y2="39.1877" gradientUnits="userSpaceOnUse">
<stop stop-color="#F9B90C"/>
<stop offset="0.25" stop-color="#F73172"/>
<stop offset="0.5" stop-color="#8259ED"/>
<stop offset="0.75" stop-color="#0091F8"/>
<stop offset="1" stop-color="#26F400"/>
</linearGradient>
</defs>
</svg>
