<svg width="210" height="59" viewBox="0 0 210 59" fill="none" xmlns="http://www.w3.org/2000/svg">
<path d="M159 41L159.354 40.6464L159.207 40.5H159V41ZM175 57L174.646 57.3536L175.5 58.2071V57H175ZM175 41V40.5H174.5V41H175ZM1.5 5C1.5 3.067 3.067 1.5 5 1.5V0.5C2.51472 0.5 0.5 2.51472 0.5 5H1.5ZM1.5 37V5H0.5V37H1.5ZM5 40.5C3.06701 40.5 1.5 38.933 1.5 37H0.5C0.5 39.4853 2.51472 41.5 5 41.5V40.5ZM159 40.5H5V41.5H159V40.5ZM158.646 41.3536L174.646 57.3536L175.354 56.6464L159.354 40.6464L158.646 41.3536ZM175.5 57V41H174.5V57H175.5ZM205 40.5H175V41.5H205V40.5ZM208.5 37C208.5 38.933 206.933 40.5 205 40.5V41.5C207.485 41.5 209.5 39.4853 209.5 37H208.5ZM208.5 5V37H209.5V5H208.5ZM205 1.5C206.933 1.5 208.5 3.067 208.5 5H209.5C209.5 2.51472 207.485 0.5 205 0.5V1.5ZM5 1.5H205V0.5H5V1.5Z" fill="url(#paint0_linear_3143_897)"/>
<defs>
<linearGradient id="paint0_linear_3143_897" x1="44.6524" y1="-44.9754" x2="188.033" y2="68.2986" gradientUnits="userSpaceOnUse">
<stop stop-color="#FEBE0C"/>
<stop offset="0.25" stop-color="#FC3172"/>
<stop offset="0.45" stop-color="#8759F2"/>
<stop offset="0.6" stop-color="#8759F2"/>
<stop offset="0.8" stop-color="#0096FD"/>
<stop offset="1" stop-color="#26F900"/>
</linearGradient>
</defs>
</svg>
