<svg width="12" height="12" viewBox="0 0 12 12" fill="none" xmlns="http://www.w3.org/2000/svg">
<path d="M1.33093 11.3344C1.33093 11.6997 1.03379 12 0.665463 12C0.300233 12 0 11.7028 0 11.3344C0 10.9659 0.297137 10.6687 0.665463 10.6687C1.03069 10.6718 1.33093 10.969 1.33093 11.3344ZM0.665463 7.16099C0.355946 7.16099 0.102141 7.41177 0.102141 7.72446C0.102141 8.03715 0.352851 8.28793 0.665463 8.28793C2.34614 8.28793 3.71421 9.65635 3.71421 11.3375C3.71421 11.6471 3.96492 11.9009 4.27753 11.9009C4.59015 11.9009 4.84086 11.6502 4.84086 11.3375C4.84086 9.03096 2.96827 7.16099 0.665463 7.16099ZM0.665463 3.69969C0.355946 3.69969 0.102141 3.95047 0.102141 4.26316C0.102141 4.57585 0.352851 4.82663 0.665463 4.82663C4.25587 4.82663 7.17462 7.74613 7.17462 11.3375C7.17462 11.6471 7.42533 11.9009 7.73794 11.9009C8.05055 11.9009 8.30126 11.6502 8.30126 11.3375C8.29817 7.12384 4.8749 3.69969 0.665463 3.69969ZM0.665463 0C0.355946 0 0.102141 0.250774 0.102141 0.563467C0.102141 0.876161 0.352851 1.12693 0.665463 1.12693C6.29559 1.12693 10.8734 5.70898 10.8734 11.3375C10.8734 11.6471 11.1241 11.9009 11.4367 11.9009C11.7493 11.9009 12 11.6502 12 11.3375C12 5.08359 6.91462 0 0.665463 0Z" fill="url(#paint0_linear_3087_202)"/>
<defs>
<linearGradient id="paint0_linear_3087_202" x1="-1.34659" y1="1.77892" x2="10.222" y2="13.3446" gradientUnits="userSpaceOnUse">
<stop stop-color="#F9B90C"/>
<stop offset="0.25" stop-color="#F73172"/>
<stop offset="0.5" stop-color="#8259ED"/>
<stop offset="0.75" stop-color="#0091F8"/>
<stop offset="1" stop-color="#26F400"/>
</linearGradient>
</defs>
</svg>
