<svg width="54" height="54" viewBox="0 0 54 54" fill="none" xmlns="http://www.w3.org/2000/svg">
<g clip-path="url(#clip0_300_16220)">
<path d="M46 0H8C3.58172 0 0 3.58172 0 8V46C0 50.4183 3.58172 54 8 54H46C50.4183 54 54 50.4183 54 46V8C54 3.58172 50.4183 0 46 0Z" fill="#F9F9F9"/>
<path d="M18.063 18.7542L19.9341 15.8949L18.2385 13.2759H19.5318L20.6307 15.0363L21.708 13.2759H22.9905L21.2868 15.9354L23.1579 18.7542H21.8241L20.6091 16.8588L19.3914 18.7542H18.063Z" fill="black"/>
<path d="M23.166 18.7542L25.0371 15.8949L23.3415 13.2759H24.6348L25.7337 15.0363L26.811 13.2759H28.0935L26.3898 15.9354L28.2609 18.7542H26.9271L25.7121 16.8588L24.4944 18.7542H23.166Z" fill="black"/>
<path d="M32.7565 17.1099L32.1463 17.2206C32.1247 17.0991 32.0788 17.0073 32.0059 16.9452C31.933 16.8831 31.8385 16.8534 31.7224 16.8534C31.5685 16.8534 31.447 16.9074 31.3552 17.0127C31.2634 17.118 31.2175 17.2962 31.2175 17.5446C31.2175 17.8227 31.2634 18.0171 31.3579 18.1305C31.4524 18.2439 31.5766 18.3033 31.7332 18.3033C31.8493 18.3033 31.9465 18.2709 32.0221 18.2034C32.0977 18.1359 32.149 18.0225 32.1814 17.8605L32.7889 17.9631C32.7268 18.2412 32.6053 18.4518 32.4271 18.5949C32.2489 18.738 32.0086 18.8082 31.7089 18.8082C31.366 18.8082 31.096 18.7002 30.8935 18.4842C30.691 18.2682 30.5884 17.9712 30.5884 17.5905C30.5884 17.2044 30.691 16.9047 30.8935 16.6914C31.096 16.4781 31.3714 16.3701 31.7197 16.3701C32.0032 16.3701 32.23 16.4322 32.3974 16.5537C32.5648 16.6725 32.6836 16.8588 32.7565 17.1099Z" fill="black"/>
<path d="M33.1804 16.4214H33.7501V16.74C33.9526 16.4916 34.1956 16.3674 34.4764 16.3674C34.6249 16.3674 34.7545 16.3971 34.8652 16.4592C34.9759 16.5213 35.065 16.6131 35.1352 16.7373C35.2378 16.6131 35.3485 16.5186 35.4673 16.4592C35.5861 16.3971 35.713 16.3674 35.848 16.3674C36.0208 16.3674 36.1639 16.4025 36.2827 16.4727C36.4015 16.5429 36.4906 16.6455 36.55 16.7805C36.5932 16.8804 36.6148 17.0424 36.6148 17.2638V18.7569H35.9965V17.4231C35.9965 17.1909 35.9749 17.0424 35.9317 16.9749C35.875 16.8858 35.7859 16.8426 35.6671 16.8426C35.5807 16.8426 35.4997 16.8696 35.4241 16.9209C35.3485 16.9749 35.2918 17.0505 35.2594 17.1531C35.227 17.2557 35.2081 17.415 35.2081 17.6364V18.7569H34.5898V17.4771C34.5898 17.2503 34.579 17.1045 34.5574 17.037C34.5358 16.9722 34.5007 16.9209 34.4548 16.8885C34.4089 16.8561 34.3468 16.8399 34.2658 16.8399C34.1713 16.8399 34.0849 16.8669 34.0093 16.9182C33.9337 16.9695 33.8797 17.0424 33.8446 17.1396C33.8095 17.2368 33.796 17.3961 33.796 17.6202V18.7542H33.1777V16.4214H33.1804Z" fill="black"/>
<path d="M18.063 40.3299L19.9341 37.4706L18.2385 34.8516H19.5318L20.6307 36.612L21.708 34.8516H22.9905L21.2868 37.5111L23.1579 40.3299H21.8241L20.6091 38.4345L19.3914 40.3299H18.063Z" fill="black"/>
<path d="M23.166 40.3299L25.0371 37.4706L23.3415 34.8516H24.6348L25.7337 36.612L26.811 34.8516H28.0935L26.3898 37.5111L28.2609 40.3299H26.9271L25.7121 38.4345L24.4944 40.3299H23.166Z" fill="black"/>
<path d="M32.7565 38.6856L32.1463 38.7963C32.1247 38.6748 32.0788 38.583 32.0059 38.5209C31.933 38.4588 31.8385 38.4291 31.7224 38.4291C31.5685 38.4291 31.447 38.4831 31.3552 38.5884C31.2634 38.6937 31.2175 38.8719 31.2175 39.1203C31.2175 39.3984 31.2634 39.5928 31.3579 39.7062C31.4524 39.8196 31.5766 39.879 31.7332 39.879C31.8493 39.879 31.9465 39.8466 32.0221 39.7791C32.0977 39.7116 32.149 39.5982 32.1814 39.4362L32.7889 39.5388C32.7268 39.8169 32.6053 40.0275 32.4271 40.1706C32.2489 40.3137 32.0086 40.3839 31.7089 40.3839C31.366 40.3839 31.096 40.2759 30.8935 40.0599C30.691 39.8439 30.5884 39.5469 30.5884 39.1662C30.5884 38.7801 30.691 38.4804 30.8935 38.2671C31.096 38.0538 31.3714 37.9458 31.7197 37.9458C32.0032 37.9458 32.23 38.0079 32.3974 38.1294C32.5648 38.2482 32.6836 38.4345 32.7565 38.6856Z" fill="black"/>
<path d="M33.1804 37.9944H33.7501V38.313C33.9526 38.0646 34.1956 37.9404 34.4764 37.9404C34.6249 37.9404 34.7545 37.9701 34.8652 38.0322C34.9759 38.0943 35.065 38.1861 35.1352 38.3103C35.2378 38.1861 35.3485 38.0916 35.4673 38.0322C35.5861 37.9701 35.713 37.9404 35.848 37.9404C36.0208 37.9404 36.1639 37.9755 36.2827 38.0457C36.4015 38.1159 36.4906 38.2185 36.55 38.3535C36.5932 38.4534 36.6148 38.6154 36.6148 38.8368V40.3299H35.9965V38.9961C35.9965 38.7639 35.9749 38.6154 35.9317 38.5479C35.875 38.4588 35.7859 38.4156 35.6671 38.4156C35.5807 38.4156 35.4997 38.4426 35.4241 38.4939C35.3485 38.5479 35.2918 38.6235 35.2594 38.7261C35.227 38.8287 35.2081 38.988 35.2081 39.2094V40.3299H34.5898V39.0501C34.5898 38.8233 34.579 38.6775 34.5574 38.61C34.5358 38.5452 34.5007 38.4939 34.4548 38.4615C34.4089 38.4291 34.3468 38.4129 34.2658 38.4129C34.1713 38.4129 34.0849 38.4399 34.0093 38.4912C33.9337 38.5425 33.8797 38.6154 33.8446 38.7126C33.8095 38.8098 33.796 38.9691 33.796 39.1932V40.3272H33.1777V37.9944H33.1804Z" fill="black"/>
<path d="M38.8424 25.7824H8.1164C7.8464 25.7824 7.625 25.5637 7.625 25.291C7.625 25.0183 7.8437 24.7996 8.1164 24.7996H38.8424C39.1124 24.7996 39.3338 25.0183 39.3338 25.291C39.3338 25.5637 39.1124 25.7824 38.8424 25.7824Z" fill="url(#paint0_linear_300_16220)"/>
<path d="M11.5316 29.1978C11.4074 29.1978 11.2805 29.1492 11.186 29.0547L7.7678 25.6392C7.5761 25.4475 7.5761 25.137 7.7678 24.9453L11.1833 21.5298C11.375 21.3381 11.6855 21.3381 11.8772 21.5298C12.0689 21.7215 12.0689 22.032 11.8772 22.2237L8.8073 25.2909L11.8772 28.3608C12.0689 28.5525 12.0689 28.863 11.8772 29.0547C11.7827 29.1492 11.6558 29.1978 11.5316 29.1978Z" fill="url(#paint1_linear_300_16220)"/>
<path d="M45.8834 29.1979H15.1574C14.8874 29.1979 14.666 28.9792 14.666 28.7065C14.666 28.4338 14.8847 28.2151 15.1574 28.2151H45.8834C46.1534 28.2151 46.3748 28.4338 46.3748 28.7065C46.3748 28.9792 46.1561 29.1979 45.8834 29.1979Z" fill="url(#paint2_linear_300_16220)"/>
<path d="M42.4679 32.6133C42.3437 32.6133 42.2168 32.5647 42.1223 32.4702C41.9306 32.2785 41.9306 31.968 42.1223 31.7763L45.1922 28.7064L42.1223 25.6365C41.9306 25.4448 41.9306 25.1343 42.1223 24.9426C42.314 24.7509 42.6245 24.7509 42.8162 24.9426L46.2317 28.3581C46.4234 28.5498 46.4234 28.8603 46.2317 29.052L42.8162 32.4675C42.719 32.5674 42.5948 32.6133 42.4679 32.6133Z" fill="url(#paint3_linear_300_16220)"/>
</g>
<defs>
<linearGradient id="paint0_linear_300_16220" x1="15.4501" y1="17.2637" x2="31.5064" y2="33.3201" gradientUnits="userSpaceOnUse">
<stop stop-color="#F9B90C"/>
<stop offset="0.25" stop-color="#F73172"/>
<stop offset="0.5" stop-color="#8259ED"/>
<stop offset="0.75" stop-color="#0091F8"/>
<stop offset="1" stop-color="#26F400"/>
</linearGradient>
<linearGradient id="paint1_linear_300_16220" x1="9.47633" y1="23.237" x2="13.5861" y2="27.3467" gradientUnits="userSpaceOnUse">
<stop stop-color="#F9B90C"/>
<stop offset="0.25" stop-color="#F73172"/>
<stop offset="0.5" stop-color="#8259ED"/>
<stop offset="0.75" stop-color="#0091F8"/>
<stop offset="1" stop-color="#26F400"/>
</linearGradient>
<linearGradient id="paint2_linear_300_16220" x1="22.4934" y1="20.6801" x2="38.5495" y2="36.7365" gradientUnits="userSpaceOnUse">
<stop stop-color="#F9B90C"/>
<stop offset="0.25" stop-color="#F73172"/>
<stop offset="0.5" stop-color="#8259ED"/>
<stop offset="0.75" stop-color="#0091F8"/>
<stop offset="1" stop-color="#26F400"/>
</linearGradient>
<linearGradient id="paint3_linear_300_16220" x1="40.4135" y1="26.6533" x2="44.5232" y2="30.763" gradientUnits="userSpaceOnUse">
<stop stop-color="#F9B90C"/>
<stop offset="0.25" stop-color="#F73172"/>
<stop offset="0.5" stop-color="#8259ED"/>
<stop offset="0.75" stop-color="#0091F8"/>
<stop offset="1" stop-color="#26F400"/>
</linearGradient>
<clipPath id="clip0_300_16220">
<rect width="54" height="54" fill="white"/>
</clipPath>
</defs>
</svg>
