<svg width="54" height="54" viewBox="0 0 54 54" fill="none" xmlns="http://www.w3.org/2000/svg">
<g clip-path="url(#clip0_300_16239)">
<path d="M46 0H8C3.58172 0 0 3.58172 0 8V46C0 50.4183 3.58172 54 8 54H46C50.4183 54 54 50.4183 54 46V8C54 3.58172 50.4183 0 46 0Z" fill="#F9F9F9"/>
<path d="M33.1855 27.845L35.0566 24.9857L33.361 22.3667H34.6543L35.7532 24.1271L36.8305 22.3667H38.113L36.4093 25.0262L38.2804 27.845H36.9466L35.7316 25.9496L34.5139 27.845H33.1855Z" fill="black"/>
<path d="M38.291 27.845L40.1621 24.9857L38.4665 22.3667H39.7598L40.8587 24.1271L41.936 22.3667H43.2185L41.5148 25.0262L43.3859 27.845H42.0521L40.8371 25.9496L39.6194 27.845H38.291Z" fill="black"/>
<path d="M37.3951 29.8377L36.785 29.9484C36.7634 29.8269 36.7174 29.7351 36.6445 29.673C36.5716 29.6109 36.4771 29.5812 36.361 29.5812C36.2071 29.5812 36.0856 29.6352 35.9938 29.7405C35.902 29.8458 35.8562 30.024 35.8562 30.2724C35.8562 30.5505 35.9021 30.7449 35.9966 30.8583C36.0911 30.9717 36.2153 31.0311 36.3719 31.0311C36.488 31.0311 36.5851 30.9987 36.6607 30.9312C36.7363 30.8637 36.7876 30.7503 36.82 30.5883L37.4275 30.6909C37.3654 30.969 37.2439 31.1796 37.0657 31.3227C36.8875 31.4658 36.6472 31.536 36.3475 31.536C36.0046 31.536 35.7347 31.428 35.5322 31.212C35.3297 30.996 35.2271 30.699 35.2271 30.3183C35.2271 29.9322 35.3297 29.6325 35.5322 29.4192C35.7347 29.2059 36.0101 29.0979 36.3584 29.0979C36.6419 29.0979 36.8686 29.16 37.036 29.2815C37.2034 29.4003 37.3222 29.5866 37.3951 29.8377Z" fill="black"/>
<path d="M37.8191 29.1492H38.3888V29.4678C38.5913 29.2194 38.8343 29.0952 39.1151 29.0952C39.2636 29.0952 39.3932 29.1249 39.5039 29.187C39.6146 29.2491 39.7037 29.3409 39.7739 29.4651C39.8765 29.3409 39.9872 29.2464 40.106 29.187C40.2248 29.1249 40.3517 29.0952 40.4867 29.0952C40.6595 29.0952 40.8026 29.1303 40.9214 29.2005C41.0402 29.2707 41.1293 29.3733 41.1887 29.5083C41.2319 29.6082 41.2535 29.7702 41.2535 29.9916V31.4847H40.6352V30.1509C40.6352 29.9187 40.6136 29.7702 40.5704 29.7027C40.5137 29.6136 40.4246 29.5704 40.3058 29.5704C40.2194 29.5704 40.1384 29.5974 40.0628 29.6487C39.9872 29.7027 39.9305 29.7783 39.8981 29.8809C39.8657 29.9835 39.8468 30.1428 39.8468 30.3642V31.4847H39.2285V30.2049C39.2285 29.9781 39.2177 29.8323 39.1961 29.7648C39.1745 29.7 39.1394 29.6487 39.0935 29.6163C39.0476 29.5839 38.9855 29.5677 38.9045 29.5677C38.81 29.5677 38.7236 29.5947 38.648 29.646C38.5724 29.6973 38.5184 29.7702 38.4833 29.8674C38.4482 29.9646 38.4347 30.1239 38.4347 30.348V31.482H37.8164V29.1492H37.8191Z" fill="black"/>
<path d="M10.603 27.845L12.4741 24.9857L10.7785 22.3667H12.0718L13.1707 24.1271L14.248 22.3667H15.5305L13.8268 25.0262L15.6979 27.845H14.3641L13.1491 25.9496L11.9314 27.845H10.603Z" fill="black"/>
<path d="M15.7085 27.845L17.5796 24.9857L15.884 22.3667H17.1773L18.2762 24.1271L19.3535 22.3667H20.636L18.9323 25.0262L20.8034 27.845H19.4696L18.2546 25.9496L17.0369 27.845H15.7085Z" fill="black"/>
<path d="M14.8151 29.8377L14.2049 29.9484C14.1833 29.8269 14.1374 29.7351 14.0645 29.673C13.9916 29.6109 13.8971 29.5812 13.781 29.5812C13.6271 29.5812 13.5056 29.6352 13.4138 29.7405C13.322 29.8458 13.2761 30.024 13.2761 30.2724C13.2761 30.5505 13.322 30.7449 13.4165 30.8583C13.511 30.9717 13.6352 31.0311 13.7918 31.0311C13.9079 31.0311 14.0051 30.9987 14.0807 30.9312C14.1563 30.8637 14.2076 30.7503 14.24 30.5883L14.8475 30.6909C14.7854 30.969 14.6639 31.1796 14.4857 31.3227C14.3075 31.4658 14.0672 31.536 13.7675 31.536C13.4246 31.536 13.1546 31.428 12.9521 31.212C12.7496 30.996 12.647 30.699 12.647 30.3183C12.647 29.9322 12.7496 29.6325 12.9521 29.4192C13.1546 29.2059 13.43 29.0979 13.7783 29.0979C14.0618 29.0979 14.2886 29.16 14.456 29.2815C14.6207 29.4003 14.7422 29.5866 14.8151 29.8377Z" fill="black"/>
<path d="M15.2366 29.1492H15.8063V29.4678C16.0088 29.2194 16.2518 29.0952 16.5326 29.0952C16.6811 29.0952 16.8107 29.1249 16.9214 29.187C17.0321 29.2491 17.1212 29.3409 17.1914 29.4651C17.294 29.3409 17.4047 29.2464 17.5235 29.187C17.6423 29.1249 17.7692 29.0952 17.9042 29.0952C18.077 29.0952 18.2201 29.1303 18.3389 29.2005C18.4577 29.2707 18.5468 29.3733 18.6062 29.5083C18.6494 29.6082 18.671 29.7702 18.671 29.9916V31.4847H18.0527V30.1509C18.0527 29.9187 18.0311 29.7702 17.9879 29.7027C17.9312 29.6136 17.8421 29.5704 17.7233 29.5704C17.6369 29.5704 17.5559 29.5974 17.4803 29.6487C17.4047 29.7027 17.348 29.7783 17.3156 29.8809C17.2832 29.9835 17.2643 30.1428 17.2643 30.3642V31.4847H16.646V30.2049C16.646 29.9781 16.6352 29.8323 16.6136 29.7648C16.592 29.7 16.5569 29.6487 16.511 29.6163C16.4651 29.5839 16.403 29.5677 16.322 29.5677C16.2275 29.5677 16.1411 29.5947 16.0655 29.646C15.9899 29.6973 15.9359 29.7702 15.9008 29.8674C15.8657 29.9646 15.8522 30.1239 15.8522 30.348V31.482H15.2339V29.1492H15.2366Z" fill="black"/>
<path d="M28.7092 39.3309C28.4392 39.3309 28.2178 39.1122 28.2178 38.8395V8.11616C28.2178 7.84616 28.4365 7.62476 28.7092 7.62476C28.9819 7.62476 29.2006 7.84346 29.2006 8.11616V38.8422C29.1979 39.1122 28.9792 39.3309 28.7092 39.3309Z" fill="url(#paint0_linear_300_16239)"/>
<path d="M32.1243 12.0203C32.0001 12.0203 31.8732 11.9717 31.7787 11.8772L28.7088 8.8073L25.6389 11.8772C25.4472 12.0689 25.1367 12.0689 24.945 11.8772C24.7533 11.6855 24.7533 11.375 24.945 11.1833L28.3605 7.7678C28.5522 7.5761 28.8627 7.5761 29.0544 7.7678L32.4699 11.1833C32.6616 11.375 32.6616 11.6855 32.4699 11.8772C32.3754 11.9744 32.2485 12.0203 32.1243 12.0203Z" fill="url(#paint1_linear_300_16239)"/>
<path d="M25.2907 46.3751C25.0207 46.3751 24.7993 46.1564 24.7993 45.8837V15.1577C24.7993 14.8877 25.018 14.6663 25.2907 14.6663C25.5634 14.6663 25.7821 14.885 25.7821 15.1577V45.8837C25.7821 46.1564 25.5634 46.3751 25.2907 46.3751Z" fill="url(#paint2_linear_300_16239)"/>
<path d="M25.2906 46.375C25.1664 46.375 25.0395 46.3264 24.945 46.2319L21.5295 42.8164C21.3378 42.6247 21.3378 42.3142 21.5295 42.1225C21.7212 41.9308 22.0317 41.9308 22.2234 42.1225L25.2933 45.1924L28.3632 42.1225C28.5549 41.9308 28.8654 41.9308 29.0571 42.1225C29.2488 42.3142 29.2488 42.6247 29.0571 42.8164L25.6416 46.2319C25.5417 46.3264 25.4175 46.375 25.2906 46.375Z" fill="url(#paint3_linear_300_16239)"/>
</g>
<defs>
<linearGradient id="paint0_linear_300_16239" x1="36.7365" y1="15.4498" x2="20.6801" y2="31.5064" gradientUnits="userSpaceOnUse">
<stop stop-color="#F9B90C"/>
<stop offset="0.25" stop-color="#F73172"/>
<stop offset="0.5" stop-color="#8259ED"/>
<stop offset="0.75" stop-color="#0091F8"/>
<stop offset="1" stop-color="#26F400"/>
</linearGradient>
<linearGradient id="paint1_linear_300_16239" x1="30.7628" y1="9.47639" x2="26.653" y2="13.5861" gradientUnits="userSpaceOnUse">
<stop stop-color="#F9B90C"/>
<stop offset="0.25" stop-color="#F73172"/>
<stop offset="0.5" stop-color="#8259ED"/>
<stop offset="0.75" stop-color="#0091F8"/>
<stop offset="1" stop-color="#26F400"/>
</linearGradient>
<linearGradient id="paint2_linear_300_16239" x1="33.3199" y1="22.4937" x2="17.2635" y2="38.55" gradientUnits="userSpaceOnUse">
<stop stop-color="#F9B90C"/>
<stop offset="0.25" stop-color="#F73172"/>
<stop offset="0.5" stop-color="#8259ED"/>
<stop offset="0.75" stop-color="#0091F8"/>
<stop offset="1" stop-color="#26F400"/>
</linearGradient>
<linearGradient id="paint3_linear_300_16239" x1="27.3465" y1="40.4137" x2="23.2368" y2="44.5234" gradientUnits="userSpaceOnUse">
<stop stop-color="#F9B90C"/>
<stop offset="0.25" stop-color="#F73172"/>
<stop offset="0.5" stop-color="#8259ED"/>
<stop offset="0.75" stop-color="#0091F8"/>
<stop offset="1" stop-color="#26F400"/>
</linearGradient>
<clipPath id="clip0_300_16239">
<rect width="54" height="54" fill="white"/>
</clipPath>
</defs>
</svg>
