<svg width="54" height="54" viewBox="0 0 54 54" fill="none" xmlns="http://www.w3.org/2000/svg">
<g clip-path="url(#clip0_300_16281)">
<path d="M46 0H8C3.58172 0 0 3.58172 0 8V46C0 50.4183 3.58172 54 8 54H46C50.4183 54 54 50.4183 54 46V8C54 3.58172 50.4183 0 46 0Z" fill="#F9F9F9"/>
<path d="M32.6836 36.3203L34.5547 33.461L32.8591 30.842H34.1524L35.2513 32.6024L36.3286 30.842H37.6111L35.9074 33.5015L37.7785 36.3203H36.4447L35.2297 34.4249L34.012 36.3203H32.6836Z" fill="black"/>
<path d="M37.7891 36.3203L39.6602 33.461L37.9646 30.842H39.2579L40.3568 32.6024L41.4341 30.842H42.7166L41.0129 33.5015L42.884 36.3203H41.5502L40.3352 34.4249L39.1175 36.3203H37.7891Z" fill="black"/>
<path d="M36.8956 38.3157L36.2854 38.4264C36.2638 38.3049 36.2179 38.2131 36.145 38.151C36.0721 38.0889 35.9776 38.0592 35.8615 38.0592C35.7076 38.0592 35.5861 38.1132 35.4943 38.2185C35.4025 38.3238 35.3566 38.502 35.3566 38.7504C35.3566 39.0285 35.4025 39.2229 35.497 39.3363C35.5915 39.4497 35.7157 39.5091 35.8723 39.5091C35.9884 39.5091 36.0856 39.4767 36.1612 39.4092C36.2368 39.3417 36.2881 39.2283 36.3205 39.0663L36.928 39.1689C36.8659 39.447 36.7444 39.6576 36.5662 39.8007C36.388 39.9438 36.1477 40.014 35.848 40.014C35.5051 40.014 35.2351 39.906 35.0326 39.69C34.8301 39.474 34.7275 39.177 34.7275 38.7963C34.7275 38.4102 34.8301 38.1105 35.0326 37.8972C35.2351 37.6839 35.5105 37.5759 35.8588 37.5759C36.1423 37.5759 36.3691 37.638 36.5365 37.7595C36.7012 37.8783 36.8227 38.0646 36.8956 38.3157Z" fill="black"/>
<path d="M37.3167 37.6246H37.8864V37.9432C38.0889 37.6948 38.3319 37.5706 38.6127 37.5706C38.7612 37.5706 38.8908 37.6003 39.0015 37.6624C39.1122 37.7245 39.2013 37.8163 39.2715 37.9405C39.3741 37.8163 39.4848 37.7218 39.6036 37.6624C39.7224 37.6003 39.8493 37.5706 39.9843 37.5706C40.1571 37.5706 40.3002 37.6057 40.419 37.6759C40.5378 37.7461 40.6269 37.8487 40.6863 37.9837C40.7295 38.0836 40.7511 38.2456 40.7511 38.467V39.9601H40.1328V38.6263C40.1328 38.3941 40.1112 38.2456 40.068 38.1781C40.0113 38.089 39.9222 38.0458 39.8034 38.0458C39.717 38.0458 39.636 38.0728 39.5604 38.1241C39.4848 38.1781 39.4281 38.2537 39.3957 38.3563C39.3633 38.4589 39.3444 38.6182 39.3444 38.8396V39.9601H38.7261V38.6803C38.7261 38.4535 38.7153 38.3077 38.6937 38.2402C38.6721 38.1754 38.637 38.1241 38.5911 38.0917C38.5452 38.0593 38.4831 38.0431 38.4021 38.0431C38.3076 38.0431 38.2212 38.0701 38.1456 38.1214C38.07 38.1727 38.016 38.2456 37.9809 38.3428C37.9458 38.44 37.9323 38.5993 37.9323 38.8234V39.9574H37.314V37.6246H37.3167Z" fill="black"/>
<path d="M10.603 19.44L12.4741 16.5807L10.7785 13.9617H12.0718L13.1707 15.7221L14.248 13.9617H15.5305L13.8268 16.6212L15.6979 19.44H14.3641L13.1491 17.5446L11.9314 19.44H10.603Z" fill="black"/>
<path d="M15.7085 19.44L17.5796 16.5807L15.884 13.9617H17.1773L18.2762 15.7221L19.3535 13.9617H20.636L18.9323 16.6212L20.8034 19.44H19.4696L18.2546 17.5446L17.0369 19.44H15.7085Z" fill="black"/>
<path d="M14.8151 21.4354L14.2049 21.5461C14.1833 21.4246 14.1374 21.3328 14.0645 21.2707C13.9916 21.2086 13.8971 21.1789 13.781 21.1789C13.6271 21.1789 13.5056 21.2329 13.4138 21.3382C13.322 21.4435 13.2761 21.6217 13.2761 21.8701C13.2761 22.1482 13.322 22.3426 13.4165 22.456C13.511 22.5694 13.6352 22.6288 13.7918 22.6288C13.9079 22.6288 14.0051 22.5964 14.0807 22.5289C14.1563 22.4614 14.2076 22.348 14.24 22.186L14.8475 22.2886C14.7854 22.5667 14.6639 22.7773 14.4857 22.9204C14.3075 23.0635 14.0672 23.1337 13.7675 23.1337C13.4246 23.1337 13.1546 23.0257 12.9521 22.8097C12.7496 22.5937 12.647 22.2967 12.647 21.916C12.647 21.5299 12.7496 21.2302 12.9521 21.0169C13.1546 20.8036 13.43 20.6956 13.7783 20.6956C14.0618 20.6956 14.2886 20.7577 14.456 20.8792C14.6207 20.998 14.7422 21.1843 14.8151 21.4354Z" fill="black"/>
<path d="M15.2361 20.7442H15.8058V21.0628C16.0083 20.8144 16.2513 20.6902 16.5321 20.6902C16.6806 20.6902 16.8102 20.7199 16.9209 20.782C17.0316 20.8441 17.1207 20.9359 17.1909 21.0601C17.2935 20.9359 17.4042 20.8414 17.523 20.782C17.6418 20.7199 17.7687 20.6902 17.9037 20.6902C18.0765 20.6902 18.2196 20.7253 18.3384 20.7955C18.4572 20.8657 18.5463 20.9683 18.6057 21.1033C18.6489 21.2032 18.6705 21.3652 18.6705 21.5866V23.0797H18.0522V21.7459C18.0522 21.5137 18.0306 21.3652 17.9874 21.2977C17.9307 21.2086 17.8416 21.1654 17.7228 21.1654C17.6364 21.1654 17.5554 21.1924 17.4798 21.2437C17.4042 21.2977 17.3475 21.3733 17.3151 21.4759C17.2827 21.5785 17.2638 21.7378 17.2638 21.9592V23.0797H16.6455V21.7999C16.6455 21.5731 16.6347 21.4273 16.6131 21.3598C16.5915 21.295 16.5564 21.2437 16.5105 21.2113C16.4646 21.1789 16.4025 21.1627 16.3215 21.1627C16.227 21.1627 16.1406 21.1897 16.065 21.241C15.9894 21.2923 15.9354 21.3652 15.9003 21.4624C15.8652 21.5596 15.8517 21.7189 15.8517 21.943V23.077H15.2334V20.7442H15.2361Z" fill="black"/>
<path d="M19.8341 37.0709C19.7099 37.0709 19.583 37.0224 19.4885 36.9279C19.2968 36.7362 19.2968 36.4256 19.4885 36.2339L41.2154 14.5071C41.4071 14.3154 41.7176 14.3154 41.9093 14.5071C42.101 14.6988 42.101 15.0093 41.9093 15.201L20.1824 36.9279C20.0852 37.0224 19.961 37.0709 19.8341 37.0709Z" fill="url(#paint0_linear_300_16281)"/>
<path d="M41.5612 20.1771C41.2912 20.1771 41.0698 19.9584 41.0698 19.6857V15.3441H36.7282C36.4582 15.3441 36.2368 15.1254 36.2368 14.8527C36.2368 14.58 36.4555 14.3613 36.7282 14.3613H41.5585C41.8285 14.3613 42.0499 14.58 42.0499 14.8527V19.683C42.0526 19.9557 41.8312 20.1771 41.5612 20.1771Z" fill="url(#paint1_linear_300_16281)"/>
<path d="M12.4386 39.6359C12.3144 39.6359 12.1875 39.5873 12.093 39.4928C11.9013 39.3011 11.9013 38.9906 12.093 38.7989L33.8199 17.072C34.0116 16.8803 34.3221 16.8803 34.5138 17.072C34.7055 17.2637 34.7055 17.5742 34.5138 17.7659L12.7869 39.4928C12.6897 39.5873 12.5628 39.6359 12.4386 39.6359Z" fill="url(#paint2_linear_300_16281)"/>
<path d="M17.269 39.6358H12.4387C12.1687 39.6358 11.9473 39.4171 11.9473 39.1444V34.3142C11.9473 34.0442 12.166 33.8228 12.4387 33.8228C12.7114 33.8228 12.9301 34.0415 12.9301 34.3142V38.6557H17.2717C17.5417 38.6557 17.7631 38.8745 17.7631 39.1472C17.7631 39.4198 17.5417 39.6358 17.269 39.6358Z" fill="url(#paint3_linear_300_16281)"/>
</g>
<defs>
<linearGradient id="paint0_linear_300_16281" x1="42.0522" y1="25.705" x2="19.3453" y2="25.705" gradientUnits="userSpaceOnUse">
<stop stop-color="#F9B90C"/>
<stop offset="0.25" stop-color="#F73172"/>
<stop offset="0.5" stop-color="#8259ED"/>
<stop offset="0.75" stop-color="#0091F8"/>
<stop offset="1" stop-color="#26F400"/>
</linearGradient>
<linearGradient id="paint1_linear_300_16281" x1="42.0572" y1="17.2624" x2="36.2453" y2="17.2624" gradientUnits="userSpaceOnUse">
<stop stop-color="#F9B90C"/>
<stop offset="0.25" stop-color="#F73172"/>
<stop offset="0.5" stop-color="#8259ED"/>
<stop offset="0.75" stop-color="#0091F8"/>
<stop offset="1" stop-color="#26F400"/>
</linearGradient>
<linearGradient id="paint2_linear_300_16281" x1="34.649" y1="28.2767" x2="11.942" y2="28.2767" gradientUnits="userSpaceOnUse">
<stop stop-color="#F9B90C"/>
<stop offset="0.25" stop-color="#F73172"/>
<stop offset="0.5" stop-color="#8259ED"/>
<stop offset="0.75" stop-color="#0091F8"/>
<stop offset="1" stop-color="#26F400"/>
</linearGradient>
<linearGradient id="paint3_linear_300_16281" x1="17.7589" y1="36.729" x2="11.9469" y2="36.729" gradientUnits="userSpaceOnUse">
<stop stop-color="#F9B90C"/>
<stop offset="0.25" stop-color="#F73172"/>
<stop offset="0.5" stop-color="#8259ED"/>
<stop offset="0.75" stop-color="#0091F8"/>
<stop offset="1" stop-color="#26F400"/>
</linearGradient>
<clipPath id="clip0_300_16281">
<rect width="54" height="54" fill="white"/>
</clipPath>
</defs>
</svg>
