<svg width="54" height="54" viewBox="0 0 54 54" fill="none" xmlns="http://www.w3.org/2000/svg">
<g opacity="0.3" clip-path="url(#clip0_300_16258)">
<path d="M8 0.5H46C50.1421 0.5 53.5 3.85786 53.5 8V46C53.5 50.1421 50.1421 53.5 46 53.5H8C3.85786 53.5 0.5 50.1421 0.5 46V8C0.5 3.85786 3.85786 0.5 8 0.5Z" stroke="#BFBFBF" stroke-opacity="0.4"/>
<path d="M40.3241 39.6657C39.3899 37.8081 37.5188 36.6552 35.4398 36.6552H20.0255C19.8149 35.2755 18.7241 34.1874 17.3471 33.9741V18.5598C17.3471 16.4808 16.1942 14.6097 14.3366 13.6755C14.1854 13.5999 14.0045 13.608 13.8587 13.6971C13.7129 13.7862 13.6265 13.9455 13.6265 14.1156V37.1466C13.6265 37.2033 13.6373 37.2573 13.6562 37.3059C13.7372 38.9448 15.0521 40.2624 16.6883 40.3488C16.7423 40.3677 16.799 40.3812 16.8584 40.3812H39.8894C40.0595 40.3812 40.2188 40.2921 40.3079 40.149C40.3916 39.9978 40.3997 39.8196 40.3241 39.6657ZM16.3643 18.5598V33.9741C15.6839 34.0794 15.0737 34.3953 14.6039 34.857V14.9958C15.7055 15.8328 16.3643 17.1369 16.3643 18.5598ZM14.6255 37.1439C14.6255 35.9154 15.6272 34.9137 16.8557 34.9137C18.0842 34.9137 19.0859 35.9154 19.0859 37.1439C19.0859 38.3724 18.0842 39.3741 16.8557 39.3741C15.6272 39.3741 14.6255 38.3724 14.6255 37.1439ZM19.1399 39.3957C19.6016 38.9259 19.9202 38.3157 20.0255 37.6353H35.4398C36.8627 37.6353 38.1668 38.2941 39.0038 39.3957H19.1399Z" fill="black"/>
<path d="M29.1761 35.443C28.9439 35.443 28.736 35.2756 28.6928 35.038C27.8045 30.0052 23.8166 26.0821 18.7703 25.2748C18.503 25.2316 18.3221 24.9805 18.3626 24.7132C18.4058 24.4459 18.6569 24.265 18.9242 24.3055C24.3809 25.1803 28.6955 29.422 29.6567 34.8652C29.7026 35.1325 29.5271 35.3863 29.2598 35.4322C29.2328 35.4403 29.2031 35.443 29.1761 35.443Z" fill="url(#paint0_linear_300_16258)"/>
<path d="M23.9492 35.4428C23.7386 35.4428 23.5469 35.3078 23.4821 35.0972C22.7936 32.8643 20.9684 31.0904 18.7193 30.464C18.4574 30.3911 18.3062 30.1211 18.3791 29.8592C18.452 29.5973 18.722 29.4461 18.9839 29.519C21.5516 30.2345 23.636 32.2595 24.4217 34.8056C24.5027 35.0648 24.3569 35.3402 24.0977 35.4185C24.0464 35.4347 23.9978 35.4428 23.9492 35.4428Z" fill="url(#paint1_linear_300_16258)"/>
<path d="M36.0829 34.0416L34.6276 35.4969C34.6222 35.5023 34.6168 35.505 34.6141 35.5077C34.6006 35.5185 34.5871 35.5293 34.5736 35.5401C34.5628 35.5482 34.5493 35.5563 34.5385 35.5644C34.525 35.5725 34.5088 35.5806 34.4926 35.5887C34.4791 35.5941 34.4656 35.6022 34.4521 35.6076C34.4359 35.613 34.4197 35.6184 34.4035 35.6211C34.3873 35.6265 34.3711 35.6292 34.3549 35.6319C34.3468 35.6319 34.3414 35.6346 34.3333 35.6373C34.3144 35.64 34.2982 35.64 34.2793 35.64C34.2469 35.64 34.2172 35.6373 34.1848 35.6319C34.1767 35.6292 34.1713 35.6265 34.1632 35.6265C34.1416 35.6211 34.1173 35.6157 34.0957 35.6049C34.0849 35.6022 34.0768 35.5941 34.066 35.5914C34.0471 35.5833 34.0309 35.5752 34.0147 35.5644C34.0039 35.559 33.9958 35.5509 33.985 35.5428C33.9715 35.532 33.9553 35.5212 33.9418 35.5077C33.9391 35.505 33.9337 35.5023 33.931 35.4996L32.4757 34.0443C32.284 33.8526 32.284 33.5421 32.4757 33.3504C32.6674 33.1587 32.9779 33.1587 33.1696 33.3504L33.5557 33.7365C32.1976 27.0999 26.8948 21.7998 20.2582 20.439L20.6443 20.8251C20.836 21.0168 20.836 21.3273 20.6443 21.519C20.5498 21.6135 20.4229 21.6621 20.2987 21.6621C20.1745 21.6621 20.0476 21.6135 19.9531 21.519L18.4978 20.0637C18.4924 20.0583 18.487 20.0502 18.4789 20.0421C18.4681 20.0313 18.4573 20.0178 18.4492 20.0043C18.4411 19.9908 18.4303 19.9773 18.4222 19.9638C18.4141 19.9503 18.406 19.9368 18.4006 19.9233C18.3952 19.9098 18.3871 19.8936 18.3817 19.8801C18.3763 19.8639 18.3709 19.8504 18.3682 19.8342C18.3655 19.818 18.3628 19.8018 18.3601 19.7883C18.3628 19.7721 18.3601 19.7586 18.3601 19.7424C18.3601 19.7343 18.3574 19.7262 18.3574 19.7208C18.3574 19.71 18.3601 19.7019 18.3601 19.6911C18.3601 19.683 18.3601 19.6749 18.3601 19.6641C18.3601 19.6587 18.3628 19.6506 18.3655 19.6452C18.3682 19.629 18.3709 19.6101 18.3763 19.5939C18.379 19.5804 18.3844 19.5642 18.3898 19.5507C18.3952 19.5345 18.4033 19.5183 18.4114 19.5048C18.4168 19.4913 18.4249 19.4778 18.433 19.467C18.4411 19.4508 18.4519 19.4373 18.4627 19.4238C18.4708 19.413 18.4789 19.4022 18.487 19.3941C18.4924 19.3887 18.4951 19.3806 18.5005 19.3752L19.9558 17.9199C20.1475 17.7282 20.458 17.7282 20.6497 17.9199C20.8414 18.1116 20.8414 18.4221 20.6497 18.6138L19.8856 19.3779C23.5414 20.0016 26.9623 21.7593 29.6029 24.3999C32.2435 27.0405 34.0012 30.4587 34.6249 34.1172L35.389 33.3531C35.5807 33.1614 35.8912 33.1614 36.0829 33.3531C36.2719 33.5394 36.2719 33.8499 36.0829 34.0416Z" fill="url(#paint2_linear_300_16258)"/>
</g>
<defs>
<linearGradient id="paint0_linear_300_16258" x1="19.3404" y1="23.6045" x2="30.2781" y2="34.5421" gradientUnits="userSpaceOnUse">
<stop stop-color="#F9B90C"/>
<stop offset="0.25" stop-color="#F73172"/>
<stop offset="0.5" stop-color="#8259ED"/>
<stop offset="0.75" stop-color="#0091F8"/>
<stop offset="1" stop-color="#26F400"/>
</linearGradient>
<linearGradient id="paint1_linear_300_16258" x1="18.8377" y1="29.3085" x2="24.5617" y2="35.0326" gradientUnits="userSpaceOnUse">
<stop stop-color="#F9B90C"/>
<stop offset="0.25" stop-color="#F73172"/>
<stop offset="0.5" stop-color="#8259ED"/>
<stop offset="0.75" stop-color="#0091F8"/>
<stop offset="1" stop-color="#26F400"/>
</linearGradient>
<linearGradient id="paint2_linear_300_16258" x1="19.8476" y1="18.0261" x2="35.9728" y2="34.1513" gradientUnits="userSpaceOnUse">
<stop stop-color="#F9B90C"/>
<stop offset="0.25" stop-color="#F73172"/>
<stop offset="0.5" stop-color="#8259ED"/>
<stop offset="0.75" stop-color="#0091F8"/>
<stop offset="1" stop-color="#26F400"/>
</linearGradient>
<clipPath id="clip0_300_16258">
<rect width="54" height="54" fill="white"/>
</clipPath>
</defs>
</svg>
