<svg width="54" height="54" viewBox="0 0 54 54" fill="none" xmlns="http://www.w3.org/2000/svg">
<g clip-path="url(#clip0_300_16308)">
<path d="M8 0.5H46C50.1421 0.5 53.5 3.85786 53.5 8V46C53.5 50.1421 50.1421 53.5 46 53.5H8C3.85786 53.5 0.5 50.1421 0.5 46V8C0.5 3.85786 3.85786 0.5 8 0.5Z" stroke="#BFBFBF" stroke-opacity="0.4"/>
<path d="M29.3569 44.7633H27.1186C26.8486 44.7633 26.6272 44.5446 26.6272 44.2719V35.8182H17.6605V44.2719C17.6605 44.5419 17.4418 44.7633 17.1691 44.7633H14.9416C14.6716 44.7633 14.4502 44.5446 14.4502 44.2719V19.0485C14.4502 18.7785 14.6689 18.5571 14.9416 18.5571H17.1691C17.4391 18.5571 17.6605 18.7758 17.6605 19.0485V32.6538H29.3569C29.6269 32.6538 29.8483 32.8725 29.8483 33.1452V44.2719C29.8483 44.5446 29.6296 44.7633 29.3569 44.7633ZM27.61 43.7832H28.8682V33.6366H17.1691C16.8991 33.6366 16.6777 33.4179 16.6777 33.1452V19.5399H15.4303V43.7832H16.6777V35.3295C16.6777 35.0595 16.8964 34.8381 17.1691 34.8381H27.1186C27.3886 34.8381 27.61 35.0568 27.61 35.3295V43.7832Z" fill="black"/>
<path d="M33.7202 40.7782C33.4502 40.7782 33.2288 40.5595 33.2288 40.2868V29.6488H21.5324C21.2624 29.6488 21.041 29.4301 21.041 29.1574V15.0634C21.041 14.7934 21.2597 14.572 21.5324 14.572C21.8051 14.572 22.0238 14.7907 22.0238 15.0634V28.6687H33.7202C33.9902 28.6687 34.2116 28.8874 34.2116 29.1601V40.2868C34.2116 40.5568 33.9902 40.7782 33.7202 40.7782Z" fill="url(#paint0_linear_300_16308)"/>
<path d="M36.3877 38.1105C36.1177 38.1105 35.8963 37.8918 35.8963 37.6191V26.9811H24.1999C23.9299 26.9811 23.7085 26.7624 23.7085 26.4897V12.3957C23.7085 12.1257 23.9272 11.9043 24.1999 11.9043C24.4726 11.9043 24.6913 12.123 24.6913 12.3957V26.001H36.3877C36.6577 26.001 36.8791 26.2197 36.8791 26.4924V37.6191C36.8791 37.8891 36.6604 38.1105 36.3877 38.1105Z" fill="url(#paint1_linear_300_16308)"/>
<path d="M39.0557 35.443C38.7857 35.443 38.5643 35.2243 38.5643 34.9516V24.3136H26.8679C26.5979 24.3136 26.3765 24.0949 26.3765 23.8222V9.72822C26.3765 9.45822 26.5952 9.23682 26.8679 9.23682C27.1406 9.23682 27.3593 9.45552 27.3593 9.72822V23.3335H39.0557C39.3257 23.3335 39.5471 23.5522 39.5471 23.8249V34.9516C39.5471 35.2216 39.3284 35.443 39.0557 35.443Z" fill="url(#paint2_linear_300_16308)"/>
</g>
<defs>
<linearGradient id="paint0_linear_300_16308" x1="17.6617" y1="18.2406" x2="37.0611" y2="37.64" gradientUnits="userSpaceOnUse">
<stop stop-color="#F9B90C"/>
<stop offset="0.25" stop-color="#F73172"/>
<stop offset="0.5" stop-color="#8259ED"/>
<stop offset="0.75" stop-color="#0091F8"/>
<stop offset="1" stop-color="#26F400"/>
</linearGradient>
<linearGradient id="paint1_linear_300_16308" x1="20.3296" y1="15.5725" x2="39.729" y2="34.9719" gradientUnits="userSpaceOnUse">
<stop stop-color="#F9B90C"/>
<stop offset="0.25" stop-color="#F73172"/>
<stop offset="0.5" stop-color="#8259ED"/>
<stop offset="0.75" stop-color="#0091F8"/>
<stop offset="1" stop-color="#26F400"/>
</linearGradient>
<linearGradient id="paint2_linear_300_16308" x1="22.9979" y1="12.9047" x2="42.3973" y2="32.3041" gradientUnits="userSpaceOnUse">
<stop stop-color="#F9B90C"/>
<stop offset="0.25" stop-color="#F73172"/>
<stop offset="0.5" stop-color="#8259ED"/>
<stop offset="0.75" stop-color="#0091F8"/>
<stop offset="1" stop-color="#26F400"/>
</linearGradient>
<clipPath id="clip0_300_16308">
<rect width="54" height="54" fill="white"/>
</clipPath>
</defs>
</svg>
