<svg width="54" height="54" viewBox="0 0 54 54" fill="none" xmlns="http://www.w3.org/2000/svg">
<path d="M8 0.5H46C50.1421 0.5 53.5 3.85786 53.5 8V46C53.5 50.1421 50.1421 53.5 46 53.5H8C3.85786 53.5 0.5 50.1421 0.5 46V8C0.5 3.85786 3.85786 0.5 8 0.5Z" stroke="#BFBFBF" stroke-opacity="0.4"/>
<path d="M14.7828 28.6955C14.7828 28.4255 15.0015 28.2041 15.2742 28.2041H31.2339C31.5039 28.2041 31.7253 28.4228 31.7253 28.6955C31.7253 28.9682 31.5066 29.1869 31.2339 29.1869H15.2715C15.0015 29.1842 14.7828 28.9655 14.7828 28.6955ZM15.2715 32.9399H38.7291C38.9991 32.9399 39.2205 32.7212 39.2205 32.4485C39.2205 32.1758 39.0018 31.9571 38.7291 31.9571H15.2715C15.0015 31.9571 14.7801 32.1758 14.7801 32.4485C14.7801 32.7212 15.0015 32.9399 15.2715 32.9399ZM43.2138 35.7128H10.7868C10.5168 35.7128 10.2954 35.9315 10.2954 36.2042C10.2954 36.4769 10.5141 36.6956 10.7868 36.6956H21.0657C18.2739 37.6892 16.1544 39.3686 15.3363 41.4341C15.2364 41.6852 15.3606 41.9714 15.6117 42.0713C15.8628 42.1712 16.149 42.047 16.2489 41.7959C17.4153 38.8394 21.9378 36.6929 27.0003 36.6929C32.0628 36.6929 36.5853 38.8367 37.7544 41.7905C37.83 41.9822 38.0163 42.101 38.2107 42.101C38.2701 42.101 38.3322 42.0902 38.3916 42.0659C38.6427 41.966 38.7669 41.6825 38.667 41.4287C37.8489 39.3659 35.7294 37.6838 32.9376 36.6902H43.2165C43.4865 36.6902 43.7079 36.4715 43.7079 36.1988C43.7079 35.9261 43.4865 35.7128 43.2138 35.7128Z" fill="black"/>
<path d="M42.9732 15.0039L44.0937 13.8834C44.2854 13.6917 44.5959 13.6917 44.7876 13.8834C44.9793 14.0751 44.9793 14.3856 44.7876 14.5773L43.6671 15.6978C43.4538 15.4494 43.2216 15.2172 42.9732 15.0039ZM33.8904 15.6978C34.1037 15.4494 34.3359 15.2172 34.5843 15.0039L33.4638 13.8834C33.2721 13.6917 32.9616 13.6917 32.7699 13.8834C32.5782 14.0751 32.5782 14.3856 32.7699 14.5773L33.8904 15.6978ZM32.3379 19.8909C32.3379 19.7262 32.346 19.5615 32.3595 19.3995H30.7746C30.5046 19.3995 30.2832 19.6182 30.2832 19.8909C30.2832 20.1636 30.5019 20.3823 30.7746 20.3823H32.3595C32.346 20.2203 32.3379 20.0583 32.3379 19.8909ZM38.7801 13.4487C38.9448 13.4487 39.1095 13.4568 39.2715 13.4703V11.8854C39.2715 11.6154 39.0528 11.394 38.7801 11.394C38.5074 11.394 38.2887 11.6127 38.2887 11.8854V13.4703C38.4507 13.4568 38.6127 13.4487 38.7801 13.4487ZM43.6671 24.0867C43.4538 24.3351 43.2216 24.5673 42.9732 24.7806L44.0937 25.9011C44.1882 25.9956 44.3151 26.0442 44.4393 26.0442C44.5635 26.0442 44.6904 25.9956 44.7849 25.9011C44.9766 25.7094 44.9766 25.3989 44.7849 25.2072L43.6671 24.0867ZM33.8904 24.0867L32.7699 25.2072C32.5782 25.3989 32.5782 25.7094 32.7699 25.9011C32.8644 25.9956 32.9913 26.0442 33.1155 26.0442C33.2397 26.0442 33.3666 25.9956 33.4611 25.9011L34.5816 24.7806C34.3359 24.5673 34.1037 24.3351 33.8904 24.0867ZM46.7856 19.4022H45.2007C45.2142 19.5642 45.2223 19.7262 45.2223 19.8936C45.2223 20.0583 45.2142 20.223 45.2007 20.385H46.7856C47.0556 20.385 47.277 20.1663 47.277 19.8936C47.277 19.6209 47.0556 19.4022 46.7856 19.4022ZM38.7801 26.3331C38.6154 26.3331 38.4507 26.325 38.2887 26.3115V27.8964C38.2887 28.1664 38.5074 28.3878 38.7801 28.3878C39.0528 28.3878 39.2715 28.1691 39.2715 27.8964V26.3115C39.1068 26.325 38.9448 26.3331 38.7801 26.3331Z" fill="url(#paint0_linear_300_16331)"/>
<path d="M38.7801 25.2315C35.8344 25.2315 33.4395 22.8366 33.4395 19.8909C33.4395 16.9452 35.8344 14.5503 38.7801 14.5503C41.7257 14.5503 44.1206 16.9452 44.1206 19.8909C44.1206 22.8366 41.723 25.2315 38.7801 25.2315ZM38.7801 15.5331C36.3771 15.5331 34.4196 17.4879 34.4196 19.8936C34.4196 22.2993 36.3744 24.2541 38.7801 24.2541C41.1858 24.2541 43.1405 22.2993 43.1405 19.8936C43.1405 17.4879 41.1831 15.5331 38.7801 15.5331Z" fill="url(#paint1_linear_300_16331)"/>
<defs>
<linearGradient id="paint0_linear_300_16331" x1="32.7713" y1="13.8843" x2="44.7869" y2="25.8999" gradientUnits="userSpaceOnUse">
<stop stop-color="#F9B90C"/>
<stop offset="0.25" stop-color="#F73172"/>
<stop offset="0.5" stop-color="#8259ED"/>
<stop offset="0.75" stop-color="#0091F8"/>
<stop offset="1" stop-color="#26F400"/>
</linearGradient>
<linearGradient id="paint1_linear_300_16331" x1="35.0047" y1="16.1176" x2="42.5536" y2="23.6665" gradientUnits="userSpaceOnUse">
<stop stop-color="#F9B90C"/>
<stop offset="0.25" stop-color="#F73172"/>
<stop offset="0.5" stop-color="#8259ED"/>
<stop offset="0.75" stop-color="#0091F8"/>
<stop offset="1" stop-color="#26F400"/>
</linearGradient>
</defs>
</svg>
