<svg width="54" height="54" viewBox="0 0 54 54" fill="none" xmlns="http://www.w3.org/2000/svg">
<g clip-path="url(#clip0_300_16264)">
<path d="M8 0.5H46C50.1421 0.5 53.5 3.85786 53.5 8V46C53.5 50.1421 50.1421 53.5 46 53.5H8C3.85786 53.5 0.5 50.1421 0.5 46V8C0.5 3.85786 3.85786 0.5 8 0.5Z" stroke="#BFBFBF" stroke-opacity="0.4"/>
<path d="M14.7823 29.3598C14.7823 29.0898 15.001 28.8684 15.2737 28.8684H38.7313C39.0013 28.8684 39.2227 29.0871 39.2227 29.3598C39.2227 29.6325 39.004 29.8512 38.7313 29.8512H15.271C15.001 29.8512 14.7823 29.6298 14.7823 29.3598ZM15.271 33.6042H38.7286C38.9986 33.6042 39.22 33.3855 39.22 33.1128C39.22 32.8401 39.0013 32.6214 38.7286 32.6214H15.271C15.001 32.6214 14.7796 32.8401 14.7796 33.1128C14.7796 33.3855 15.001 33.6042 15.271 33.6042ZM43.2133 36.3798H10.7863C10.5163 36.3798 10.2949 36.5985 10.2949 36.8712C10.2949 37.1439 10.5136 37.3626 10.7863 37.3626H21.0652C18.2734 38.3562 16.1539 40.0356 15.3358 42.1011C15.2359 42.3522 15.3601 42.6384 15.6112 42.7383C15.8623 42.8382 16.1485 42.714 16.2484 42.4629C17.4175 39.5091 21.9427 37.3653 27.0025 37.3653C32.0623 37.3653 36.5875 39.5091 37.7566 42.4629C37.8322 42.6546 38.0185 42.7734 38.2129 42.7734C38.2723 42.7734 38.3344 42.7626 38.3938 42.7383C38.6449 42.6384 38.7691 42.3549 38.6692 42.1011C37.8511 40.0383 35.7316 38.3562 32.9398 37.3626H43.2187C43.4887 37.3626 43.7101 37.1439 43.7101 36.8712C43.7101 36.5985 43.486 36.3798 43.2133 36.3798Z" fill="black"/>
<path d="M42.3359 26.7704C42.2117 26.7704 42.0848 26.7218 41.9903 26.6273L36.0341 20.6711C35.9423 20.5793 35.891 20.4551 35.891 20.3255V14.2937H33.0857V16.5428C33.0857 16.7399 32.9669 16.9208 32.7833 16.9964C32.5997 17.072 32.3891 17.0315 32.2487 16.8911L26.9999 11.6396L12.0095 26.6273C11.8178 26.819 11.5073 26.819 11.3156 26.6273C11.124 26.4356 11.124 26.1251 11.3156 25.9334L26.6516 10.5974C26.8433 10.4057 27.1538 10.4057 27.3455 10.5974L32.1029 15.3548V13.7996C32.1029 13.5296 32.3216 13.3082 32.5943 13.3082H36.3797C36.6497 13.3082 36.8711 13.5269 36.8711 13.7996V20.1203L42.6842 25.9334C42.8759 26.1251 42.8759 26.4356 42.6842 26.6273C42.587 26.7245 42.4628 26.7704 42.3359 26.7704Z" fill="url(#paint0_linear_300_16264)"/>
<path d="M30.5455 23.8194H23.4553C23.1853 23.8194 22.9639 23.6007 22.9639 23.328C22.9639 21.1032 24.7756 19.2915 27.0004 19.2915C29.2252 19.2915 31.0369 21.1032 31.0369 23.328C31.0369 23.598 30.8155 23.8194 30.5455 23.8194ZM23.9845 22.8366H30.0163C29.7814 21.384 28.5178 20.2716 27.0004 20.2716C25.483 20.2716 24.2194 21.384 23.9845 22.8366Z" fill="url(#paint1_linear_300_16264)"/>
</g>
<defs>
<linearGradient id="paint0_linear_300_16264" x1="20.6157" y1="16.6356" x2="36.6456" y2="32.6654" gradientUnits="userSpaceOnUse">
<stop stop-color="#F9B90C"/>
<stop offset="0.25" stop-color="#F73172"/>
<stop offset="0.5" stop-color="#8259ED"/>
<stop offset="0.75" stop-color="#0091F8"/>
<stop offset="1" stop-color="#26F400"/>
</linearGradient>
<linearGradient id="paint1_linear_300_16264" x1="24.5145" y1="20.109" x2="29.4863" y2="25.0808" gradientUnits="userSpaceOnUse">
<stop stop-color="#F9B90C"/>
<stop offset="0.25" stop-color="#F73172"/>
<stop offset="0.5" stop-color="#8259ED"/>
<stop offset="0.75" stop-color="#0091F8"/>
<stop offset="1" stop-color="#26F400"/>
</linearGradient>
<clipPath id="clip0_300_16264">
<rect width="54" height="54" fill="white"/>
</clipPath>
</defs>
</svg>
