<svg width="54" height="54" viewBox="0 0 54 54" fill="none" xmlns="http://www.w3.org/2000/svg">
<g clip-path="url(#clip0_300_16299)">
<path d="M8 0.5H46C50.1421 0.5 53.5 3.85786 53.5 8V46C53.5 50.1421 50.1421 53.5 46 53.5H8C3.85786 53.5 0.5 50.1421 0.5 46V8C0.5 3.85786 3.85786 0.5 8 0.5Z" stroke="#BFBFBF" stroke-opacity="0.4"/>
<path d="M26.0901 39.0042C19.4697 39.0042 14.0859 33.6177 14.0859 27C14.0859 20.3823 19.4724 14.9958 26.0901 14.9958C32.7078 14.9958 38.0943 20.3823 38.0943 27C38.0943 27.27 37.8756 27.4914 37.6029 27.4914C37.3302 27.4914 37.1115 27.2727 37.1115 27C37.1115 20.9223 32.1651 15.9759 26.0874 15.9759C20.0097 15.9759 15.066 20.9223 15.066 27C15.066 33.0777 20.0124 38.0241 26.0901 38.0241C29.0358 38.0241 31.8033 36.8766 33.885 34.7949C34.0767 34.6032 34.3872 34.6032 34.5789 34.7949C34.7706 34.9866 34.7706 35.2971 34.5789 35.4888C32.3109 37.7568 29.2977 39.0042 26.0901 39.0042Z" fill="black"/>
<path d="M26.0898 35.84C21.2163 35.84 17.25 31.8737 17.25 27.0002C17.25 26.7302 17.4687 26.5088 17.7414 26.5088C18.0141 26.5088 18.2301 26.7302 18.2301 27.0002C18.2301 31.3337 21.7563 34.8599 26.0898 34.8599C28.1877 34.8599 30.1614 34.0418 31.6464 32.5568C31.8381 32.3651 32.1486 32.3651 32.3403 32.5568C32.532 32.7485 32.532 33.059 32.3403 33.2507C30.6717 34.9193 28.4496 35.84 26.0898 35.84Z" fill="url(#paint0_linear_300_16299)"/>
<path d="M26.0899 32.7969C22.8931 32.7969 20.293 30.1968 20.293 27C20.293 23.8032 22.8931 21.2031 26.0899 21.2031C26.3599 21.2031 26.5813 21.4218 26.5813 21.6945C26.5813 21.9672 26.3626 22.1859 26.0899 22.1859C23.4331 22.1859 21.2731 24.3459 21.2731 27.0027C21.2731 29.6595 23.4331 31.8195 26.0899 31.8195C27.3778 31.8195 28.5874 31.3173 29.4973 30.4074C29.689 30.2157 29.9995 30.2157 30.1912 30.4074C30.3829 30.5991 30.3829 30.9096 30.1912 31.1013C29.095 32.1948 27.6397 32.7969 26.0899 32.7969Z" fill="url(#paint1_linear_300_16299)"/>
<path d="M26.0899 29.3301C24.8047 29.3301 23.7598 28.2852 23.7598 27C23.7598 25.7148 24.8047 24.6699 26.0899 24.6699C27.3751 24.6699 28.42 25.7148 28.42 27C28.42 28.2852 27.3751 29.3301 26.0899 29.3301ZM26.0899 25.65C25.3447 25.65 24.7399 26.2548 24.7399 27C24.7399 27.7452 25.3447 28.35 26.0899 28.35C26.8351 28.35 27.4399 27.7452 27.4399 27C27.4399 26.2548 26.8351 25.65 26.0899 25.65Z" fill="url(#paint2_linear_300_16299)"/>
<path d="M34.2335 35.6319C34.1093 35.6319 33.9824 35.5833 33.8879 35.4888L27.0461 28.647C26.8544 28.4553 26.8544 28.1448 27.0461 27.9531C27.2378 27.7614 27.5483 27.7614 27.74 27.9531L34.5818 34.7949C34.7735 34.9866 34.7735 35.2971 34.5818 35.4888C34.4846 35.5833 34.3577 35.6319 34.2335 35.6319Z" fill="url(#paint3_linear_300_16299)"/>
<path d="M37.6245 28.4093C37.5003 28.4093 37.3734 28.3607 37.2789 28.2662L35.4402 26.4275C35.2485 26.2358 35.2485 25.9253 35.4402 25.7336C35.6319 25.5419 35.9424 25.5419 36.1341 25.7336L37.6272 27.2267L39.0798 25.7741C39.2715 25.5824 39.582 25.5824 39.7737 25.7741C39.9654 25.9658 39.9654 26.2763 39.7737 26.468L37.9728 28.2689C37.8756 28.3634 37.7487 28.4093 37.6245 28.4093Z" fill="black"/>
</g>
<defs>
<linearGradient id="paint0_linear_300_16299" x1="17.2499" y1="31.175" x2="32.484" y2="31.175" gradientUnits="userSpaceOnUse">
<stop stop-color="#F9B90C"/>
<stop offset="0.25" stop-color="#F73172"/>
<stop offset="0.5" stop-color="#8259ED"/>
<stop offset="0.75" stop-color="#0091F8"/>
<stop offset="1" stop-color="#26F400"/>
</linearGradient>
<linearGradient id="paint1_linear_300_16299" x1="20.2916" y1="27.0001" x2="30.3333" y2="27.0001" gradientUnits="userSpaceOnUse">
<stop stop-color="#F9B90C"/>
<stop offset="0.25" stop-color="#F73172"/>
<stop offset="0.5" stop-color="#8259ED"/>
<stop offset="0.75" stop-color="#0091F8"/>
<stop offset="1" stop-color="#26F400"/>
</linearGradient>
<linearGradient id="paint2_linear_300_16299" x1="23.7589" y1="27" x2="28.4206" y2="27" gradientUnits="userSpaceOnUse">
<stop stop-color="#F9B90C"/>
<stop offset="0.25" stop-color="#F73172"/>
<stop offset="0.5" stop-color="#8259ED"/>
<stop offset="0.75" stop-color="#0091F8"/>
<stop offset="1" stop-color="#26F400"/>
</linearGradient>
<linearGradient id="paint3_linear_300_16299" x1="26.9014" y1="31.7218" x2="34.7226" y2="31.7218" gradientUnits="userSpaceOnUse">
<stop stop-color="#F9B90C"/>
<stop offset="0.25" stop-color="#F73172"/>
<stop offset="0.5" stop-color="#8259ED"/>
<stop offset="0.75" stop-color="#0091F8"/>
<stop offset="1" stop-color="#26F400"/>
</linearGradient>
<clipPath id="clip0_300_16299">
<rect width="54" height="54" fill="white"/>
</clipPath>
</defs>
</svg>
