<svg width="54" height="54" viewBox="0 0 54 54" fill="none" xmlns="http://www.w3.org/2000/svg">
<g clip-path="url(#clip0_300_16271)">
<path d="M8 0.5H46C50.1421 0.5 53.5 3.85786 53.5 8V46C53.5 50.1421 50.1421 53.5 46 53.5H8C3.85786 53.5 0.5 50.1421 0.5 46V8C0.5 3.85786 3.85786 0.5 8 0.5Z" stroke="#BFBFBF" stroke-opacity="0.4"/>
<path d="M27.0003 38.8045C26.139 38.8045 25.437 38.1025 25.437 37.2412V35.5618C24.951 35.1217 24.6675 34.4926 24.6675 33.8311C24.6675 32.5432 25.7151 31.4983 27.0003 31.4983C28.2855 31.4983 29.3331 32.5459 29.3331 33.8311C29.3331 34.4926 29.0496 35.1217 28.5636 35.5618V37.2412C28.5636 38.1025 27.8616 38.8045 27.0003 38.8045ZM27.0003 32.4757C26.2551 32.4757 25.6476 33.0832 25.6476 33.8284C25.6476 34.2631 25.8582 34.6735 26.2119 34.9273L26.4171 35.0731V37.2385C26.4171 37.5598 26.679 37.8217 27.0003 37.8217C27.3216 37.8217 27.5835 37.5598 27.5835 37.2385V35.0731L27.7887 34.9273C28.1424 34.6735 28.353 34.2631 28.353 33.8284C28.353 33.0832 27.7455 32.4757 27.0003 32.4757Z" fill="url(#paint0_linear_300_16271)"/>
<path d="M36.3745 25.3072H32.8213C32.5513 25.3072 32.3299 25.0885 32.3299 24.8158V20.242C32.3299 17.3017 29.9377 14.9095 26.9974 14.9095C24.0571 14.9095 21.6649 17.3017 21.6649 20.242V24.8185C21.6649 25.0885 21.4462 25.3099 21.1735 25.3099C20.9008 25.3099 20.6821 25.0912 20.6821 24.8185V20.242C20.6821 16.7617 23.5144 13.9294 26.9947 13.9294C30.475 13.9294 33.3073 16.7617 33.3073 20.242V24.3271H35.8777V20.242C35.8777 15.3442 31.8925 11.359 26.9947 11.359C22.0969 11.359 18.1117 15.3442 18.1117 20.242V24.8185C18.1117 25.0885 17.893 25.3099 17.6203 25.3099C17.3476 25.3099 17.1289 25.0912 17.1289 24.8185V20.242C17.1289 14.8015 21.5542 10.3789 26.9947 10.3789C32.4352 10.3789 36.8578 14.8042 36.8578 20.242V24.8185C36.8632 25.0885 36.6445 25.3072 36.3745 25.3072Z" fill="url(#paint1_linear_300_16271)"/>
<path d="M39.2308 26.676H14.7688C13.1569 26.676 11.8447 27.9882 11.8447 29.6001V40.6971C11.8447 42.309 13.1569 43.6212 14.7688 43.6212H39.2281C40.84 43.6212 42.1522 42.309 42.1522 40.6971V29.6001C42.1549 27.9882 40.8427 26.676 39.2308 26.676ZM39.2308 42.6438H14.7688C13.6969 42.6438 12.8248 41.7717 12.8248 40.6998V38.3022H21.2812C21.5512 38.3022 21.7726 38.0835 21.7726 37.8108C21.7726 37.5381 21.5539 37.3194 21.2812 37.3194H12.8248V32.9778H21.2812C21.5512 32.9778 21.7726 32.7591 21.7726 32.4864C21.7726 32.2137 21.5539 31.995 21.2812 31.995H12.8248V29.5974C12.8248 28.5255 13.6969 27.6534 14.7688 27.6534H39.2281C40.3 27.6534 41.1721 28.5255 41.1721 29.5974V31.995H32.7157C32.4457 31.995 32.2243 32.2137 32.2243 32.4864C32.2243 32.7591 32.443 32.9778 32.7157 32.9778H41.1721V37.3194H32.7157C32.4457 37.3194 32.2243 37.5381 32.2243 37.8108C32.2243 38.0835 32.443 38.3022 32.7157 38.3022H41.1721V40.6998C41.1748 41.7717 40.3027 42.6438 39.2308 42.6438Z" fill="black"/>
</g>
<defs>
<linearGradient id="paint0_linear_300_16271" x1="24.7701" y1="32.7602" x2="29.2305" y2="37.2207" gradientUnits="userSpaceOnUse">
<stop stop-color="#F9B90C"/>
<stop offset="0.25" stop-color="#F73172"/>
<stop offset="0.5" stop-color="#8259ED"/>
<stop offset="0.75" stop-color="#0091F8"/>
<stop offset="1" stop-color="#26F400"/>
</linearGradient>
<linearGradient id="paint1_linear_300_16271" x1="19.8533" y1="13.4441" x2="34.1469" y2="27.7376" gradientUnits="userSpaceOnUse">
<stop stop-color="#F9B90C"/>
<stop offset="0.25" stop-color="#F73172"/>
<stop offset="0.5" stop-color="#8259ED"/>
<stop offset="0.75" stop-color="#0091F8"/>
<stop offset="1" stop-color="#26F400"/>
</linearGradient>
<clipPath id="clip0_300_16271">
<rect width="54" height="54" fill="white"/>
</clipPath>
</defs>
</svg>
