<svg width="54" height="54" viewBox="0 0 54 54" fill="none" xmlns="http://www.w3.org/2000/svg">
<g opacity="0.3" clip-path="url(#clip0_300_16317)">
<path d="M8 0.5H46C50.1421 0.5 53.5 3.85786 53.5 8V46C53.5 50.1421 50.1421 53.5 46 53.5H8C3.85786 53.5 0.5 50.1421 0.5 46V8C0.5 3.85786 3.85786 0.5 8 0.5Z" stroke="#BFBFBF" stroke-opacity="0.4"/>
<path d="M26.9997 16.5482C26.7297 16.5482 26.5083 16.3295 26.5083 16.0568V11.9177C26.5083 11.6477 26.727 11.4263 26.9997 11.4263C27.2724 11.4263 27.4911 11.645 27.4911 11.9177V16.0568C27.4911 16.3295 27.2697 16.5482 26.9997 16.5482Z" fill="url(#paint0_linear_300_16317)"/>
<path d="M22.2532 17.7983C22.0857 17.7983 21.921 17.7119 21.8292 17.558L19.7286 13.9913C19.5909 13.7591 19.6692 13.4567 19.9014 13.319C20.1363 13.1813 20.436 13.2596 20.5737 13.4918L22.6744 17.0585C22.8121 17.2907 22.7338 17.5931 22.5016 17.7308C22.4232 17.7767 22.3369 17.7983 22.2532 17.7983Z" fill="url(#paint1_linear_300_16317)"/>
<path d="M18.9052 21.2487C18.8242 21.2487 18.7405 21.2271 18.6649 21.1867L15.055 19.1616C14.8174 19.0293 14.7337 18.7296 14.8687 18.4947C15.001 18.2571 15.3007 18.1734 15.5356 18.3084L19.1455 20.3334C19.3831 20.4657 19.4668 20.7654 19.3318 21.0003C19.2427 21.1569 19.078 21.2487 18.9052 21.2487Z" fill="url(#paint2_linear_300_16317)"/>
<path d="M31.7465 17.7983C31.6628 17.7983 31.5764 17.7767 31.4981 17.7308C31.2659 17.5931 31.1876 17.2934 31.3253 17.0585L33.4259 13.4918C33.5636 13.2596 33.8633 13.1813 34.0982 13.319C34.3304 13.4567 34.4087 13.7564 34.271 13.9913L32.1704 17.558C32.0786 17.7119 31.9166 17.7983 31.7465 17.7983Z" fill="url(#paint3_linear_300_16317)"/>
<path d="M35.0944 21.2487C34.9216 21.2487 34.7569 21.1596 34.6678 20.9976C34.5355 20.7627 34.6192 20.463 34.8541 20.3307L38.464 18.3057C38.6989 18.1734 38.9986 18.2571 39.1309 18.492C39.2632 18.7269 39.1795 19.0266 38.9446 19.1589L35.3347 21.1839C35.2564 21.2271 35.1754 21.2487 35.0944 21.2487Z" fill="url(#paint4_linear_300_16317)"/>
<path d="M30.915 34.5707H28.1286C27.8586 34.5707 27.6372 34.352 27.6372 34.0793C27.6372 30.5099 28.7037 27.2024 30.5586 25.0073C30.7341 24.8021 31.0419 24.7751 31.2498 24.9506C31.4577 25.1261 31.482 25.4339 31.3065 25.6418C29.6811 27.5642 28.7145 30.4397 28.6227 33.5906H30.6045C31.6629 31.3847 33.2478 28.034 33.3693 27.6506C33.3693 27.6479 33.372 27.6452 33.372 27.6425C33.5799 26.9891 33.6825 26.3087 33.6825 25.6202C33.6825 21.932 30.6828 18.9323 26.9946 18.9323C23.3064 18.9323 20.3067 21.932 20.3067 25.6202C20.3067 26.306 20.412 26.9864 20.6172 27.6371C20.6172 27.6398 20.6199 27.6452 20.6199 27.6479C20.7414 28.0313 22.3263 31.382 23.3847 33.5879H25.3665C25.2747 30.437 24.3081 27.5615 22.6827 25.6391C22.5072 25.4312 22.5342 25.1234 22.7394 24.9479C22.9473 24.7724 23.2551 24.7994 23.4306 25.0046C25.2882 27.1997 26.352 30.5072 26.352 34.0766C26.352 34.3466 26.1333 34.568 25.8606 34.568H23.085C22.896 34.568 22.7259 34.46 22.6422 34.2899C22.3614 33.7067 19.9044 28.5848 19.6965 27.9503C19.6938 27.9449 19.6938 27.9395 19.6911 27.9341C19.4535 27.1862 19.332 26.4059 19.332 25.6148C19.332 21.3866 22.7718 17.9468 27 17.9468C31.2282 17.9468 34.668 21.3866 34.668 25.6148C34.668 26.3951 34.5519 27.1646 34.3197 27.9044C34.3143 27.926 34.3062 27.9476 34.2981 27.9692C34.047 28.6847 31.6359 33.7094 31.3578 34.2872C31.2768 34.4627 31.104 34.5707 30.915 34.5707Z" fill="url(#paint5_linear_300_16317)"/>
<path d="M24.3942 24.7643C24.1971 24.7643 24.0135 24.6455 23.9379 24.4511C23.8407 24.2 23.9649 23.9138 24.216 23.8166L24.3402 23.768C24.594 23.6735 24.8748 23.8031 24.9693 24.0569C25.0638 24.3107 24.9342 24.5942 24.6804 24.686L24.5724 24.7265C24.513 24.7535 24.4536 24.7643 24.3942 24.7643Z" fill="url(#paint6_linear_300_16317)"/>
<path d="M25.9977 24.3431C25.7574 24.3431 25.5468 24.1649 25.5117 23.9219C25.4739 23.6546 25.6602 23.4062 25.9302 23.3684C26.0139 23.3576 26.0949 23.3468 26.1786 23.3387C26.4459 23.309 26.6889 23.5034 26.7186 23.7734C26.7483 24.0434 26.5539 24.2837 26.2839 24.3134C26.211 24.3215 26.1381 24.3296 26.0652 24.3404C26.0436 24.3431 26.0193 24.3431 25.9977 24.3431ZM28.0011 24.3431C27.9795 24.3431 27.9552 24.3404 27.9309 24.3377C27.858 24.3269 27.7851 24.3188 27.7122 24.3107C27.4422 24.281 27.2478 24.0407 27.2775 23.7707C27.3072 23.5007 27.5502 23.3063 27.8175 23.336C27.9012 23.3441 27.9849 23.3549 28.0686 23.3657C28.3359 23.4035 28.5222 23.6519 28.4844 23.9192C28.4493 24.1676 28.2414 24.3431 28.0011 24.3431Z" fill="url(#paint7_linear_300_16317)"/>
<path d="M29.605 24.7645C29.5456 24.7645 29.4862 24.7537 29.4268 24.7321L29.3188 24.6916C29.065 24.5971 28.9354 24.3163 29.0299 24.0625C29.1244 23.8087 29.4052 23.6791 29.659 23.7736L29.7832 23.8222C30.0343 23.9194 30.1612 24.2056 30.0613 24.4567C29.9857 24.6457 29.7994 24.7645 29.605 24.7645Z" fill="url(#paint8_linear_300_16317)"/>
<path d="M28.3227 42.5709H25.6767C25.4499 42.5709 25.2501 42.4143 25.1988 42.1902L24.9072 40.9401H23.0847C22.8147 40.9401 22.5933 40.7214 22.5933 40.4487V36.666C22.5933 36.396 22.812 36.1746 23.0847 36.1746H30.9174C31.1874 36.1746 31.4088 36.3933 31.4088 36.666V40.4487C31.4088 40.7187 31.1901 40.9401 30.9174 40.9401H29.0922L28.8006 42.1902C28.7493 42.4143 28.5522 42.5709 28.3227 42.5709ZM26.0655 41.5908H27.9339L28.2255 40.3407C28.2768 40.1193 28.4739 39.96 28.7034 39.96H30.4287V37.1601H23.5734V39.96H25.2987C25.5255 39.96 25.7253 40.1166 25.7766 40.3407L26.0655 41.5908Z" fill="black"/>
</g>
<defs>
<linearGradient id="paint0_linear_300_16317" x1="25.6182" y1="12.6071" x2="28.3813" y2="15.3702" gradientUnits="userSpaceOnUse">
<stop stop-color="#F9B90C"/>
<stop offset="0.25" stop-color="#F73172"/>
<stop offset="0.5" stop-color="#8259ED"/>
<stop offset="0.75" stop-color="#0091F8"/>
<stop offset="1" stop-color="#26F400"/>
</linearGradient>
<linearGradient id="paint1_linear_300_16317" x1="19.2825" y1="15.0182" x2="23.0658" y2="15.9964" gradientUnits="userSpaceOnUse">
<stop stop-color="#F9B90C"/>
<stop offset="0.25" stop-color="#F73172"/>
<stop offset="0.5" stop-color="#8259ED"/>
<stop offset="0.75" stop-color="#0091F8"/>
<stop offset="1" stop-color="#26F400"/>
</linearGradient>
<linearGradient id="paint2_linear_300_16317" x1="15.203" y1="20.2608" x2="18.9649" y2="19.2039" gradientUnits="userSpaceOnUse">
<stop stop-color="#F9B90C"/>
<stop offset="0.25" stop-color="#F73172"/>
<stop offset="0.5" stop-color="#8259ED"/>
<stop offset="0.75" stop-color="#0091F8"/>
<stop offset="1" stop-color="#26F400"/>
</linearGradient>
<linearGradient id="paint3_linear_300_16317" x1="34.7262" y1="14.9491" x2="30.943" y2="15.9273" gradientUnits="userSpaceOnUse">
<stop stop-color="#F9B90C"/>
<stop offset="0.25" stop-color="#F73172"/>
<stop offset="0.5" stop-color="#8259ED"/>
<stop offset="0.75" stop-color="#0091F8"/>
<stop offset="1" stop-color="#26F400"/>
</linearGradient>
<linearGradient id="paint4_linear_300_16317" x1="38.7925" y1="20.2371" x2="35.0303" y2="19.1801" gradientUnits="userSpaceOnUse">
<stop stop-color="#F9B90C"/>
<stop offset="0.25" stop-color="#F73172"/>
<stop offset="0.5" stop-color="#8259ED"/>
<stop offset="0.75" stop-color="#0091F8"/>
<stop offset="1" stop-color="#26F400"/>
</linearGradient>
<linearGradient id="paint5_linear_300_16317" x1="21.0232" y1="20.7583" x2="32.9769" y2="32.712" gradientUnits="userSpaceOnUse">
<stop stop-color="#F9B90C"/>
<stop offset="0.25" stop-color="#F73172"/>
<stop offset="0.5" stop-color="#8259ED"/>
<stop offset="0.75" stop-color="#0091F8"/>
<stop offset="1" stop-color="#26F400"/>
</linearGradient>
<linearGradient id="paint6_linear_300_16317" x1="24.0881" y1="23.8856" x2="27.3875" y2="27.1851" gradientUnits="userSpaceOnUse">
<stop stop-color="#F9B90C"/>
<stop offset="0.25" stop-color="#F73172"/>
<stop offset="0.5" stop-color="#8259ED"/>
<stop offset="0.75" stop-color="#0091F8"/>
<stop offset="1" stop-color="#26F400"/>
</linearGradient>
<linearGradient id="paint7_linear_300_16317" x1="25.684" y1="22.5385" x2="28.2891" y2="25.1435" gradientUnits="userSpaceOnUse">
<stop stop-color="#F9B90C"/>
<stop offset="0.25" stop-color="#F73172"/>
<stop offset="0.5" stop-color="#8259ED"/>
<stop offset="0.75" stop-color="#0091F8"/>
<stop offset="1" stop-color="#26F400"/>
</linearGradient>
<linearGradient id="paint8_linear_300_16317" x1="26.6336" y1="21.3384" x2="29.9333" y2="24.638" gradientUnits="userSpaceOnUse">
<stop stop-color="#F9B90C"/>
<stop offset="0.25" stop-color="#F73172"/>
<stop offset="0.5" stop-color="#8259ED"/>
<stop offset="0.75" stop-color="#0091F8"/>
<stop offset="1" stop-color="#26F400"/>
</linearGradient>
<clipPath id="clip0_300_16317">
<rect width="54" height="54" fill="white"/>
</clipPath>
</defs>
</svg>
