<svg width="104" height="39" viewBox="0 0 104 39" fill="none" xmlns="http://www.w3.org/2000/svg">
<path d="M8.392 8.6V31H6.76V10.072H1.288V8.6H8.392ZM29.4333 8.6V9.752L19.8013 31H18.0093L27.5453 10.072H14.9693V14.36H13.3693V8.6H29.4333ZM40.778 31.16C39.0713 31.16 37.546 30.7013 36.202 29.784C34.8793 28.8453 33.8447 27.5227 33.098 25.816C32.3727 24.1093 32.01 22.104 32.01 19.8C32.01 17.496 32.3727 15.4907 33.098 13.784C33.8447 12.0773 34.8793 10.7653 36.202 9.848C37.546 8.90933 39.0713 8.44 40.778 8.44C42.4847 8.44 43.9993 8.90933 45.322 9.848C46.666 10.7653 47.7007 12.0773 48.426 13.784C49.1727 15.4907 49.546 17.496 49.546 19.8C49.546 22.104 49.1727 24.1093 48.426 25.816C47.7007 27.5227 46.666 28.8453 45.322 29.784C43.9993 30.7013 42.4847 31.16 40.778 31.16ZM40.778 29.656C42.186 29.656 43.4233 29.272 44.49 28.504C45.578 27.7147 46.4207 26.584 47.018 25.112C47.6153 23.6187 47.914 21.848 47.914 19.8C47.914 17.752 47.6153 15.992 47.018 14.52C46.4207 13.0267 45.578 11.896 44.49 11.128C43.4233 10.3387 42.186 9.944 40.778 9.944C39.37 9.944 38.122 10.3387 37.034 11.128C35.9673 11.896 35.1353 13.0267 34.538 14.52C33.9407 15.992 33.642 17.752 33.642 19.8C33.642 21.848 33.9407 23.6187 34.538 25.112C35.1353 26.584 35.9673 27.7147 37.034 28.504C38.122 29.272 39.37 29.656 40.778 29.656ZM61.8405 31.16C60.1338 31.16 58.6085 30.7013 57.2645 29.784C55.9418 28.8453 54.9072 27.5227 54.1605 25.816C53.4352 24.1093 53.0725 22.104 53.0725 19.8C53.0725 17.496 53.4352 15.4907 54.1605 13.784C54.9072 12.0773 55.9418 10.7653 57.2645 9.848C58.6085 8.90933 60.1338 8.44 61.8405 8.44C63.5472 8.44 65.0618 8.90933 66.3845 9.848C67.7285 10.7653 68.7632 12.0773 69.4885 13.784C70.2352 15.4907 70.6085 17.496 70.6085 19.8C70.6085 22.104 70.2352 24.1093 69.4885 25.816C68.7632 27.5227 67.7285 28.8453 66.3845 29.784C65.0618 30.7013 63.5472 31.16 61.8405 31.16ZM61.8405 29.656C63.2485 29.656 64.4858 29.272 65.5525 28.504C66.6405 27.7147 67.4832 26.584 68.0805 25.112C68.6778 23.6187 68.9765 21.848 68.9765 19.8C68.9765 17.752 68.6778 15.992 68.0805 14.52C67.4832 13.0267 66.6405 11.896 65.5525 11.128C64.4858 10.3387 63.2485 9.944 61.8405 9.944C60.4325 9.944 59.1845 10.3387 58.0965 11.128C57.0298 11.896 56.1978 13.0267 55.6005 14.52C55.0032 15.992 54.7045 17.752 54.7045 19.8C54.7045 21.848 55.0032 23.6187 55.6005 25.112C56.1978 26.584 57.0298 27.7147 58.0965 28.504C59.1845 29.272 60.4325 29.656 61.8405 29.656ZM86.6418 23.416V25.4H93.9058V26.488H86.6418V31H84.9778V26.488H81.5538V25.4H84.9778V8.6H93.0418C95.8578 8.6 98.0551 9.25067 99.6338 10.552C101.234 11.832 102.034 13.6453 102.034 15.992C102.034 18.3387 101.234 20.1627 99.6338 21.464C98.0551 22.7653 95.8578 23.416 93.0418 23.416H86.6418ZM86.6418 10.072V21.976H93.0738C95.4204 21.976 97.2231 21.464 98.4818 20.44C99.7404 19.3947 100.37 17.9227 100.37 16.024C100.37 14.104 99.7404 12.632 98.4818 11.608C97.2444 10.584 95.4418 10.072 93.0738 10.072H86.6418Z" fill="#1A1A1A"/>
<line x1="0.853323" y1="30.9903" x2="77.3336" y2="7.52198" stroke="#FC3172"/>
</svg>
