<svg width="24" height="25" viewBox="0 0 24 25" fill="none" xmlns="http://www.w3.org/2000/svg">
<path opacity="0.4" d="M11.374 15.186C11.374 14.7847 11.4347 14.4393 11.556 14.15C11.6867 13.8607 11.85 13.6087 12.046 13.394C12.2513 13.17 12.466 12.9647 12.69 12.778C12.914 12.582 13.124 12.386 13.32 12.19C13.5253 11.9847 13.6887 11.7607 13.81 11.518C13.9407 11.266 14.006 10.9673 14.006 10.622C14.006 10.0807 13.7913 9.63733 13.362 9.292C12.942 8.93733 12.34 8.76 11.556 8.76C10.9307 8.76 10.3847 8.858 9.918 9.054C9.46067 9.24067 9.06867 9.53 8.742 9.922L8.224 9.516C8.59733 9.068 9.064 8.72733 9.624 8.494C10.1933 8.25133 10.8513 8.13 11.598 8.13C12.2327 8.13 12.7833 8.228 13.25 8.424C13.726 8.62 14.09 8.9 14.342 9.264C14.6033 9.61867 14.734 10.0387 14.734 10.524C14.734 10.9347 14.6687 11.2847 14.538 11.574C14.4167 11.8633 14.2533 12.12 14.048 12.344C13.852 12.568 13.642 12.778 13.418 12.974C13.194 13.1607 12.9793 13.3567 12.774 13.562C12.578 13.7673 12.4147 14.0007 12.284 14.262C12.1627 14.5233 12.102 14.8313 12.102 15.186H11.374ZM11.738 18.056C11.5793 18.056 11.444 18 11.332 17.888C11.22 17.7667 11.164 17.6313 11.164 17.482C11.164 17.3233 11.22 17.188 11.332 17.076C11.444 16.964 11.5793 16.908 11.738 16.908C11.906 16.908 12.046 16.964 12.158 17.076C12.27 17.188 12.326 17.3233 12.326 17.482C12.326 17.6313 12.27 17.7667 12.158 17.888C12.046 18 11.906 18.056 11.738 18.056Z" fill="#1A1A1A" fill-opacity="0.5"/>
<rect opacity="0.4" x="0.5" y="1" width="23" height="23" rx="11.5" stroke="#1A1A1A" stroke-opacity="0.5"/>
</svg>
