<svg width="18" height="16" viewBox="0 0 18 16" fill="none" xmlns="http://www.w3.org/2000/svg">
<path opacity="0.9" d="M10.0546 1.92487L10.0544 1.92511L9.3618 2.65009L9.00026 3.02856L8.63871 2.65009L7.94615 1.9251L7.94558 1.92451C6.34229 0.240607 3.77589 -0.000358975 2.07508 1.47191C0.0867622 3.19601 -0.0206353 6.30197 1.76152 8.17388L10.0546 1.92487ZM10.0546 1.92487C11.6617 0.240287 14.2249 -0.000196431 15.9255 1.47198L10.0546 1.92487ZM8.56403 15.3094L1.76173 8.1741L15.9256 1.47204C17.9138 3.19621 18.021 6.30198 16.2356 8.17377L16.2355 8.17388L9.43297 15.3094C9.43294 15.3094 9.43291 15.3094 9.43288 15.3095C9.19045 15.5635 8.80655 15.5635 8.56412 15.3095C8.56409 15.3094 8.56406 15.3094 8.56403 15.3094Z" stroke="url(#paint0_linear_3111_1416)"/>
<defs>
<linearGradient id="paint0_linear_3111_1416" x1="3.77761" y1="-13.1358" x2="22.8384" y2="-8.57486" gradientUnits="userSpaceOnUse">
<stop stop-color="#FEBE0C"/>
<stop offset="0.25" stop-color="#FC3172"/>
<stop offset="0.45" stop-color="#8759F2"/>
<stop offset="0.6" stop-color="#8759F2"/>
<stop offset="0.8" stop-color="#0096FD"/>
<stop offset="1" stop-color="#26F900"/>
</linearGradient>
</defs>
</svg>
