<svg width="36" height="33" viewBox="0 0 36 33" fill="none" xmlns="http://www.w3.org/2000/svg">
<path d="M21.3813 50.0482H18.1702C17.7829 50.0482 17.4653 49.7401 17.4653 49.3559V37.4467H4.60162V49.3559C4.60162 49.7363 4.28788 50.0482 3.89666 50.0482H0.704963C0.317621 50.0482 0 49.7401 0 49.3559V13.8224C0 13.442 0.313747 13.1301 0.704963 13.1301H3.90053C4.28788 13.1301 4.6055 13.4382 4.6055 13.8224V32.9889H21.3813C21.7686 32.9889 22.0862 33.297 22.0862 33.6811V49.3559C22.0862 49.7401 21.7725 50.0482 21.3813 50.0482ZM18.8752 48.6675H20.6802V34.3734H3.89666C3.50932 34.3734 3.1917 34.0653 3.1917 33.6811V14.5146H1.40605V48.6675H3.19557V36.7545C3.19557 36.3741 3.50932 36.0622 3.90053 36.0622H18.1741C18.5614 36.0622 18.8791 36.3703 18.8791 36.7545V48.6675H18.8752Z" fill="black"/>
<path d="M27.6405 44.4342C27.2532 44.4342 26.9355 44.1261 26.9355 43.7419V28.7556H10.1559C9.76855 28.7556 9.45093 28.4475 9.45093 28.0633V8.20837C9.45093 7.82801 9.76467 7.51611 10.1559 7.51611C10.5471 7.51611 10.8609 7.82421 10.8609 8.20837V27.3749H27.6405C28.0279 27.3749 28.3455 27.683 28.3455 28.0671V43.7419C28.3455 44.1223 28.0279 44.4342 27.6405 44.4342Z" fill="url(#paint0_linear_184_4695)"/>
<path d="M31.4673 40.6761C31.0799 40.6761 30.7623 40.368 30.7623 39.9838V24.9975H13.9827C13.5953 24.9975 13.2777 24.6894 13.2777 24.3053V4.45032C13.2777 4.06995 13.5915 3.75806 13.9827 3.75806C14.3739 3.75806 14.6876 4.06615 14.6876 4.45032V23.6168H31.4673C31.8546 23.6168 32.1723 23.9249 32.1723 24.3091V39.9838C32.1723 40.3642 31.8546 40.6761 31.4673 40.6761Z" fill="url(#paint1_linear_184_4695)"/>
<path d="M35.2951 36.9142C34.9077 36.9142 34.5901 36.6062 34.5901 36.222V21.2357H17.8104C17.4231 21.2357 17.1055 20.9276 17.1055 20.5434V0.692261C17.1055 0.311898 17.4192 0 17.8104 0C18.2016 0 18.5154 0.308094 18.5154 0.692261V19.8588H35.2951C35.6824 19.8588 36 20.1669 36 20.551V36.2258C36 36.6062 35.6863 36.9142 35.2951 36.9142Z" fill="url(#paint2_linear_184_4695)"/>
<defs>
<linearGradient id="paint0_linear_184_4695" x1="4.60268" y1="12.6841" x2="31.9271" y2="40.5098" gradientUnits="userSpaceOnUse">
<stop stop-color="#F9B90C"/>
<stop offset="0.25" stop-color="#F73172"/>
<stop offset="0.5" stop-color="#8259ED"/>
<stop offset="0.75" stop-color="#0091F8"/>
<stop offset="1" stop-color="#26F400"/>
</linearGradient>
<linearGradient id="paint1_linear_184_4695" x1="8.42997" y1="8.92552" x2="35.7544" y2="36.7513" gradientUnits="userSpaceOnUse">
<stop stop-color="#F9B90C"/>
<stop offset="0.25" stop-color="#F73172"/>
<stop offset="0.5" stop-color="#8259ED"/>
<stop offset="0.75" stop-color="#0091F8"/>
<stop offset="1" stop-color="#26F400"/>
</linearGradient>
<linearGradient id="paint2_linear_184_4695" x1="12.2583" y1="5.16693" x2="39.5827" y2="32.9927" gradientUnits="userSpaceOnUse">
<stop stop-color="#F9B90C"/>
<stop offset="0.25" stop-color="#F73172"/>
<stop offset="0.5" stop-color="#8259ED"/>
<stop offset="0.75" stop-color="#0091F8"/>
<stop offset="1" stop-color="#26F400"/>
</linearGradient>
</defs>
</svg>
