<svg width="43" height="32" viewBox="0 0 43 32" fill="none" xmlns="http://www.w3.org/2000/svg">
<path d="M19.8556 37.7191C9.04039 37.7191 0.237305 29.2607 0.237305 18.8596C0.237305 8.45838 9.04039 0 19.8556 0C30.6708 0 39.4739 8.46262 39.4739 18.8596C39.4739 19.2838 39.1165 19.6316 38.6708 19.6316C38.2252 19.6316 37.8678 19.288 37.8678 18.8596C37.8678 9.31101 29.7839 1.53982 19.8512 1.53982C9.9185 1.53982 1.83907 9.31101 1.83907 18.8596C1.83907 28.4081 9.92291 36.1793 19.8556 36.1793C24.6697 36.1793 29.1926 34.3765 32.5947 31.106C32.908 30.8048 33.4155 30.8048 33.7288 31.106C34.0421 31.4072 34.0421 31.895 33.7288 32.1962C30.0222 35.7594 25.0978 37.7191 19.8556 37.7191Z" fill="black"/>
<path d="M19.8557 32.7475C11.891 32.7475 5.40894 26.5161 5.40894 18.8594C5.40894 18.4352 5.76635 18.0874 6.21202 18.0874C6.65769 18.0874 7.01511 18.431 7.01511 18.8594C7.01511 25.6677 12.7779 31.2077 19.8601 31.2077C23.2887 31.2077 26.5143 29.9224 28.9412 27.5893C29.2545 27.2881 29.7619 27.2881 30.0752 27.5893C30.3885 27.8905 30.3885 28.3783 30.0752 28.6795C27.3439 31.3052 23.7167 32.7475 19.8557 32.7475Z" fill="url(#paint0_linear_184_4724)"/>
<path d="M19.8561 27.9711C14.6316 27.9711 10.3823 23.8862 10.3823 18.8637C10.3823 13.8413 14.6316 9.75635 19.8561 9.75635C20.2974 9.75635 20.6592 10.0999 20.6592 10.5284C20.6592 10.9568 20.3018 11.3004 19.8561 11.3004C15.5142 11.3004 11.9841 14.6939 11.9841 18.868C11.9841 23.042 15.5142 26.4356 19.8561 26.4356C21.9609 26.4356 23.9378 25.6466 25.4248 24.217C25.7381 23.9159 26.2455 23.9159 26.5588 24.217C26.8721 24.5182 26.8721 25.006 26.5588 25.3072C24.7673 27.0209 22.3889 27.9711 19.8561 27.9711Z" fill="url(#paint1_linear_184_4724)"/>
<path d="M19.8563 22.5247C17.7559 22.5247 16.0482 20.8831 16.0482 18.8639C16.0482 16.8447 17.7559 15.2031 19.8563 15.2031C21.9567 15.2031 23.6643 16.8447 23.6643 18.8639C23.6643 20.8831 21.9567 22.5247 19.8563 22.5247ZM19.8563 16.7387C18.6384 16.7387 17.65 17.6889 17.65 18.8597C17.65 20.0304 18.6384 20.9806 19.8563 20.9806C21.0741 20.9806 22.0626 20.0304 22.0626 18.8597C22.0626 17.6889 21.0741 16.7387 19.8563 16.7387Z" fill="url(#paint2_linear_184_4724)"/>
<path d="M33.1644 32.4209C32.9614 32.4209 32.754 32.3446 32.5995 32.1961L21.4181 21.4513C21.1048 21.1501 21.1048 20.6623 21.4181 20.3611C21.7314 20.06 22.2388 20.06 22.5521 20.3611L33.7292 31.1059C34.0425 31.4071 34.0425 31.8949 33.7292 32.1961C33.5747 32.3488 33.3673 32.4209 33.1644 32.4209Z" fill="url(#paint3_linear_184_4724)"/>
<path d="M38.7055 21.0781C38.5025 21.0781 38.2951 21.0017 38.1407 20.8532L35.1357 17.9645C34.8224 17.6633 34.8224 17.1755 35.1357 16.8743C35.449 16.5731 35.9565 16.5731 36.2698 16.8743L38.7099 19.2201L41.0839 16.9379C41.3972 16.6368 41.9046 16.6368 42.2179 16.9379C42.5312 17.2391 42.5312 17.7269 42.2179 18.0281L39.2747 20.8575C39.1159 21.0017 38.9129 21.0781 38.7055 21.0781Z" fill="black"/>
<defs>
<linearGradient id="paint0_linear_184_4724" x1="5.40991" y1="25.4194" x2="30.3069" y2="25.4194" gradientUnits="userSpaceOnUse">
<stop stop-color="#F9B90C"/>
<stop offset="0.25" stop-color="#F73172"/>
<stop offset="0.5" stop-color="#8259ED"/>
<stop offset="0.75" stop-color="#0091F8"/>
<stop offset="1" stop-color="#26F400"/>
</linearGradient>
<linearGradient id="paint1_linear_184_4724" x1="10.3814" y1="18.8605" x2="26.7923" y2="18.8605" gradientUnits="userSpaceOnUse">
<stop stop-color="#F9B90C"/>
<stop offset="0.25" stop-color="#F73172"/>
<stop offset="0.5" stop-color="#8259ED"/>
<stop offset="0.75" stop-color="#0091F8"/>
<stop offset="1" stop-color="#26F400"/>
</linearGradient>
<linearGradient id="paint2_linear_184_4724" x1="16.048" y1="18.8607" x2="23.6666" y2="18.8607" gradientUnits="userSpaceOnUse">
<stop stop-color="#F9B90C"/>
<stop offset="0.25" stop-color="#F73172"/>
<stop offset="0.5" stop-color="#8259ED"/>
<stop offset="0.75" stop-color="#0091F8"/>
<stop offset="1" stop-color="#26F400"/>
</linearGradient>
<linearGradient id="paint3_linear_184_4724" x1="21.1828" y1="26.2788" x2="33.9648" y2="26.2788" gradientUnits="userSpaceOnUse">
<stop stop-color="#F9B90C"/>
<stop offset="0.25" stop-color="#F73172"/>
<stop offset="0.5" stop-color="#8259ED"/>
<stop offset="0.75" stop-color="#0091F8"/>
<stop offset="1" stop-color="#26F400"/>
</linearGradient>
</defs>
</svg>
