<svg width="36" height="34" viewBox="0 0 36 34" fill="none" xmlns="http://www.w3.org/2000/svg">
<g clip-path="url(#clip0_184_4742)">
<path d="M18.002 36.4019C16.979 36.4019 16.1451 35.5277 16.1451 34.4551V32.3638C15.5678 31.8157 15.2311 31.0323 15.2311 30.2085C15.2311 28.6047 16.4754 27.3035 18.002 27.3035C19.5286 27.3035 20.773 28.608 20.773 30.2085C20.773 31.0323 20.4362 31.8157 19.859 32.3638V34.4551C19.859 35.5277 19.0251 36.4019 18.002 36.4019ZM18.002 28.5206C17.1169 28.5206 16.3953 29.2772 16.3953 30.2052C16.3953 30.7465 16.6454 31.2576 17.0656 31.5736L17.3093 31.7552V34.4518C17.3093 34.8519 17.6204 35.178 18.002 35.178C18.3837 35.178 18.6948 34.8519 18.6948 34.4518V31.7552L18.9385 31.5736C19.3587 31.2576 19.6088 30.7465 19.6088 30.2052C19.6088 29.2772 18.8872 28.5206 18.002 28.5206Z" fill="url(#paint0_linear_184_4742)"/>
<path d="M29.1364 19.5937H24.9158C24.5951 19.5937 24.3321 19.3213 24.3321 18.9817V13.2826C24.3321 9.621 21.4906 6.64198 17.998 6.64198C14.5055 6.64198 11.664 9.621 11.664 13.2826V18.9817C11.664 19.318 11.4042 19.5937 11.0803 19.5937C10.7564 19.5937 10.4966 19.3213 10.4966 18.9817V13.2826C10.4966 8.94854 13.8609 5.42146 17.9948 5.42146C22.1288 5.42146 25.4931 8.94854 25.4931 13.2826V18.3698H28.5463V13.2826C28.5463 7.18332 23.8126 2.22052 17.9948 2.22052C12.1771 2.22052 7.44339 7.18332 7.44339 13.2826V18.9817C7.44339 19.318 7.18362 19.5937 6.8597 19.5937C6.53578 19.5937 6.276 19.3213 6.276 18.9817V13.2826C6.28242 6.51085 11.5389 1 18.0013 1C24.4636 1 29.7169 6.51085 29.7169 13.2826V18.9817C29.7169 19.318 29.4571 19.5937 29.1364 19.5937Z" fill="url(#paint1_linear_184_4742)"/>
<path d="M32.5299 21.2983H3.47332C1.55866 21.2983 0 22.9324 0 24.9397V38.7589C0 40.7662 1.55866 42.4003 3.47332 42.4003H32.5267C34.4413 42.4003 36 40.7662 36 38.7589V24.9397C36.0032 22.9324 34.4445 21.2983 32.5299 21.2983ZM32.5299 41.1798H3.47332C2.20009 41.1798 1.16419 40.0937 1.16419 38.7589V35.7732H11.2089C11.5296 35.7732 11.7926 35.5008 11.7926 35.1612C11.7926 34.8216 11.5328 34.5493 11.2089 34.5493H1.16419V29.146H11.2089C11.5296 29.146 11.7926 28.8737 11.7926 28.5341C11.7926 28.1945 11.5328 27.9221 11.2089 27.9221H1.16419V24.9397C1.16419 23.6049 2.20009 22.5189 3.47332 22.5189H32.5267C33.7999 22.5189 34.8358 23.6049 34.8358 24.9397V27.9255H24.7943C24.4736 27.9255 24.2106 28.1978 24.2106 28.5374C24.2106 28.877 24.4704 29.1494 24.7943 29.1494H34.839V34.556H24.7943C24.4736 34.556 24.2106 34.8283 24.2106 35.1679C24.2106 35.5075 24.4704 35.7799 24.7943 35.7799H34.839V38.7656C34.839 40.0937 33.8031 41.1798 32.5299 41.1798Z" fill="black"/>
</g>
<defs>
<linearGradient id="paint0_linear_184_4742" x1="15.3529" y1="28.8742" x2="20.9013" y2="34.1666" gradientUnits="userSpaceOnUse">
<stop stop-color="#F9B90C"/>
<stop offset="0.25" stop-color="#F73172"/>
<stop offset="0.5" stop-color="#8259ED"/>
<stop offset="0.75" stop-color="#0091F8"/>
<stop offset="1" stop-color="#26F400"/>
</linearGradient>
<linearGradient id="paint1_linear_184_4742" x1="9.51206" y1="4.81974" x2="27.292" y2="21.779" gradientUnits="userSpaceOnUse">
<stop stop-color="#F9B90C"/>
<stop offset="0.25" stop-color="#F73172"/>
<stop offset="0.5" stop-color="#8259ED"/>
<stop offset="0.75" stop-color="#0091F8"/>
<stop offset="1" stop-color="#26F400"/>
</linearGradient>
<clipPath id="clip0_184_4742">
<rect width="36" height="34" fill="white"/>
</clipPath>
</defs>
</svg>
