<svg width="58" height="58" viewBox="0 0 58 58" fill="none" xmlns="http://www.w3.org/2000/svg">
<circle cx="29" cy="29" r="28.5" fill="white" fill-opacity="0.5" stroke="url(#paint0_linear_300_16200)"/>
<path d="M10.4174 22.8651C10.2373 22.5677 10.3308 22.1839 10.6286 22.0006C16.014 18.7291 22.518 17 29.4377 17C36.3538 17 42.8578 18.7291 48.2467 22.0006C48.5445 22.1804 48.638 22.5677 48.4579 22.8651C48.2779 23.1625 47.89 23.2559 47.5921 23.0761C42.4769 19.9671 36.0283 18.2553 29.4377 18.2553C22.8471 18.2553 16.3984 19.9671 11.2832 23.0761C11.1828 23.1383 11.0685 23.1695 10.9577 23.1695C10.7429 23.1695 10.5351 23.0622 10.4174 22.8651ZM51.8 30.4628V30.6323C51.8 30.7741 51.7515 30.9159 51.6615 31.0265C46.6328 37.272 38.3244 41 29.4342 41C20.4955 41 12.1594 37.2409 7.13766 30.9401C6.95411 30.7118 6.95411 30.3867 7.13766 30.1585C12.1594 23.8611 20.4955 20.0986 29.4342 20.0986C38.3244 20.0986 46.6328 23.8265 51.6615 30.072C51.7515 30.1827 51.8 30.321 51.8 30.4628ZM50.4285 30.5493C45.6111 24.7844 37.798 21.3539 29.4342 21.3539C21.0635 21.3539 13.2573 24.781 8.43985 30.5493C13.2573 36.3141 21.0635 39.7447 29.4342 39.7447C37.798 39.7447 45.6111 36.3141 50.4285 30.5493ZM32.2533 25.8046C31.9555 25.6248 31.5676 25.7216 31.3909 26.019L26.3311 34.4329C26.151 34.7303 26.248 35.1176 26.5458 35.2939C26.6463 35.3562 26.7606 35.3839 26.8679 35.3839C27.0826 35.3839 27.2904 35.2767 27.4082 35.0795L32.468 26.6657C32.6481 26.3683 32.5511 25.981 32.2533 25.8046ZM25.6315 31.0403C24.1596 31.0403 22.9648 29.8438 22.9648 28.3775C22.9648 26.9112 24.1631 25.7147 25.6315 25.7147C27.1 25.7147 28.2982 26.9112 28.2982 28.3775C28.2982 29.8438 27.1034 31.0403 25.6315 31.0403ZM27.0411 28.3775C27.0411 27.6029 26.4073 26.97 25.6315 26.97C24.8558 26.97 24.222 27.6029 24.222 28.3775C24.222 29.1522 24.8558 29.785 25.6315 29.785C26.4073 29.785 27.0411 29.1522 27.0411 28.3775ZM35.8343 32.721C35.8343 34.1908 34.636 35.3839 33.1676 35.3839C31.6992 35.3839 30.5009 34.1873 30.5009 32.721C30.5009 31.2548 31.6992 30.0582 33.1676 30.0582C34.636 30.0582 35.8343 31.2513 35.8343 32.721ZM34.5772 32.721C34.5772 31.9464 33.9434 31.3135 33.1676 31.3135C32.3918 31.3135 31.7581 31.9464 31.7581 32.721C31.7581 33.4957 32.3918 34.1285 33.1676 34.1285C33.9434 34.1285 34.5772 33.4957 34.5772 32.721Z" fill="black"/>
<path d="M29.3966 41C23.6643 41 19 36.198 19 30.2967C19 25.8144 21.7467 21.7713 25.8344 20.2397C26.1551 20.1203 26.51 20.2889 26.6294 20.6191C26.7488 20.9493 26.5816 21.3146 26.2609 21.4376C22.6612 22.79 20.242 26.3484 20.242 30.2967C20.242 35.4955 24.3501 39.7248 29.4 39.7248C34.4499 39.7248 38.558 35.4955 38.558 30.2967C38.558 26.3484 36.1388 22.79 32.5391 21.4376C32.2184 21.3181 32.0512 20.9493 32.1706 20.6191C32.29 20.2889 32.6415 20.1168 32.9656 20.2397C37.0533 21.7748 39.8 25.8179 39.8 30.2967C39.7932 36.198 35.1289 41 29.3966 41Z" fill="url(#paint1_linear_300_16200)"/>
<defs>
<linearGradient id="paint0_linear_300_16200" x1="12.1723" y1="-47.6174" x2="74.2966" y2="-34.4037" gradientUnits="userSpaceOnUse">
<stop stop-color="#FEBE0C"/>
<stop offset="0.25" stop-color="#FC3172"/>
<stop offset="0.45" stop-color="#8759F2"/>
<stop offset="0.6" stop-color="#8759F2"/>
<stop offset="0.8" stop-color="#0096FD"/>
<stop offset="1" stop-color="#26F900"/>
</linearGradient>
<linearGradient id="paint1_linear_300_16200" x1="22.0477" y1="22.7306" x2="37.1713" y2="37.4208" gradientUnits="userSpaceOnUse">
<stop stop-color="#F9B90C"/>
<stop offset="0.25" stop-color="#F73172"/>
<stop offset="0.5" stop-color="#8259ED"/>
<stop offset="0.75" stop-color="#0091F8"/>
<stop offset="1" stop-color="#26F400"/>
</linearGradient>
</defs>
</svg>
