<svg width="180" height="17" viewBox="0 0 180 17" fill="none" xmlns="http://www.w3.org/2000/svg">
<ellipse cx="8.25532" cy="3.6383" rx="7.25532" ry="2.6383" stroke="#8759F2" stroke-linecap="round"/>
<path d="M1.43213 4.51977L6.60631 11.883V16.5L9.90418 15.1809V11.883L15.3743 4.17737" stroke="#8759F2" stroke-linecap="round" stroke-linejoin="round"/>
<path d="M25.2124 7.094C25.7964 7.094 26.3164 7.226 26.7724 7.49C27.2364 7.746 27.5964 8.11 27.8524 8.582C28.1084 9.046 28.2364 9.578 28.2364 10.178C28.2364 10.794 28.1004 11.342 27.8284 11.822C27.5644 12.294 27.1924 12.662 26.7124 12.926C26.2324 13.19 25.6804 13.322 25.0564 13.322C24.0084 13.322 23.1964 12.954 22.6204 12.218C22.0444 11.482 21.7564 10.466 21.7564 9.17C21.7564 7.818 22.0124 6.782 22.5244 6.062C23.0444 5.342 23.8524 4.854 24.9484 4.598L27.7804 3.95L27.9244 4.73L25.2604 5.342C24.3564 5.542 23.6924 5.898 23.2684 6.41C22.8444 6.914 22.6124 7.662 22.5724 8.654C22.8284 8.166 23.1844 7.786 23.6404 7.514C24.0964 7.234 24.6204 7.094 25.2124 7.094ZM25.0804 12.614C25.5204 12.614 25.9124 12.514 26.2564 12.314C26.6084 12.106 26.8804 11.818 27.0724 11.45C27.2724 11.082 27.3724 10.666 27.3724 10.202C27.3724 9.738 27.2764 9.33 27.0844 8.978C26.8924 8.626 26.6204 8.354 26.2684 8.162C25.9244 7.962 25.5284 7.862 25.0804 7.862C24.6324 7.862 24.2324 7.962 23.8804 8.162C23.5364 8.354 23.2644 8.626 23.0644 8.978C22.8724 9.33 22.7764 9.738 22.7764 10.202C22.7764 10.666 22.8724 11.082 23.0644 11.45C23.2644 11.818 23.5404 12.106 23.8924 12.314C24.2444 12.514 24.6404 12.614 25.0804 12.614ZM32.1994 6.89C33.0234 6.89 33.6554 7.098 34.0954 7.514C34.5354 7.922 34.7554 8.53 34.7554 9.338V13.25H33.9394V12.266C33.7474 12.594 33.4634 12.85 33.0874 13.034C32.7194 13.218 32.2794 13.31 31.7674 13.31C31.0634 13.31 30.5034 13.142 30.0874 12.806C29.6714 12.47 29.4634 12.026 29.4634 11.474C29.4634 10.938 29.6554 10.506 30.0394 10.178C30.4314 9.85 31.0514 9.686 31.8994 9.686H33.9034V9.302C33.9034 8.758 33.7514 8.346 33.4474 8.066C33.1434 7.778 32.6994 7.634 32.1154 7.634C31.7154 7.634 31.3314 7.702 30.9634 7.838C30.5954 7.966 30.2794 8.146 30.0154 8.378L29.6314 7.742C29.9514 7.47 30.3354 7.262 30.7834 7.118C31.2314 6.966 31.7034 6.89 32.1994 6.89ZM31.8994 12.638C32.3794 12.638 32.7914 12.53 33.1354 12.314C33.4794 12.09 33.7354 11.77 33.9034 11.354V10.322H31.9234C30.8434 10.322 30.3034 10.698 30.3034 11.45C30.3034 11.818 30.4434 12.11 30.7234 12.326C31.0034 12.534 31.3954 12.638 31.8994 12.638ZM40.2755 6.89C40.8675 6.89 41.4035 7.026 41.8835 7.298C42.3635 7.562 42.7395 7.938 43.0115 8.426C43.2835 8.914 43.4195 9.47 43.4195 10.094C43.4195 10.726 43.2835 11.286 43.0115 11.774C42.7395 12.262 42.3635 12.642 41.8835 12.914C41.4115 13.178 40.8755 13.31 40.2755 13.31C39.7635 13.31 39.2995 13.206 38.8835 12.998C38.4755 12.782 38.1395 12.47 37.8755 12.062V15.578H37.0235V6.938H37.8395V8.186C38.0955 7.77 38.4315 7.45 38.8475 7.226C39.2715 7.002 39.7475 6.89 40.2755 6.89ZM40.2155 12.554C40.6555 12.554 41.0555 12.454 41.4155 12.254C41.7755 12.046 42.0555 11.754 42.2555 11.378C42.4635 11.002 42.5675 10.574 42.5675 10.094C42.5675 9.614 42.4635 9.19 42.2555 8.822C42.0555 8.446 41.7755 8.154 41.4155 7.946C41.0555 7.738 40.6555 7.634 40.2155 7.634C39.7675 7.634 39.3635 7.738 39.0035 7.946C38.6515 8.154 38.3715 8.446 38.1635 8.822C37.9635 9.19 37.8635 9.614 37.8635 10.094C37.8635 10.574 37.9635 11.002 38.1635 11.378C38.3715 11.754 38.6515 12.046 39.0035 12.254C39.3635 12.454 39.7675 12.554 40.2155 12.554ZM45.2501 6.938H46.1021V9.734H50.0741V6.938H50.9261V13.25H50.0741V10.466H46.1021V13.25H45.2501V6.938ZM55.9997 9.17C56.7917 9.178 57.3957 9.354 57.8117 9.698C58.2277 10.042 58.4357 10.538 58.4357 11.186C58.4357 11.858 58.2117 12.374 57.7637 12.734C57.3157 13.094 56.6757 13.27 55.8437 13.262L53.3477 13.25V6.938H54.1997V9.146L55.9997 9.17ZM59.4917 6.938H60.3437V13.25H59.4917V6.938ZM55.7957 12.614C56.3797 12.622 56.8197 12.506 57.1157 12.266C57.4197 12.018 57.5717 11.658 57.5717 11.186C57.5717 10.722 57.4237 10.378 57.1277 10.154C56.8317 9.93 56.3877 9.814 55.7957 9.806L54.1997 9.782V12.59L55.7957 12.614ZM68.2896 10.358H63.0096C63.0576 11.014 63.3096 11.546 63.7656 11.954C64.2216 12.354 64.7976 12.554 65.4936 12.554C65.8856 12.554 66.2456 12.486 66.5736 12.35C66.9016 12.206 67.1856 11.998 67.4256 11.726L67.9056 12.278C67.6256 12.614 67.2736 12.87 66.8496 13.046C66.4336 13.222 65.9736 13.31 65.4696 13.31C64.8216 13.31 64.2456 13.174 63.7416 12.902C63.2456 12.622 62.8576 12.238 62.5776 11.75C62.2976 11.262 62.1576 10.71 62.1576 10.094C62.1576 9.478 62.2896 8.926 62.5536 8.438C62.8256 7.95 63.1936 7.57 63.6576 7.298C64.1296 7.026 64.6576 6.89 65.2416 6.89C65.8256 6.89 66.3496 7.026 66.8136 7.298C67.2776 7.57 67.6416 7.95 67.9056 8.438C68.1696 8.918 68.3016 9.47 68.3016 10.094L68.2896 10.358ZM65.2416 7.622C64.6336 7.622 64.1216 7.818 63.7056 8.21C63.2976 8.594 63.0656 9.098 63.0096 9.722H67.4856C67.4296 9.098 67.1936 8.594 66.7776 8.21C66.3696 7.818 65.8576 7.622 65.2416 7.622ZM73.3282 6.938H74.1802V11.954L78.3922 6.938H79.1482V13.25H78.2962V8.234L74.0962 13.25H73.3282V6.938ZM87.0226 10.442H85.5826V13.25H84.7306V6.938H85.5826V9.71H87.0346L89.2546 6.938H90.1786L87.6946 9.998L90.3586 13.25H89.3506L87.0226 10.442ZM94.0846 13.31C93.4766 13.31 92.9286 13.174 92.4406 12.902C91.9526 12.622 91.5686 12.238 91.2886 11.75C91.0086 11.262 90.8686 10.71 90.8686 10.094C90.8686 9.478 91.0086 8.926 91.2886 8.438C91.5686 7.95 91.9526 7.57 92.4406 7.298C92.9286 7.026 93.4766 6.89 94.0846 6.89C94.6926 6.89 95.2406 7.026 95.7286 7.298C96.2166 7.57 96.5966 7.95 96.8686 8.438C97.1486 8.926 97.2886 9.478 97.2886 10.094C97.2886 10.71 97.1486 11.262 96.8686 11.75C96.5966 12.238 96.2166 12.622 95.7286 12.902C95.2406 13.174 94.6926 13.31 94.0846 13.31ZM94.0846 12.554C94.5326 12.554 94.9326 12.454 95.2846 12.254C95.6446 12.046 95.9246 11.754 96.1246 11.378C96.3246 11.002 96.4246 10.574 96.4246 10.094C96.4246 9.614 96.3246 9.186 96.1246 8.81C95.9246 8.434 95.6446 8.146 95.2846 7.946C94.9326 7.738 94.5326 7.634 94.0846 7.634C93.6366 7.634 93.2326 7.738 92.8726 7.946C92.5206 8.146 92.2406 8.434 92.0326 8.81C91.8326 9.186 91.7326 9.614 91.7326 10.094C91.7326 10.574 91.8326 11.002 92.0326 11.378C92.2406 11.754 92.5206 12.046 92.8726 12.254C93.2326 12.454 93.6366 12.554 94.0846 12.554ZM101.401 10.442H99.9615V13.25H99.1095V6.938H99.9615V9.71H101.413L103.633 6.938H104.557L102.073 9.998L104.737 13.25H103.729L101.401 10.442ZM110.393 7.694H108.005V13.25H107.153V7.694H104.765V6.938H110.393V7.694ZM116.852 10.358H111.572C111.62 11.014 111.872 11.546 112.328 11.954C112.784 12.354 113.36 12.554 114.056 12.554C114.448 12.554 114.808 12.486 115.136 12.35C115.464 12.206 115.748 11.998 115.988 11.726L116.468 12.278C116.188 12.614 115.836 12.87 115.412 13.046C114.996 13.222 114.536 13.31 114.032 13.31C113.384 13.31 112.808 13.174 112.304 12.902C111.808 12.622 111.42 12.238 111.14 11.75C110.86 11.262 110.72 10.71 110.72 10.094C110.72 9.478 110.852 8.926 111.116 8.438C111.388 7.95 111.756 7.57 112.22 7.298C112.692 7.026 113.22 6.89 113.804 6.89C114.388 6.89 114.912 7.026 115.376 7.298C115.84 7.57 116.204 7.95 116.468 8.438C116.732 8.918 116.864 9.47 116.864 10.094L116.852 10.358ZM113.804 7.622C113.196 7.622 112.684 7.818 112.268 8.21C111.86 8.594 111.628 9.098 111.572 9.722H116.048C115.992 9.098 115.756 8.594 115.34 8.21C114.932 7.818 114.42 7.622 113.804 7.622ZM118.75 6.938H119.602V11.954L123.814 6.938H124.57V13.25H123.718V8.234L119.518 13.25H118.75V6.938ZM121.618 6.026C121.074 6.026 120.642 5.89 120.322 5.618C120.002 5.346 119.838 4.962 119.83 4.466H120.442C120.45 4.778 120.562 5.03 120.778 5.222C120.994 5.406 121.274 5.498 121.618 5.498C121.962 5.498 122.242 5.406 122.458 5.222C122.682 5.03 122.798 4.778 122.806 4.466H123.418C123.41 4.962 123.242 5.346 122.914 5.618C122.594 5.89 122.162 6.026 121.618 6.026ZM132.172 6.938V13.25H131.32V7.694H128.296L128.212 9.254C128.148 10.566 127.996 11.574 127.756 12.278C127.516 12.982 127.088 13.334 126.472 13.334C126.304 13.334 126.1 13.302 125.86 13.238L125.92 12.506C126.064 12.538 126.164 12.554 126.22 12.554C126.548 12.554 126.796 12.402 126.964 12.098C127.132 11.794 127.244 11.418 127.3 10.97C127.356 10.522 127.404 9.93 127.444 9.194L127.552 6.938H132.172ZM137.306 9.17C138.098 9.178 138.698 9.354 139.106 9.698C139.522 10.042 139.73 10.538 139.73 11.186C139.73 11.858 139.506 12.374 139.058 12.734C138.618 13.094 137.978 13.27 137.138 13.262L134.594 13.25V6.938H135.446V9.146L137.306 9.17ZM137.09 12.614C137.674 12.622 138.114 12.506 138.41 12.266C138.714 12.018 138.866 11.658 138.866 11.186C138.866 10.722 138.718 10.378 138.422 10.154C138.126 9.93 137.682 9.814 137.09 9.806L135.446 9.782V12.59L137.09 12.614ZM141.356 6.938H142.208V9.734H146.18V6.938H147.032V13.25H146.18V10.466H142.208V13.25H141.356V6.938ZM152.105 9.17C152.897 9.178 153.501 9.354 153.917 9.698C154.333 10.042 154.541 10.538 154.541 11.186C154.541 11.858 154.317 12.374 153.869 12.734C153.421 13.094 152.781 13.27 151.949 13.262L149.453 13.25V6.938H150.305V9.146L152.105 9.17ZM155.597 6.938H156.449V13.25H155.597V6.938ZM151.901 12.614C152.485 12.622 152.925 12.506 153.221 12.266C153.525 12.018 153.677 11.658 153.677 11.186C153.677 10.722 153.529 10.378 153.233 10.154C152.937 9.93 152.493 9.814 151.901 9.806L150.305 9.782V12.59L151.901 12.614ZM164.395 10.358H159.115C159.163 11.014 159.415 11.546 159.871 11.954C160.327 12.354 160.903 12.554 161.599 12.554C161.991 12.554 162.351 12.486 162.679 12.35C163.007 12.206 163.291 11.998 163.531 11.726L164.011 12.278C163.731 12.614 163.379 12.87 162.955 13.046C162.539 13.222 162.079 13.31 161.575 13.31C160.927 13.31 160.351 13.174 159.847 12.902C159.351 12.622 158.963 12.238 158.683 11.75C158.403 11.262 158.263 10.71 158.263 10.094C158.263 9.478 158.395 8.926 158.659 8.438C158.931 7.95 159.299 7.57 159.763 7.298C160.235 7.026 160.763 6.89 161.347 6.89C161.931 6.89 162.455 7.026 162.919 7.298C163.383 7.57 163.747 7.95 164.011 8.438C164.275 8.918 164.407 9.47 164.407 10.094L164.395 10.358ZM161.347 7.622C160.739 7.622 160.227 7.818 159.811 8.21C159.403 8.594 159.171 9.098 159.115 9.722H163.591C163.535 9.098 163.299 8.594 162.883 8.21C162.475 7.818 161.963 7.622 161.347 7.622Z" fill="#8759F2"/>
<path d="M178.511 8.71594L175.212 12.0149C174.823 12.403 174.195 12.4057 173.803 12.0209L170.511 8.78399" stroke="#8759F2" stroke-linecap="round" stroke-linejoin="round"/>
</svg>
