<svg width="43" height="23" viewBox="0 0 43 23" fill="none" xmlns="http://www.w3.org/2000/svg">
<path d="M3.27499 5.62075C3.1024 5.33574 3.19202 4.96787 3.47745 4.79222C8.63844 1.65706 14.8715 0 21.5028 0C28.1307 0 34.3638 1.65706 39.5281 4.79222C39.8135 4.96455 39.9031 5.33574 39.7305 5.62075C39.5579 5.90576 39.1862 5.99525 38.9008 5.82291C33.9987 2.84352 27.8188 1.20303 21.5028 1.20303C15.1868 1.20303 9.00685 2.84352 4.10473 5.82291C4.00848 5.88257 3.89896 5.91239 3.79275 5.91239C3.58697 5.91239 3.38784 5.80965 3.27499 5.62075ZM42.9333 12.9019V13.0643C42.9333 13.2001 42.8869 13.336 42.8006 13.4421C37.9814 19.4274 30.0192 23 21.4994 23C12.9332 23 4.94443 19.3976 0.131929 13.3592C-0.0439763 13.1405 -0.0439763 12.829 0.131929 12.6102C4.94443 6.57522 12.9332 2.96945 21.4994 2.96945C30.0192 2.96945 37.9814 6.54207 42.8006 12.5274C42.8869 12.6334 42.9333 12.766 42.9333 12.9019ZM41.619 12.9847C37.0023 7.46009 29.5147 4.17248 21.4994 4.17248C13.4775 4.17248 5.99654 7.45677 1.37986 12.9847C5.99654 18.5094 13.4775 21.797 21.4994 21.797C29.5147 21.797 37.0023 18.5094 41.619 12.9847ZM24.2011 8.43775C23.9156 8.26542 23.5439 8.35821 23.3747 8.64323L18.5256 16.7065C18.3531 16.9915 18.446 17.3627 18.7314 17.5317C18.8277 17.5914 18.9372 17.6179 19.0401 17.6179C19.2459 17.6179 19.445 17.5151 19.5578 17.3262L24.4069 9.26297C24.5794 8.97795 24.4865 8.60677 24.2011 8.43775ZM17.8552 13.4553C16.4447 13.4553 15.2996 12.3086 15.2996 10.9035C15.2996 9.49827 16.448 8.35158 17.8552 8.35158C19.2625 8.35158 20.4108 9.49827 20.4108 10.9035C20.4108 12.3086 19.2658 13.4553 17.8552 13.4553ZM19.206 10.9035C19.206 10.1611 18.5987 9.55461 17.8552 9.55461C17.1118 9.55461 16.5044 10.1611 16.5044 10.9035C16.5044 11.6458 17.1118 12.2523 17.8552 12.2523C18.5987 12.2523 19.206 11.6458 19.206 10.9035ZM27.6329 15.066C27.6329 16.4745 26.4845 17.6179 25.0773 17.6179C23.67 17.6179 22.5217 16.4712 22.5217 15.066C22.5217 13.6608 23.67 12.5141 25.0773 12.5141C26.4845 12.5141 27.6329 13.6575 27.6329 15.066ZM26.4281 15.066C26.4281 14.3236 25.8207 13.7171 25.0773 13.7171C24.3338 13.7171 23.7265 14.3236 23.7265 15.066C23.7265 15.8084 24.3338 16.4148 25.0773 16.4148C25.8207 16.4148 26.4281 15.8084 26.4281 15.066Z" fill="black"/>
<path d="M21.4634 23C15.97 23 11.5 18.3982 11.5 12.7427C11.5 8.44718 14.1323 4.57249 18.0496 3.10475C18.357 2.9903 18.6971 3.15188 18.8115 3.46832C18.926 3.78476 18.7657 4.13486 18.4584 4.25269C15.0086 5.54874 12.6902 8.95887 12.6902 12.7427C12.6902 17.7249 16.6272 21.778 21.4667 21.778C26.3061 21.778 30.2431 17.7249 30.2431 12.7427C30.2431 8.95887 27.9247 5.54874 24.475 4.25269C24.1676 4.13823 24.0074 3.78476 24.1218 3.46832C24.2363 3.15188 24.5731 2.98693 24.8837 3.10475C28.8011 4.57586 31.4333 8.45055 31.4333 12.7427C31.4268 18.3982 26.9568 23 21.4634 23Z" fill="url(#paint0_linear_197_6340)"/>
<defs>
<linearGradient id="paint0_linear_197_6340" x1="14.4207" y1="5.49181" x2="28.9141" y2="19.5699" gradientUnits="userSpaceOnUse">
<stop stop-color="#F9B90C"/>
<stop offset="0.25" stop-color="#F73172"/>
<stop offset="0.5" stop-color="#8259ED"/>
<stop offset="0.75" stop-color="#0091F8"/>
<stop offset="1" stop-color="#26F400"/>
</linearGradient>
</defs>
</svg>
