<svg width="42" height="42" viewBox="0 0 42 42" fill="none" xmlns="http://www.w3.org/2000/svg">
<path d="M2.34316 35.1491V36.4459C2.34316 36.7899 2.06454 37.0719 1.71711 37.0719C1.36969 37.0719 1.09106 36.7933 1.09106 36.4459V35.1491C1.09106 34.8051 1.36969 34.523 1.71711 34.523C2.06454 34.523 2.34316 34.8016 2.34316 35.1491ZM14.5443 34.523C14.2003 34.523 13.9182 34.8016 13.9182 35.1491V36.4459C13.9182 36.7899 14.1968 37.0719 14.5443 37.0719C14.8917 37.0719 15.1703 36.7933 15.1703 36.4459V35.1491C15.1669 34.8016 14.8882 34.523 14.5443 34.523ZM15.1669 7.21759V32.411C15.1669 33.4979 14.2828 34.3785 13.1993 34.3785H3.06209C1.9751 34.3785 1.09451 33.4945 1.09451 32.411V7.21759C1.09451 6.1306 1.97854 5.25 3.06209 5.25H13.1993C14.2863 5.25 15.1669 6.13404 15.1669 7.21759ZM13.9182 7.21759C13.9182 6.82201 13.5949 6.49866 13.1993 6.49866H3.06209C2.66651 6.49866 2.34316 6.82201 2.34316 7.21759V32.411C2.34316 32.8065 2.66651 33.1299 3.06209 33.1299H13.1993C13.5949 33.1299 13.9182 32.8065 13.9182 32.411V7.21759Z" fill="url(#paint0_linear_3092_2293)"/>
<path d="M14.5442 20.4403H1.72053C1.37655 20.4403 1.09448 20.1617 1.09448 19.8143C1.09448 19.4669 1.37311 19.1882 1.72053 19.1882H14.5442C14.8882 19.1882 15.1703 19.4669 15.1703 19.8143C15.1703 20.1617 14.8882 20.4403 14.5442 20.4403Z" fill="url(#paint1_linear_3092_2293)"/>
<path d="M17.757 35.1491V36.4459C17.757 36.7899 17.4784 37.0719 17.1309 37.0719C16.7835 37.0719 16.5049 36.7933 16.5049 36.4459V35.1491C16.5049 34.8051 16.7835 34.523 17.1309 34.523C17.4784 34.523 17.757 34.8016 17.757 35.1491ZM28.6131 5.25H18.4794C17.3924 5.25 16.5118 6.13404 16.5118 7.21759V28.5755V32.411C16.5118 33.4979 17.3958 34.3785 18.4794 34.3785H23.8661C24.2101 34.3785 24.4922 34.0999 24.4922 33.7525C24.4922 33.4051 24.2136 33.1264 23.8661 33.1264H18.4794C18.0838 33.1264 17.7604 32.8031 17.7604 32.4075V28.5721V7.21759C17.7604 6.82201 18.0838 6.49866 18.4794 6.49866H28.6165C29.0121 6.49866 29.3355 6.82201 29.3355 7.21759V13.1272C29.3355 13.4712 29.6141 13.7533 29.9615 13.7533C30.3089 13.7533 30.5876 13.4746 30.5876 13.1272V7.21759C30.5841 6.13404 29.7001 5.25 28.6131 5.25Z" fill="url(#paint2_linear_3092_2293)"/>
<path d="M23.8661 20.4403H17.1344C16.7904 20.4403 16.5083 20.1617 16.5083 19.8143C16.5083 19.4669 16.7869 19.1882 17.1344 19.1882H23.8661C24.2101 19.1882 24.4922 19.4669 24.4922 19.8143C24.4922 20.1617 24.2101 20.4403 23.8661 20.4403Z" fill="url(#paint3_linear_3092_2293)"/>
<path d="M39.3064 17.1324H34.3046V15.9723C34.3046 15.1285 33.6875 14.4375 32.9268 14.4375H27.6278C26.8703 14.4375 26.25 15.1249 26.25 15.9723V24.0497C26.25 24.8935 26.8671 25.5808 27.6278 25.5808H29.7957V34.8257H28.7673C27.4939 34.8257 26.459 35.9786 26.459 37.397C26.459 37.7606 26.7234 38.0589 27.0532 38.0589C27.3829 38.0589 27.6474 37.7643 27.6474 37.397C27.6474 36.706 28.1502 36.1459 28.7705 36.1459H31.7873C32.4076 36.1459 32.9104 36.706 32.9104 37.397C32.9104 37.7606 33.1749 38.0589 33.5047 38.0589C33.8344 38.0589 34.0989 37.7643 34.0989 37.397C34.0989 35.9786 33.0639 34.8257 31.7873 34.8257H30.9841V25.5808H32.93C33.6875 25.5808 34.3078 24.8935 34.3078 24.0497V22.504H35.7248V37.4006C35.7248 37.7643 35.9893 38.0625 36.319 38.0625C36.6488 38.0625 36.9132 37.7679 36.9132 37.4006V22.504H39.313C40.0704 22.504 40.6875 21.8167 40.6875 20.9693V18.6635C40.6842 17.8198 40.0672 17.1324 39.3064 17.1324ZM32.93 24.2606H27.6311C27.5266 24.2606 27.4417 24.1661 27.4417 24.0497V15.9723C27.4417 15.8559 27.5266 15.7613 27.6311 15.7613H32.93C33.0345 15.7613 33.1194 15.8559 33.1194 15.9723V17.2488C32.6917 17.4415 31.8428 17.9434 30.0634 19.2672C29.8969 19.3909 29.799 19.5946 29.799 19.8164C29.799 20.0383 29.8969 20.2419 30.0634 20.3656C31.8461 21.6894 32.6917 22.1913 33.1194 22.384V24.0497C33.1194 24.1661 33.0345 24.2606 32.93 24.2606ZM39.4991 20.9693C39.4991 21.0857 39.4142 21.1802 39.3097 21.1802H33.5993C33.3218 21.082 32.4011 20.4747 31.4771 19.8164C32.4044 19.1581 33.3218 18.5508 33.6026 18.4526H39.3097C39.4142 18.4526 39.4991 18.5471 39.4991 18.6635V20.9693Z" fill="black"/>
<defs>
<linearGradient id="paint0_linear_3092_2293" x1="-2.96134" y1="10.4607" x2="19.2245" y2="32.6465" gradientUnits="userSpaceOnUse">
<stop stop-color="#F9B90C"/>
<stop offset="0.25" stop-color="#F73172"/>
<stop offset="0.5" stop-color="#8259ED"/>
<stop offset="0.75" stop-color="#0091F8"/>
<stop offset="1" stop-color="#26F400"/>
</linearGradient>
<linearGradient id="paint1_linear_3092_2293" x1="4.48389" y1="16.1674" x2="11.7793" y2="23.4628" gradientUnits="userSpaceOnUse">
<stop stop-color="#F9B90C"/>
<stop offset="0.25" stop-color="#F73172"/>
<stop offset="0.5" stop-color="#8259ED"/>
<stop offset="0.75" stop-color="#0091F8"/>
<stop offset="1" stop-color="#26F400"/>
</linearGradient>
<linearGradient id="paint2_linear_3092_2293" x1="12.453" y1="10.4607" x2="30.2484" y2="28.2561" gradientUnits="userSpaceOnUse">
<stop stop-color="#F9B90C"/>
<stop offset="0.25" stop-color="#F73172"/>
<stop offset="0.5" stop-color="#8259ED"/>
<stop offset="0.75" stop-color="#0091F8"/>
<stop offset="1" stop-color="#26F400"/>
</linearGradient>
<linearGradient id="paint3_linear_3092_2293" x1="18.3752" y1="17.6905" x2="22.6244" y2="21.9397" gradientUnits="userSpaceOnUse">
<stop stop-color="#F9B90C"/>
<stop offset="0.25" stop-color="#F73172"/>
<stop offset="0.5" stop-color="#8259ED"/>
<stop offset="0.75" stop-color="#0091F8"/>
<stop offset="1" stop-color="#26F400"/>
</linearGradient>
</defs>
</svg>
