<svg width="42" height="42" viewBox="0 0 42 42" fill="none" xmlns="http://www.w3.org/2000/svg">
<path d="M21.0513 6.90033C20.8184 6.66739 20.8184 6.29009 21.0513 6.05715C21.2842 5.82421 21.6615 5.82421 21.8945 6.05715L23.2593 7.42198C22.9575 7.68116 22.6753 7.96332 22.4161 8.26515L21.0513 6.90033ZM34.2895 8.26515L35.6543 6.90033C35.8872 6.66739 35.8872 6.29009 35.6543 6.05715C35.4213 5.82421 35.044 5.82421 34.8111 6.05715L33.4463 7.42198C33.7481 7.68116 34.0303 7.96332 34.2895 8.26515ZM20.5231 13.357C20.5231 13.1569 20.5395 12.96 20.5526 12.7599H18.6235C18.2954 12.7599 18.0264 13.0256 18.0264 13.357C18.0264 13.6851 18.2921 13.9541 18.6235 13.9541H20.5526C20.5395 13.7573 20.5231 13.5604 20.5231 13.357ZM28.3511 5.52894C28.5513 5.52894 28.7481 5.54534 28.9483 5.55847V3.62934C28.9483 3.30126 28.6825 3.03223 28.3511 3.03223C28.0198 3.03223 27.754 3.29797 27.754 3.62934V5.55847C27.9542 5.54534 28.151 5.52894 28.3511 5.52894ZM22.4161 18.4521L21.0513 19.817C20.8184 20.0499 20.8184 20.4272 21.0513 20.6601C21.1661 20.775 21.3203 20.834 21.4712 20.834C21.6222 20.834 21.7764 20.775 21.8912 20.6601L23.256 19.2953C22.9575 19.0361 22.6753 18.754 22.4161 18.4521ZM38.0821 12.7632H36.153C36.1694 12.96 36.1825 13.1569 36.1825 13.3603C36.1825 13.5604 36.1661 13.7573 36.153 13.9574H38.0821C38.4102 13.9574 38.6792 13.6916 38.6792 13.3603C38.6759 13.0289 38.4102 12.7632 38.0821 12.7632ZM34.2895 18.4521C34.0303 18.754 33.7481 19.0361 33.4463 19.2953L34.8111 20.6601C34.9259 20.775 35.0801 20.834 35.2311 20.834C35.382 20.834 35.5362 20.775 35.651 20.6601C35.8839 20.4272 35.8839 20.0499 35.651 19.817L34.2895 18.4521ZM28.3511 21.1883C28.151 21.1883 27.9542 21.1719 27.754 21.1588V23.0879C27.754 23.416 28.0198 23.6851 28.3511 23.6851C28.6825 23.6851 28.9483 23.4193 28.9483 23.0879V21.1588C28.7514 21.1719 28.5546 21.1883 28.3511 21.1883Z" fill="url(#paint0_linear_3092_2045)"/>
<path d="M28.3511 19.8464C24.7717 19.8464 21.8616 16.9363 21.8616 13.3569C21.8616 9.77753 24.7717 6.86743 28.3511 6.86743C31.9304 6.86743 34.8405 9.77753 34.8405 13.3569C34.8405 16.9363 31.9304 19.8464 28.3511 19.8464ZM28.3511 8.06165C25.4311 8.06165 23.0525 10.437 23.0525 13.3602C23.0525 16.2801 25.4278 18.6587 28.3511 18.6587C31.2743 18.6587 33.6496 16.2801 33.6496 13.3569C33.6496 10.437 31.2743 8.06165 28.3511 8.06165Z" fill="url(#paint1_linear_3092_2045)"/>
<path d="M41.4053 32.0859H38.7067V29.5647C38.7067 29.2221 38.4449 28.9412 38.1185 28.9412H18.8499C18.5267 28.9412 18.2617 29.2187 18.2617 29.5647V32.0859H14.5903L14.3931 30.7225C14.2445 29.6914 13.4236 28.9412 12.4379 28.9412H10.2369H9.49036H7.28944C6.30371 28.9412 5.48281 29.6914 5.33415 30.7225L5.19517 31.6988C4.54233 31.2912 4.07047 30.5889 3.9412 29.7462L2.47715 20.2094C2.42544 19.8703 2.12164 19.6408 1.80492 19.6956C1.48496 19.7504 1.26842 20.069 1.32013 20.4081L2.78418 29.9415C2.99749 31.3357 3.8604 32.4558 5.01096 32.9868L4.00584 39.9681C3.95736 40.3073 4.17713 40.6258 4.49708 40.6772C4.52617 40.6806 4.55849 40.6841 4.58758 40.6841C4.87198 40.6841 5.12407 40.4648 5.16609 40.1565L5.61855 37.0084H14.112L14.5644 40.1565C14.6097 40.4648 14.8585 40.6841 15.1429 40.6841C15.172 40.6841 15.2011 40.6806 15.2334 40.6772C15.5534 40.6258 15.7732 40.3073 15.7247 39.9681L14.768 33.3294H18.2617V40.064C18.2617 40.4066 18.5235 40.6875 18.8499 40.6875C19.1764 40.6875 19.4381 40.41 19.4381 40.064V33.3294H20.6598C21.9558 33.3294 23.0482 34.3159 23.2582 35.6725L23.9466 40.1634C23.9951 40.4683 24.244 40.6841 24.5251 40.6841C24.5575 40.6841 24.5898 40.6806 24.6189 40.6772C24.9388 40.6224 25.1554 40.3038 25.1037 39.9647L24.4153 35.4738C24.1147 33.5109 22.5343 32.0859 20.6598 32.0859H19.4381V30.1847H37.5335V32.0859H27.951C27.6278 32.0859 27.3627 32.3634 27.3627 32.7093V40.064C27.3627 40.4066 27.6245 40.6875 27.951 40.6875C28.2774 40.6875 28.5392 40.41 28.5392 40.064V33.3294H37.5368V40.064C37.5368 40.4066 37.7985 40.6875 38.125 40.6875C38.4514 40.6875 38.7132 40.41 38.7132 40.064V33.3294H40.8236V40.064C40.8236 40.4066 41.0854 40.6875 41.4118 40.6875C41.7382 40.6875 42 40.41 42 40.064V32.7093C41.9903 32.3668 41.7285 32.0859 41.4053 32.0859ZM6.4944 30.9109C6.5558 30.493 6.88869 30.1881 7.28944 30.1881H9.49036H10.2369H12.4379C12.8386 30.1881 13.1715 30.493 13.2329 30.9109L13.401 32.0859H8.69855H6.53964C6.46854 32.0859 6.39744 32.0825 6.32957 32.0756L6.4944 30.9109ZM13.931 35.7649H5.79631L6.14858 33.3088C6.27786 33.3225 6.40713 33.3294 6.53641 33.3294H8.69532H13.5819L13.931 35.7649Z" fill="black"/>
<defs>
<linearGradient id="paint0_linear_3092_2045" x1="21.0522" y1="6.05837" x2="35.6526" y2="20.6588" gradientUnits="userSpaceOnUse">
<stop stop-color="#F9B90C"/>
<stop offset="0.25" stop-color="#F73172"/>
<stop offset="0.5" stop-color="#8259ED"/>
<stop offset="0.75" stop-color="#0091F8"/>
<stop offset="1" stop-color="#26F400"/>
</linearGradient>
<linearGradient id="paint1_linear_3092_2045" x1="23.7659" y1="8.77202" x2="32.9388" y2="17.945" gradientUnits="userSpaceOnUse">
<stop stop-color="#F9B90C"/>
<stop offset="0.25" stop-color="#F73172"/>
<stop offset="0.5" stop-color="#8259ED"/>
<stop offset="0.75" stop-color="#0091F8"/>
<stop offset="1" stop-color="#26F400"/>
</linearGradient>
</defs>
</svg>
