<svg width="42" height="42" viewBox="0 0 42 42" fill="none" xmlns="http://www.w3.org/2000/svg">
<path d="M5.97701 24.0682H3.25329C2.90808 24.0682 2.625 23.7886 2.625 23.44V1.71227C2.625 1.36706 2.90462 1.08398 3.25329 1.08398H25.3952C25.7404 1.08398 26.0235 1.36361 26.0235 1.71227V10.4738C26.0235 10.819 25.7439 11.1021 25.3952 11.1021C25.0466 11.1021 24.7669 10.8224 24.7669 10.4738V2.34056H3.88157V22.8151H5.97701C6.32223 22.8151 6.6053 23.0947 6.6053 23.4434C6.6053 23.7921 6.32568 24.0682 5.97701 24.0682Z" fill="url(#paint0_linear_3092_2100)"/>
<path d="M16.2264 21.3721H6.46032C6.11511 21.3721 5.83203 21.0924 5.83203 20.7438V4.40832C5.83203 4.0631 6.11165 3.78003 6.46032 3.78003H22.1951C22.5403 3.78003 22.8234 4.05965 22.8234 4.40832V10.4737C22.8234 10.8189 22.5438 11.102 22.1951 11.102C21.8464 11.102 21.5668 10.8224 21.5668 10.4737V5.03315H7.08515V20.1189H16.2264C16.5716 20.1189 16.8547 20.3986 16.8547 20.7472C16.8547 21.0959 16.5716 21.3721 16.2264 21.3721Z" fill="url(#paint1_linear_3092_2100)"/>
<path d="M34.9866 6.5625C31.8517 6.5625 29.2994 9.15449 29.2994 12.3382C29.2994 12.6843 29.5754 12.9681 29.9196 12.9681H34.3699V37.7148H32.0493C31.6949 37.7148 31.3576 37.7979 31.0577 37.9467V29.7451C31.0577 29.399 30.7817 29.1152 30.4375 29.1152H25.4591C25.6874 28.2224 26.4677 25.1148 26.5563 24.2254L26.6551 23.2322C26.696 22.8377 26.5666 22.4397 26.3042 22.1456C26.0418 21.8514 25.667 21.6819 25.2751 21.6819H23.8746C23.8916 21.6265 23.9018 21.5677 23.9018 21.5088V20.9136C23.9018 20.8548 23.8916 20.796 23.8746 20.7441H27.3673C27.7558 20.7441 28.1272 20.5779 28.3896 20.2907C28.652 20 28.7849 19.6124 28.7542 19.2214L28.2942 12.8331C28.2363 12.1029 27.6263 11.5319 26.9073 11.5319H19.656C18.9336 11.5319 18.3237 12.1029 18.2691 12.8366L17.8091 19.2145C17.7784 19.6055 17.9113 19.9966 18.1737 20.2873C18.4361 20.5779 18.8109 20.7406 19.196 20.7406H22.6887C22.6751 20.796 22.6615 20.8513 22.6615 20.9102V21.5054C22.6615 21.5677 22.6717 21.623 22.6887 21.6784H21.2882C20.8964 21.6784 20.5215 21.848 20.2591 22.1421C19.9968 22.4363 19.8673 22.8343 19.9082 23.2288L20.007 24.222C20.0956 25.1182 20.8895 28.2709 21.1042 29.1118H17.9761C18.5758 28.6377 19.0972 28.0425 19.5129 27.34C19.6288 27.1462 19.6322 26.9039 19.5197 26.7067C19.4107 26.5094 19.2028 26.3883 18.9813 26.3883H13.4065C13.536 25.1182 13.3691 23.8101 12.8988 22.4813C12.8102 22.2321 12.5785 22.066 12.3161 22.066H8.55076C8.28837 22.066 8.05666 22.2321 7.96806 22.4813C6.88105 25.5404 7.60686 27.859 8.25089 29.1152H3.24518C2.90442 29.1152 2.625 29.3956 2.625 29.7451V40.0577C2.625 40.4037 2.90101 40.6875 3.24518 40.6875H7.15365C7.49441 40.6875 7.77383 40.4072 7.77383 40.0577V34.3096H25.9123V40.0577C25.9123 40.4037 26.1883 40.6875 26.5325 40.6875H30.441C30.7817 40.6875 31.0611 40.4072 31.0611 40.0577V39.6528C31.2179 39.2514 31.6029 38.9676 32.0527 38.9676H37.7093C38.2988 38.9676 38.7793 39.4555 38.7793 40.0542C38.7793 40.4003 39.0553 40.684 39.3994 40.684C39.7436 40.684 40.0196 40.4037 40.0196 40.0542C40.0196 38.7599 38.9837 37.7114 37.7127 37.7114H35.6136V12.9646H36.7279V14.5738C36.7279 14.9199 37.0039 15.2036 37.3481 15.2036C37.6923 15.2036 37.9683 14.9233 37.9683 14.5738V12.9646H40.0673C40.4081 12.9646 40.6875 12.6843 40.6875 12.3348C40.6739 9.15449 38.1216 6.5625 34.9866 6.5625ZM19.0835 19.4325C19.0631 19.4083 19.0392 19.3702 19.0426 19.3079L19.5027 12.93C19.5095 12.8504 19.5776 12.7847 19.656 12.7847H26.9073C26.9891 12.7847 27.0572 12.847 27.0606 12.9265L27.5207 19.3148C27.5241 19.3702 27.5002 19.4117 27.4798 19.4325C27.4593 19.4567 27.4219 19.4844 27.3673 19.4844H19.196C19.1415 19.4844 19.104 19.4567 19.0835 19.4325ZM21.1792 22.99C21.1996 22.9658 21.2337 22.9415 21.2882 22.9415H25.2751C25.3296 22.9415 25.3637 22.9692 25.3841 22.99C25.4046 23.0142 25.4284 23.0523 25.4216 23.1076L25.3228 24.1008C25.2478 24.8518 24.4913 27.9006 24.2119 29.0287H23.2817L22.3582 29.0114C22.072 27.9006 21.3155 24.8518 21.2405 24.1008L21.1417 23.1076C21.1349 23.0488 21.1587 23.0107 21.1792 22.99ZM14.4118 29.1152C13.1544 29.1152 11.972 28.5823 11.086 27.648H12.6909H12.6944H17.7376C16.8516 28.5823 15.6658 29.1152 14.4118 29.1152ZM8.99374 23.3222H11.8697C12.1866 24.3708 12.282 25.3986 12.1628 26.3883H9.83541C9.61392 26.3883 9.40605 26.5094 9.29701 26.7067C9.18797 26.9039 9.19138 27.1462 9.30383 27.34C9.71955 28.0425 10.2443 28.6377 10.8406 29.1118H9.68888C9.24249 28.4716 8.06688 26.3918 8.99374 23.3222ZM26.5291 33.05H7.15365C6.8129 33.05 6.53348 33.3303 6.53348 33.6798V39.4278H3.86195V30.3714H29.814V39.4278H27.1424V33.6798C27.1458 33.3337 26.8698 33.05 26.5291 33.05ZM30.5773 11.7084C30.8805 9.51439 32.7411 7.8187 34.9832 7.8187C37.2254 7.8187 39.0894 9.51439 39.3892 11.7084H30.5773Z" fill="black"/>
<defs>
<linearGradient id="paint0_linear_3092_2100" x1="2.91536" y1="1.16576" x2="19.2539" y2="17.5043" gradientUnits="userSpaceOnUse">
<stop stop-color="#F9B90C"/>
<stop offset="0.25" stop-color="#F73172"/>
<stop offset="0.5" stop-color="#8259ED"/>
<stop offset="0.75" stop-color="#0091F8"/>
<stop offset="1" stop-color="#26F400"/>
</linearGradient>
<linearGradient id="paint1_linear_3092_2100" x1="5.86472" y1="4.11495" x2="19.8034" y2="18.0537" gradientUnits="userSpaceOnUse">
<stop stop-color="#F9B90C"/>
<stop offset="0.25" stop-color="#F73172"/>
<stop offset="0.5" stop-color="#8259ED"/>
<stop offset="0.75" stop-color="#0091F8"/>
<stop offset="1" stop-color="#26F400"/>
</linearGradient>
</defs>
</svg>
