<svg width="42" height="42" viewBox="0 0 42 42" fill="none" xmlns="http://www.w3.org/2000/svg">
<path d="M42 18.2154C42 18.5686 41.7108 18.8581 41.3501 18.8581C38.8682 18.8581 36.8506 16.8628 36.8506 14.4084C36.8506 9.34071 32.6833 5.21944 27.5589 5.21944C22.4346 5.21944 18.2744 9.34071 18.2744 14.4084C18.2744 16.8628 16.2568 18.8581 13.7749 18.8581C13.4178 18.8581 13.125 18.5721 13.125 18.2154C13.125 17.8587 13.4142 17.5727 13.7749 17.5727C15.539 17.5727 16.9745 16.153 16.9745 14.4084C16.9745 8.63441 21.7239 3.9375 27.5625 3.9375C33.4011 3.9375 38.1505 8.63441 38.1505 14.4084C38.1505 16.153 39.586 17.5727 41.3501 17.5727C41.7108 17.5727 42 17.8587 42 18.2154ZM37.4684 19.8893C37.1292 19.7834 36.7614 19.967 36.6542 20.3061C36.0829 22.0718 34.4402 23.2584 32.5655 23.2584H22.5703C20.6062 23.2584 18.8957 21.9447 18.4101 20.0659C18.3208 19.7234 17.9673 19.515 17.6209 19.6033C17.2745 19.6916 17.0638 20.0412 17.1531 20.3838C17.678 22.4144 19.2992 23.9329 21.2954 24.392L18.5565 37.2891C18.4815 37.6352 18.7065 37.9742 19.0564 38.0484C19.1028 38.059 19.1457 38.0625 19.1921 38.0625C19.4921 38.0625 19.7635 37.8541 19.8277 37.554L22.5917 24.5403H32.5476L35.3115 37.554C35.3758 37.8577 35.6436 38.0625 35.9472 38.0625C35.99 38.0625 36.0365 38.059 36.0829 38.0484C36.4328 37.9742 36.6578 37.6352 36.5828 37.2891L33.8439 24.3955C35.7329 23.9647 37.2863 22.5874 37.8969 20.6981C37.9969 20.3555 37.8077 19.9953 37.4684 19.8893Z" fill="black"/>
<path d="M21.1446 21.7619C20.7958 21.7619 20.5105 21.4801 20.5035 21.1313C20.4999 20.779 20.7818 20.4866 21.134 20.4831L34.5561 20.321C34.919 20.321 35.2008 20.5993 35.2044 20.9516C35.2079 21.3039 34.926 21.5963 34.5738 21.5998L21.1517 21.7619C21.1517 21.7619 21.1481 21.7619 21.1446 21.7619Z" fill="url(#paint0_linear_3092_1467)"/>
<path d="M4.383 38.0444C4.34072 38.0444 4.29492 38.0409 4.24913 38.0304C3.90389 37.9564 3.68195 37.6182 3.75593 37.2729L8.34269 15.4418C8.41667 15.0965 8.75487 14.8746 9.10011 14.9486C9.44535 15.0225 9.66728 15.3607 9.5933 15.706L5.00654 37.5371C4.94313 37.8401 4.67892 38.0444 4.383 38.0444Z" fill="url(#paint1_linear_3092_1467)"/>
<path d="M34.5668 16.2171H3.26616C2.91387 16.2171 2.625 15.9318 2.625 15.576C2.625 15.2202 2.91035 14.9348 3.26616 14.9348H34.5668C34.9191 14.9348 35.208 15.2202 35.208 15.576C35.208 15.9318 34.9226 16.2171 34.5668 16.2171Z" fill="url(#paint2_linear_3092_1467)"/>
<defs>
<linearGradient id="paint0_linear_3092_1467" x1="24.0904" y1="17.2711" x2="31.6245" y2="24.8052" gradientUnits="userSpaceOnUse">
<stop stop-color="#FEBE0C"/>
<stop offset="0.25" stop-color="#FC3172"/>
<stop offset="0.5" stop-color="#8759F2"/>
<stop offset="0.75" stop-color="#0096FD"/>
<stop offset="1" stop-color="#26F900"/>
</linearGradient>
<linearGradient id="paint1_linear_3092_1467" x1="1.91108" y1="21.727" x2="11.438" y2="31.2539" gradientUnits="userSpaceOnUse">
<stop stop-color="#FEBE0C"/>
<stop offset="0.25" stop-color="#FC3172"/>
<stop offset="0.5" stop-color="#8759F2"/>
<stop offset="0.75" stop-color="#0096FD"/>
<stop offset="1" stop-color="#26F900"/>
</linearGradient>
<linearGradient id="paint2_linear_3092_1467" x1="10.6398" y1="7.29811" x2="27.1951" y2="23.8534" gradientUnits="userSpaceOnUse">
<stop stop-color="#FEBE0C"/>
<stop offset="0.25" stop-color="#FC3172"/>
<stop offset="0.5" stop-color="#8759F2"/>
<stop offset="0.75" stop-color="#0096FD"/>
<stop offset="1" stop-color="#26F900"/>
</linearGradient>
</defs>
</svg>
