<svg width="43" height="42" viewBox="0 0 43 42" fill="none" xmlns="http://www.w3.org/2000/svg">
<path d="M38.6908 30.5092C38.3706 30.5092 38.108 30.2498 38.108 29.9264V9.97574C38.108 9.45696 37.6853 9.03745 37.1697 9.03745H5.05658C4.5378 9.03745 4.11829 9.46016 4.11829 9.97574V29.9264C4.11829 30.2466 3.8589 30.5092 3.53546 30.5092C3.21203 30.5092 2.95264 30.2498 2.95264 29.9264V9.97574C2.95264 8.81649 3.89413 7.875 5.05338 7.875H37.1665C38.3258 7.875 39.2673 8.81649 39.2673 9.97574V29.9264C39.2705 30.2498 39.0111 30.5092 38.6908 30.5092Z" fill="url(#paint0_linear_3092_2124)"/>
<path d="M38.6909 14.6158H3.53546C3.21523 14.6158 2.95264 14.3565 2.95264 14.033C2.95264 13.7096 3.21203 13.4502 3.53546 13.4502H38.6877C39.0079 13.4502 39.2705 13.7096 39.2705 14.033C39.2705 14.3565 39.0111 14.6158 38.6909 14.6158Z" fill="url(#paint1_linear_3092_2124)"/>
<path d="M33.9739 11.3013C33.9739 11.6792 33.6665 11.9898 33.2854 11.9898C32.9076 11.9898 32.5969 11.6824 32.5969 11.3013C32.5969 10.9234 32.9044 10.6128 33.2854 10.6128C33.6665 10.6128 33.9739 10.9234 33.9739 11.3013ZM30.8997 10.6128C30.5218 10.6128 30.2112 10.9202 30.2112 11.3013C30.2112 11.6792 30.5186 11.9898 30.8997 11.9898C31.2808 11.9898 31.5882 11.6824 31.5882 11.3013C31.5882 10.9234 31.2776 10.6128 30.8997 10.6128ZM35.6744 10.6128C35.2965 10.6128 34.9859 10.9202 34.9859 11.3013C34.9859 11.6792 35.2933 11.9898 35.6744 11.9898C36.0523 11.9898 36.3629 11.6824 36.3629 11.3013C36.3597 10.9234 36.0523 10.6128 35.6744 10.6128Z" fill="url(#paint2_linear_3092_2124)"/>
<path d="M6.90125 29.9295C6.90125 30.2497 6.64186 30.5123 6.31842 30.5123H1.42523C1.69103 31.678 2.73499 32.549 3.9775 32.549C4.29774 32.549 4.56033 32.8084 4.56033 33.1319C4.56033 33.4553 4.30094 33.7147 3.9775 33.7147C1.89277 33.7147 0.19873 32.0174 0.19873 29.9359C0.19873 29.6157 0.458121 29.3531 0.781558 29.3531H6.32483C6.64186 29.3467 6.90125 29.6061 6.90125 29.9295ZM41.4482 29.3467H34.8097C34.4895 29.3467 34.2269 29.6061 34.2269 29.9295C34.2269 30.2529 34.4863 30.5123 34.8097 30.5123H40.8013C40.5355 31.678 39.4916 32.549 38.2491 32.549H34.8834C34.5631 32.549 34.3006 32.8084 34.3006 33.1319C34.3006 33.4553 34.5599 33.7147 34.8834 33.7147H38.2491C40.3338 33.7147 42.0278 32.0174 42.0278 29.9359C42.031 29.6061 41.7716 29.3467 41.4482 29.3467Z" fill="url(#paint3_linear_3092_2124)"/>
<path d="M31.4166 17.0625H23.2621C22.4932 17.0625 21.8662 17.6549 21.8662 18.3814V23.8949C21.3243 23.7193 20.7508 23.6181 20.1521 23.6181H11.5816C11.2665 23.6181 11.0082 23.8592 11.0082 24.1599C11.0082 24.4606 11.2634 24.7017 11.5816 24.7017H20.1521C22.2128 24.7017 23.9805 26.1575 24.2609 28.0867L24.4531 29.4115H22.4365C22.4271 29.4115 22.4208 29.4144 22.4113 29.4144H11.6919V28.1968C11.6919 27.8991 11.4367 27.655 11.1184 27.655C10.8002 27.655 10.545 27.8961 10.545 28.1968V29.4383C6.8521 29.7211 3.9375 32.6476 3.9375 36.2082C3.9375 36.5059 4.19272 36.75 4.51097 36.75H26.0223C26.1861 36.75 26.3437 36.6815 26.454 36.5654C26.5642 36.4463 26.6115 36.2915 26.5894 36.1367L26.2019 33.4692H31.4166C32.1855 33.4692 32.8125 32.8768 32.8125 32.1504V18.3814C32.8125 17.6549 32.1855 17.0625 31.4166 17.0625ZM23.2621 18.1432H31.4166C31.5553 18.1432 31.6687 18.2504 31.6687 18.3814V19.1733H23.01V18.3814C23.01 18.2504 23.1234 18.1432 23.2621 18.1432ZM25.3952 27.9348C25.1778 26.4522 24.2704 25.19 23.01 24.4219V20.2539H31.6687V29.4085H25.6095L25.3952 27.9348ZM5.10964 35.6634C5.39953 32.7667 7.98643 30.4922 11.1279 30.4922H24.6107L25.3637 35.6634H5.10964ZM31.4166 32.3826H26.0443L25.7702 30.4892H31.6719V32.1444C31.6687 32.2754 31.5553 32.3826 31.4166 32.3826ZM27.9254 31.3823C27.9254 31.7098 27.645 31.9747 27.2984 31.9747C26.9518 31.9747 26.6714 31.7098 26.6714 31.3823C26.6714 31.0548 26.9518 30.7899 27.2984 30.7899C27.645 30.7899 27.9254 31.0548 27.9254 31.3823Z" fill="black"/>
<defs>
<linearGradient id="paint0_linear_3092_2124" x1="6.76884" y1="5.29499" x2="35.4574" y2="33.9836" gradientUnits="userSpaceOnUse">
<stop stop-color="#F9B90C"/>
<stop offset="0.25" stop-color="#F73172"/>
<stop offset="0.5" stop-color="#8259ED"/>
<stop offset="0.75" stop-color="#0091F8"/>
<stop offset="1" stop-color="#26F400"/>
</linearGradient>
<linearGradient id="paint1_linear_3092_2124" x1="11.9135" y1="4.83521" x2="30.3127" y2="23.2343" gradientUnits="userSpaceOnUse">
<stop stop-color="#F9B90C"/>
<stop offset="0.25" stop-color="#F73172"/>
<stop offset="0.5" stop-color="#8259ED"/>
<stop offset="0.75" stop-color="#0091F8"/>
<stop offset="1" stop-color="#26F400"/>
</linearGradient>
<linearGradient id="paint2_linear_3092_2124" x1="31.6082" y1="9.62205" x2="34.9658" y2="12.9797" gradientUnits="userSpaceOnUse">
<stop stop-color="#F9B90C"/>
<stop offset="0.25" stop-color="#F73172"/>
<stop offset="0.5" stop-color="#8259ED"/>
<stop offset="0.75" stop-color="#0091F8"/>
<stop offset="1" stop-color="#26F400"/>
</linearGradient>
<linearGradient id="paint3_linear_3092_2124" x1="10.2036" y1="19.6802" x2="32.023" y2="41.4996" gradientUnits="userSpaceOnUse">
<stop stop-color="#F9B90C"/>
<stop offset="0.25" stop-color="#F73172"/>
<stop offset="0.5" stop-color="#8259ED"/>
<stop offset="0.75" stop-color="#0091F8"/>
<stop offset="1" stop-color="#26F400"/>
</linearGradient>
</defs>
</svg>
