<svg width="42" height="42" viewBox="0 0 42 42" fill="none" xmlns="http://www.w3.org/2000/svg">
<path d="M38.0294 32.9196H13.5307C13.2187 32.9196 12.9629 32.6669 12.9629 32.3518C12.9629 32.0367 13.2156 31.7839 13.5307 31.7839H38.0294C38.3414 31.7839 38.5972 32.0367 38.5972 32.3518C38.5972 32.6669 38.3414 32.9196 38.0294 32.9196Z" fill="url(#paint0_linear_3092_1521)"/>
<path d="M39.3148 26.948H12.2452C11.4901 26.948 10.8755 27.5626 10.8755 28.3177V36.3862C10.8755 37.1412 11.4901 37.7559 12.2452 37.7559H39.3179C40.073 37.7559 40.6876 37.1412 40.6876 36.3862V28.3177C40.6876 27.5626 40.073 26.948 39.3148 26.948ZM39.5519 36.3862C39.5519 36.5172 39.4458 36.6233 39.3148 36.6233H12.2452C12.1141 36.6233 12.0081 36.5172 12.0081 36.3862V28.3177C12.0081 28.1867 12.1141 28.0806 12.2452 28.0806H39.3179C39.4489 28.0806 39.555 28.1867 39.555 28.3177V36.3862H39.5519ZM13.0907 39.4844V40.2675C13.0907 40.5795 12.838 40.8354 12.5229 40.8354C12.2078 40.8354 11.955 40.5826 11.955 40.2675V39.4844C11.955 39.1724 12.2078 38.9165 12.5229 38.9165C12.838 38.9165 13.0907 39.1724 13.0907 39.4844ZM39.6018 39.4844V40.2675C39.6018 40.5795 39.3491 40.8354 39.034 40.8354C38.7189 40.8354 38.4661 40.5826 38.4661 40.2675V39.4844C38.4661 39.1724 38.7189 38.9165 39.034 38.9165C39.3491 38.9165 39.6018 39.1724 39.6018 39.4844Z" fill="url(#paint1_linear_3092_1521)"/>
<path d="M30.9158 2.625H21.2396H11.5634H1.88726C1.57146 2.625 1.3125 2.88673 1.3125 3.21308V13.1136V23.014V32.9145C1.3125 33.2377 1.5683 33.5026 1.88726 33.5026H9.08438C9.40018 33.5026 9.65914 33.2409 9.65914 32.9145C9.65914 32.5882 9.40334 32.3265 9.08438 32.3265H2.46202V23.5989H10.9918V25.5506C10.9918 25.8737 11.2476 26.1386 11.5666 26.1386C11.8855 26.1386 12.1413 25.8769 12.1413 25.5506V23.5989H20.6712V25.4762C20.6712 25.7994 20.927 26.0643 21.2459 26.0643C21.5649 26.0643 21.8207 25.8026 21.8207 25.4762V23.5989H30.3505V25.5506C30.3505 25.8737 30.6063 26.1386 30.9252 26.1386C31.2442 26.1386 31.5 25.8769 31.5 25.5506V23.0108V3.21308C31.4905 2.88996 31.2316 2.625 30.9158 2.625ZM20.6648 12.5255H12.1382V3.79794H20.668V12.5255H20.6648ZM2.46202 3.79794H10.9918V12.5255H2.46202V3.79794ZM2.46202 22.426V13.6984H10.9918V22.426H2.46202ZM12.1382 22.426V13.6984H20.668V22.426H12.1382ZM21.8144 22.426V13.1136V3.79794H30.3442V22.426H21.8144ZM3.55785 35.3509V36.1619C3.55785 36.485 3.30205 36.75 2.98309 36.75C2.66413 36.75 2.40833 36.4883 2.40833 36.1619V35.3509C2.40833 35.0278 2.66413 34.7628 2.98309 34.7628C3.30205 34.7628 3.55785 35.0245 3.55785 35.3509ZM4.96317 5.39093V11.0262C4.96317 11.3493 4.70737 11.6143 4.38841 11.6143C4.06945 11.6143 3.81365 11.3525 3.81365 11.0262V5.39093C3.81365 5.06781 4.06945 4.80285 4.38841 4.80285C4.70737 4.80285 4.96317 5.06781 4.96317 5.39093ZM7.31274 5.39093V11.0262C7.31274 11.3493 7.05694 11.6143 6.73798 11.6143C6.41902 11.6143 6.16322 11.3525 6.16322 11.0262V5.39093C6.16322 5.06781 6.41902 4.80285 6.73798 4.80285C7.05694 4.80285 7.31274 5.06781 7.31274 5.39093ZM9.65914 7.6431V11.0262C9.65914 11.3493 9.40334 11.6143 9.08438 11.6143C8.76542 11.6143 8.50962 11.3525 8.50962 11.0262V7.6431C8.50962 7.31997 8.76542 7.05501 9.08438 7.05501C9.40334 7.05501 9.65914 7.31997 9.65914 7.6431ZM14.4783 15.3948V21.0301C14.4783 21.3532 14.2225 21.6182 13.9035 21.6182C13.5846 21.6182 13.3288 21.3564 13.3288 21.0301V15.3948C13.3288 15.0717 13.5846 14.8067 13.9035 14.8067C14.2225 14.8067 14.4783 15.0717 14.4783 15.3948ZM18.1195 20.8524C18.2174 21.1626 18.05 21.4921 17.7468 21.5891C17.69 21.6085 17.63 21.6182 17.5731 21.6182C17.33 21.6182 17.1058 21.4598 17.0268 21.211L15.2678 15.5758C15.1699 15.2656 15.3373 14.936 15.6404 14.839C15.9436 14.7421 16.2657 14.9101 16.3605 15.2203L18.1195 20.8524ZM27.8241 13.8632H24.3313C24.0881 13.8632 23.8734 14.0183 23.7913 14.251C22.2723 18.5647 24.5776 21.3047 24.6787 21.4211C24.7861 21.5471 24.944 21.6182 25.1082 21.6182H27.0504C27.2146 21.6182 27.3725 21.5471 27.4798 21.4211C27.5777 21.308 29.8863 18.5679 28.3672 14.251C28.282 14.0183 28.0641 13.8632 27.8241 13.8632ZM26.7661 20.4452H25.3892C24.9755 19.841 23.8923 17.8829 24.7418 15.0394H27.4104C28.2693 17.8958 27.1861 19.8378 26.7661 20.4452ZM27.1956 11.4786C27.6977 11.4786 28.1051 11.8954 28.1051 12.4092C28.1051 12.9229 27.6977 13.3398 27.1956 13.3398C26.6935 13.3398 26.2861 12.9229 26.2861 12.4092C26.2861 11.8954 26.6935 11.4786 27.1956 11.4786ZM24.0502 12.4092C24.0502 11.8954 24.4576 11.4786 24.9597 11.4786C25.4619 11.4786 25.8693 11.8954 25.8693 12.4092C25.8693 12.9229 25.4619 13.3398 24.9597 13.3398C24.4576 13.3398 24.0502 12.9229 24.0502 12.4092ZM25.1682 10.59C25.1682 10.0762 25.5756 9.65938 26.0777 9.65938C26.5798 9.65938 26.9872 10.0762 26.9872 10.59C26.9872 11.1037 26.5798 11.5206 26.0777 11.5206C25.5756 11.5206 25.1682 11.1005 25.1682 10.59Z" fill="black"/>
<defs>
<linearGradient id="paint0_linear_3092_1521" x1="19.2546" y1="25.8273" x2="32.3054" y2="38.8781" gradientUnits="userSpaceOnUse">
<stop stop-color="#F9B90C"/>
<stop offset="0.25" stop-color="#F73172"/>
<stop offset="0.5" stop-color="#8259ED"/>
<stop offset="0.75" stop-color="#0091F8"/>
<stop offset="1" stop-color="#26F400"/>
</linearGradient>
<linearGradient id="paint1_linear_3092_1521" x1="15.4101" y1="23.2151" x2="36.1499" y2="43.9549" gradientUnits="userSpaceOnUse">
<stop stop-color="#F9B90C"/>
<stop offset="0.25" stop-color="#F73172"/>
<stop offset="0.5" stop-color="#8259ED"/>
<stop offset="0.75" stop-color="#0091F8"/>
<stop offset="1" stop-color="#26F400"/>
</linearGradient>
</defs>
</svg>
