<svg width="42" height="42" viewBox="0 0 42 42" fill="none" xmlns="http://www.w3.org/2000/svg">
<path d="M12.8532 38.268H3.91449C2.36881 38.268 1.10971 36.8812 1.10971 35.1751C1.10971 33.469 2.36881 32.0822 3.91449 32.0822C5.46016 32.0822 6.71926 33.469 6.71926 35.1751C6.71926 35.1781 6.71926 35.1812 6.71926 35.1842C6.71926 35.1873 6.71926 35.1903 6.71926 35.1933C6.71926 35.1994 6.72536 35.683 6.38391 36.0327C6.11258 36.3095 5.67967 36.4494 5.09127 36.4494C4.17362 36.4494 3.18586 35.9719 3.18586 34.9287C3.18586 34.211 3.71023 34.1046 4.02119 34.1046C4.16753 34.1046 4.32911 34.2201 4.448 34.4026C4.58215 34.6064 4.59434 34.8041 4.5608 34.877C4.43581 35.1568 4.5608 35.4823 4.83823 35.6069C5.11566 35.7316 5.44492 35.6069 5.56991 35.3302C5.77113 34.8831 5.69796 34.2992 5.3748 33.8035C5.04859 33.3017 4.54251 33.0006 4.01814 33.0006C3.0822 33.0006 2.07614 33.6028 2.07614 34.9287C2.07614 36.4494 3.34439 37.5533 5.08822 37.5533C5.99368 37.5533 6.70097 37.2948 7.18876 36.7869C7.81983 36.127 7.82593 35.3089 7.82288 35.166V25.8538C7.82288 23.5394 6.06685 21.6569 3.91144 21.6569C1.75603 21.6569 0 23.5394 0 25.8538V35.1751C0 37.4894 1.75603 39.372 3.91144 39.372H12.8501C13.155 39.372 13.405 39.1256 13.405 38.8185C13.405 38.5113 13.158 38.268 12.8532 38.268ZM1.10971 25.8538C1.10971 24.1477 2.36881 22.7609 3.91449 22.7609C5.46016 22.7609 6.71926 24.1477 6.71926 25.8538V32.2525C6.00892 31.4678 5.01201 30.9782 3.91449 30.9782C2.81697 30.9782 1.82005 31.4678 1.10971 32.2525V25.8538ZM40.6845 38.8215C40.6845 39.1256 40.4375 39.375 40.1296 39.375H32.0079C31.7031 39.375 31.4531 39.1287 31.4531 38.8215C31.4531 38.5143 31.7 38.268 32.0079 38.268H40.1296C40.4375 38.268 40.6845 38.5143 40.6845 38.8215ZM40.6845 26.2309C40.6845 26.535 40.4375 26.7844 40.1296 26.7844H37.6175C37.3126 26.7844 37.0626 26.538 37.0626 26.2309C37.0626 25.9237 37.3096 25.6774 37.6175 25.6774H40.1296C40.4375 25.6774 40.6845 25.9268 40.6845 26.2309ZM40.6845 28.0586C40.6845 28.3628 40.4375 28.6122 40.1296 28.6122H37.6175C37.3126 28.6122 37.0626 28.3658 37.0626 28.0586C37.0626 27.7515 37.3096 27.5051 37.6175 27.5051H40.1296C40.4375 27.5051 40.6845 27.7545 40.6845 28.0586ZM37.0657 24.4031C37.0657 24.099 37.3126 23.8496 37.6205 23.8496H40.1326C40.4375 23.8496 40.6875 24.096 40.6875 24.4031C40.6875 24.7103 40.4406 24.9566 40.1326 24.9566H37.6205C37.3126 24.9536 37.0657 24.7072 37.0657 24.4031ZM40.6845 29.8864C40.6845 30.1905 40.4375 30.4399 40.1296 30.4399H37.6175C37.3126 30.4399 37.0626 30.1936 37.0626 29.8864C37.0626 29.5793 37.3096 29.3329 37.6175 29.3329H40.1296C40.4375 29.336 40.6845 29.5823 40.6845 29.8864ZM40.6845 31.7142C40.6845 32.0183 40.4375 32.2677 40.1296 32.2677H37.6175C37.3126 32.2677 37.0626 32.0213 37.0626 31.7142C37.0626 31.407 37.3096 31.1607 37.6175 31.1607H40.1296C40.4375 31.1637 40.6845 31.4101 40.6845 31.7142ZM40.6845 33.542C40.6845 33.8461 40.4375 34.0955 40.1296 34.0955H37.6175C37.3126 34.0955 37.0626 33.8491 37.0626 33.542C37.0626 33.2348 37.3096 32.9885 37.6175 32.9885H40.1296C40.4375 32.9915 40.6845 33.2378 40.6845 33.542ZM40.6845 35.3728C40.6845 35.6769 40.4375 35.9263 40.1296 35.9263H37.6175C37.3126 35.9263 37.0626 35.6799 37.0626 35.3728C37.0626 35.0656 37.3096 34.8193 37.6175 34.8193H40.1296C40.4375 34.8193 40.6845 35.0656 40.6845 35.3728ZM40.6845 37.2005C40.6845 37.5047 40.4375 37.754 40.1296 37.754H37.6175C37.3126 37.754 37.0626 37.5077 37.0626 37.2005C37.0626 36.8934 37.3096 36.647 37.6175 36.647H40.1296C40.4375 36.647 40.6845 36.8934 40.6845 37.2005ZM35.8767 9.32783V36.9694C35.8767 37.2735 35.6298 37.5229 35.3218 37.5229C35.0139 37.5229 34.767 37.2766 34.767 36.9694V9.32783C34.767 9.02371 35.0139 8.77433 35.3218 8.77433C35.6298 8.77433 35.8767 9.02371 35.8767 9.32783ZM29.6086 22.2226C29.3434 22.9068 29.127 24.0807 28.9654 25.72C28.9379 26.0058 28.6971 26.2187 28.4136 26.2187C28.3953 26.2187 28.377 26.2187 28.3587 26.2157C28.0538 26.1853 27.8313 25.9146 27.8618 25.6105C28.0355 23.8496 28.2703 22.6118 28.5751 21.8242C28.6849 21.5383 29.005 21.3984 29.2916 21.5079C29.5782 21.6174 29.7184 21.9367 29.6086 22.2226ZM30.9592 22.5389C30.6025 21.7481 30.2428 21.298 29.7428 20.7902H28.3617C28.0569 20.7902 27.8069 20.5438 27.8069 20.2367C27.8069 19.9295 28.0538 19.6832 28.3617 19.6832H28.6209C28.0996 19.157 27.4868 18.494 26.7338 17.533C24.2674 14.3884 24.0387 9.65324 24.0326 9.45252C24.0204 9.1484 24.2582 8.8899 24.5631 8.87773C24.868 8.86557 25.1271 9.09974 25.1393 9.4069C25.1424 9.45252 25.3619 13.99 27.6057 16.8518C28.6422 18.1747 29.4105 18.9168 30.0294 19.5159C30.0873 19.5737 30.1422 19.6284 30.2001 19.6832H32.0079C32.3128 19.6832 32.5628 19.9295 32.5628 20.2367C32.5628 20.5438 32.3159 20.7902 32.0079 20.7902H31.2092C31.4805 21.146 31.7275 21.5535 31.9683 22.0888C32.5628 23.4117 32.5598 26.1427 32.5598 26.2583C32.5598 26.5624 32.3098 26.8087 32.0049 26.8087C32.0049 26.8087 32.0049 26.8087 32.0019 26.8087C31.697 26.8087 31.45 26.5593 31.45 26.2552C31.4561 25.5314 31.3708 23.4573 30.9592 22.5389ZM8.98442 36.9694V9.32783C8.98442 9.02371 9.23136 8.77433 9.53928 8.77433C9.84414 8.77433 10.0941 9.02067 10.0941 9.32783V36.9694C10.0941 37.2735 9.84719 37.5229 9.53928 37.5229C9.23136 37.5229 8.98442 37.2735 8.98442 36.9694ZM8.98442 4.76601V3.1785C8.98442 2.87438 9.23136 2.625 9.53928 2.625C9.84414 2.625 10.0941 2.87134 10.0941 3.1785V3.41876H34.77V3.1785C34.77 2.87438 35.017 2.625 35.3249 2.625C35.6328 2.625 35.8798 2.87134 35.8798 3.1785V4.76601C35.8798 5.07013 35.6328 5.31951 35.3249 5.31951C35.017 5.31951 34.77 5.07318 34.77 4.76601V4.52576H10.0911V4.76601C10.0911 5.07013 9.84414 5.31951 9.53623 5.31951C9.23136 5.31647 8.98442 5.07013 8.98442 4.76601ZM16.286 21.8242C16.5908 22.6118 16.8256 23.8527 16.9994 25.6105C17.0299 25.9146 16.8073 26.1853 16.5024 26.2157C16.4841 26.2187 16.4658 26.2187 16.4476 26.2187C16.1671 26.2187 15.9262 26.0058 15.8957 25.72C15.7342 24.0838 15.5177 22.9068 15.2525 22.2226C15.1427 21.9367 15.283 21.6174 15.5695 21.5079C15.8531 21.3984 16.1762 21.5383 16.286 21.8242ZM20.8285 9.45556C20.8193 9.65628 20.5937 14.3914 18.1274 17.5361C17.3744 18.4971 16.7616 19.1601 16.2402 19.6862H16.4994C16.8042 19.6862 17.0542 19.9325 17.0542 20.2397C17.0542 20.5469 16.8073 20.7932 16.4994 20.7932H15.1183C14.6184 21.3011 14.2586 21.7512 13.9019 22.5419C13.4903 23.4603 13.405 25.5344 13.405 26.2552C13.405 26.5593 13.158 26.8087 12.8532 26.8087C12.8532 26.8087 12.8532 26.8087 12.8501 26.8087C12.5453 26.8087 12.2983 26.5624 12.2953 26.2583C12.2953 26.1427 12.2922 23.4147 12.8867 22.0888C13.1276 21.5535 13.3745 21.146 13.6458 20.7902H12.8471C12.5422 20.7902 12.2922 20.5438 12.2922 20.2367C12.2922 19.9295 12.5392 19.6832 12.8471 19.6832H14.6549C14.7129 19.6284 14.7677 19.5737 14.8257 19.5159C15.4445 18.9168 16.2128 18.1747 17.2494 16.8518C19.4932 13.99 19.7157 9.45252 19.7157 9.4069C19.7279 9.10278 19.9901 8.86557 20.2919 8.87773C20.6059 8.89598 20.8437 9.15144 20.8285 9.45556ZM23.7583 8.17825L23.0997 7.52135C22.7248 7.14728 22.0693 7.14728 21.6913 7.52135L21.0328 8.17825C20.6242 8.58577 20.0846 8.79258 19.545 8.79258C19.0054 8.79258 18.4688 8.58882 18.0573 8.17825L17.2158 7.33888C16.8408 6.96481 16.1854 6.96481 15.8073 7.33888L14.9659 8.17825C14.1458 8.99634 12.8135 8.99634 11.9935 8.17825L11.3349 7.52135C10.96 7.14728 10.3045 7.14728 9.92646 7.52135C9.71 7.73728 9.35941 7.73728 9.14295 7.52135C8.92649 7.30543 8.92649 6.95569 9.14295 6.73976C9.53928 6.3444 10.0667 6.12543 10.6307 6.12543C11.1917 6.12543 11.7191 6.3444 12.1184 6.73976L12.777 7.39666C13.1641 7.7829 13.7952 7.7829 14.1854 7.39666L15.0269 6.55729C15.2677 6.31703 15.5543 6.14672 15.8683 6.04332V5.62363C15.8683 5.31951 16.1152 5.07013 16.4232 5.07013C16.7311 5.07013 16.978 5.31647 16.978 5.62363V5.99466C17.3622 6.07982 17.7188 6.27141 18.0024 6.55729L18.8438 7.39666C19.231 7.7829 19.8621 7.7829 20.2523 7.39666L20.9108 6.73976C21.173 6.47822 21.4961 6.29574 21.8437 6.20147V5.62668C21.8437 5.32256 22.0906 5.07317 22.3986 5.07317C22.7065 5.07317 22.9534 5.31951 22.9534 5.62668V6.20147C23.304 6.29574 23.6241 6.47822 23.8863 6.73976L24.5448 7.39666C24.932 7.7829 25.5631 7.7829 25.9533 7.39666L26.7947 6.55729C27.063 6.28966 27.3892 6.10719 27.7459 6.01291V5.62363C27.7459 5.31951 27.9929 5.07013 28.3008 5.07013C28.6087 5.07013 28.8556 5.31647 28.8556 5.62363V6.02203C29.1971 6.11935 29.5141 6.29878 29.7702 6.55729L30.6117 7.39666C30.9988 7.7829 31.6299 7.7829 32.0201 7.39666L32.6787 6.73976C33.4987 5.92167 34.831 5.92167 35.6511 6.73976C35.8676 6.95569 35.8676 7.30543 35.6511 7.52135C35.4347 7.73728 35.0841 7.73728 34.8676 7.52135C34.4804 7.13512 33.8493 7.13512 33.4591 7.52135L32.8006 8.17825C31.9805 8.99634 30.6482 8.99634 29.8282 8.17825L28.9867 7.33888C28.6117 6.96481 27.9563 6.96481 27.5782 7.33888L26.7368 8.17825C25.9137 8.99634 24.5783 8.99634 23.7583 8.17825Z" fill="black"/>
<path d="M26.1106 41.9997H18.8324C18.7774 41.9997 18.7224 41.9906 18.6705 41.9753C16.7799 41.4041 15.4514 40.4512 14.9321 39.2937C14.868 39.1501 14.868 38.9822 14.9321 38.8386C15.4514 37.6811 16.7799 36.7281 18.6705 36.157C18.7224 36.1417 18.7774 36.1326 18.8324 36.1326H26.1106C26.1656 36.1326 26.2205 36.1417 26.2725 36.157C28.163 36.7281 29.4916 37.6811 30.0108 38.8386C30.075 38.9822 30.075 39.1501 30.0108 39.2937C29.4916 40.4512 28.163 41.4041 26.2725 41.9753C26.2175 41.9906 26.1656 41.9997 26.1106 41.9997ZM18.9148 40.888H26.0251C27.4025 40.4573 28.4196 39.8037 28.8746 39.0646C28.4196 38.3224 27.4025 37.6688 26.0251 37.2413H18.9148C17.5374 37.6688 16.5203 38.3255 16.0653 39.0646C16.5234 39.8068 17.5404 40.4604 18.9148 40.888Z" fill="url(#paint0_linear_3092_2187)"/>
<path d="M29.5038 39.6205H15.4392C15.1337 39.6205 14.8833 39.3731 14.8833 39.0647C14.8833 38.7562 15.1307 38.5088 15.4392 38.5088H29.5008C29.8062 38.5088 30.0567 38.7562 30.0567 39.0647C30.0567 39.3731 29.8093 39.6205 29.5038 39.6205Z" fill="url(#paint1_linear_3092_2187)"/>
<path d="M26.1106 37.2414H18.8324C18.7774 37.2414 18.7224 37.2323 18.6705 37.217C16.7799 36.6458 15.4514 35.6929 14.9321 34.5354C14.868 34.3918 14.868 34.2239 14.9321 34.0803C15.4514 32.9228 16.7799 31.9698 18.6705 31.3987C18.7224 31.3834 18.7774 31.3743 18.8324 31.3743H26.1106C26.1656 31.3743 26.2205 31.3834 26.2725 31.3987C28.163 31.9698 29.4916 32.9228 30.0108 34.0803C30.075 34.2239 30.075 34.3918 30.0108 34.5354C29.4916 35.6929 28.163 36.6458 26.2725 37.217C26.2175 37.2323 26.1656 37.2414 26.1106 37.2414ZM18.9148 36.1327H26.0251C27.4025 35.7021 28.4196 35.0485 28.8746 34.3094C28.4196 33.5672 27.4025 32.9136 26.0251 32.486H18.9148C17.5374 32.9136 16.5203 33.5703 16.0653 34.3094C16.5234 35.0485 17.5404 35.7021 18.9148 36.1327Z" fill="url(#paint2_linear_3092_2187)"/>
<path d="M29.504 34.8622H28.4411C28.1357 34.8622 27.8853 34.6148 27.8853 34.3064C27.8853 33.9979 28.1326 33.7505 28.4411 33.7505H29.504C29.8094 33.7505 30.0599 33.9979 30.0599 34.3064C30.0599 34.6148 29.8094 34.8622 29.504 34.8622Z" fill="url(#paint3_linear_3092_2187)"/>
<path d="M26.0527 34.8622H23.6643C23.3589 34.8622 23.1085 34.6148 23.1085 34.3064C23.1085 33.9979 23.3559 33.7505 23.6643 33.7505H26.0527C26.3581 33.7505 26.6086 33.9979 26.6086 34.3064C26.6086 34.6148 26.3581 34.8622 26.0527 34.8622ZM21.279 34.8622H18.8906C18.5852 34.8622 18.3347 34.6148 18.3347 34.3064C18.3347 33.9979 18.5821 33.7505 18.8906 33.7505H21.279C21.5844 33.7505 21.8349 33.9979 21.8349 34.3064C21.8349 34.6148 21.5844 34.8622 21.279 34.8622Z" fill="url(#paint4_linear_3092_2187)"/>
<path d="M16.5052 34.8622H15.4423C15.1369 34.8622 14.8865 34.6148 14.8865 34.3064C14.8865 33.9979 15.1339 33.7505 15.4423 33.7505H16.5052C16.8106 33.7505 17.0611 33.9979 17.0611 34.3064C17.0611 34.6148 16.8106 34.8622 16.5052 34.8622Z" fill="url(#paint5_linear_3092_2187)"/>
<path d="M26.112 32.4829H18.8338C18.7789 32.4829 18.7239 32.4737 18.672 32.4584C16.7814 31.8873 15.4528 30.9344 14.9336 29.7768C14.8695 29.6333 14.8695 29.4653 14.9336 29.3218C15.4528 28.1642 16.7814 27.2113 18.672 26.6402C18.7239 26.6249 18.7789 26.6157 18.8338 26.6157H26.112C26.167 26.6157 26.222 26.6249 26.2739 26.6402C28.1645 27.2113 29.4931 28.1642 30.0123 29.3218C30.0764 29.4653 30.0764 29.6333 30.0123 29.7768C29.4931 30.9344 28.1645 31.8873 26.2739 32.4584C26.2189 32.4768 26.167 32.4829 26.112 32.4829ZM18.9163 31.3742H26.0265C27.404 30.9435 28.421 30.2899 28.8761 29.5508C28.421 28.8087 27.404 28.155 26.0265 27.7275H18.9163C17.5388 28.155 16.5218 28.8117 16.0667 29.5508C16.5248 30.2899 17.5419 30.9466 18.9163 31.3742Z" fill="url(#paint6_linear_3092_2187)"/>
<path d="M29.5038 30.1037H15.4392C15.1337 30.1037 14.8833 29.8563 14.8833 29.5478C14.8833 29.2393 15.1307 28.9919 15.4392 28.9919H29.5008C29.8062 28.9919 30.0567 29.2393 30.0567 29.5478C30.0567 29.8563 29.8093 30.1037 29.5038 30.1037Z" fill="url(#paint7_linear_3092_2187)"/>
<defs>
<linearGradient id="paint0_linear_3092_2187" x1="18.4374" y1="35.031" x2="26.5055" y2="43.0991" gradientUnits="userSpaceOnUse">
<stop stop-color="#F9B90C"/>
<stop offset="0.25" stop-color="#F73172"/>
<stop offset="0.5" stop-color="#8259ED"/>
<stop offset="0.75" stop-color="#0091F8"/>
<stop offset="1" stop-color="#26F400"/>
</linearGradient>
<linearGradient id="paint1_linear_3092_2187" x1="18.5635" y1="35.1571" x2="26.3794" y2="42.9731" gradientUnits="userSpaceOnUse">
<stop stop-color="#F9B90C"/>
<stop offset="0.25" stop-color="#F73172"/>
<stop offset="0.5" stop-color="#8259ED"/>
<stop offset="0.75" stop-color="#0091F8"/>
<stop offset="1" stop-color="#26F400"/>
</linearGradient>
<linearGradient id="paint2_linear_3092_2187" x1="18.4374" y1="30.2737" x2="26.5055" y2="38.3417" gradientUnits="userSpaceOnUse">
<stop stop-color="#F9B90C"/>
<stop offset="0.25" stop-color="#F73172"/>
<stop offset="0.5" stop-color="#8259ED"/>
<stop offset="0.75" stop-color="#0091F8"/>
<stop offset="1" stop-color="#26F400"/>
</linearGradient>
<linearGradient id="paint3_linear_3092_2187" x1="21.8137" y1="27.1503" x2="29.6294" y2="34.966" gradientUnits="userSpaceOnUse">
<stop stop-color="#F9B90C"/>
<stop offset="0.25" stop-color="#F73172"/>
<stop offset="0.5" stop-color="#8259ED"/>
<stop offset="0.75" stop-color="#0091F8"/>
<stop offset="1" stop-color="#26F400"/>
</linearGradient>
<linearGradient id="paint4_linear_3092_2187" x1="19.2961" y1="31.1323" x2="26.172" y2="38.0082" gradientUnits="userSpaceOnUse">
<stop stop-color="#F9B90C"/>
<stop offset="0.25" stop-color="#F73172"/>
<stop offset="0.5" stop-color="#8259ED"/>
<stop offset="0.75" stop-color="#0091F8"/>
<stop offset="1" stop-color="#26F400"/>
</linearGradient>
<linearGradient id="paint5_linear_3092_2187" x1="15.3139" y1="33.6496" x2="23.1296" y2="41.4652" gradientUnits="userSpaceOnUse">
<stop stop-color="#F9B90C"/>
<stop offset="0.25" stop-color="#F73172"/>
<stop offset="0.5" stop-color="#8259ED"/>
<stop offset="0.75" stop-color="#0091F8"/>
<stop offset="1" stop-color="#26F400"/>
</linearGradient>
<linearGradient id="paint6_linear_3092_2187" x1="18.4389" y1="25.5162" x2="26.5069" y2="33.5843" gradientUnits="userSpaceOnUse">
<stop stop-color="#F9B90C"/>
<stop offset="0.25" stop-color="#F73172"/>
<stop offset="0.5" stop-color="#8259ED"/>
<stop offset="0.75" stop-color="#0091F8"/>
<stop offset="1" stop-color="#26F400"/>
</linearGradient>
<linearGradient id="paint7_linear_3092_2187" x1="18.5635" y1="25.6423" x2="26.3794" y2="33.4582" gradientUnits="userSpaceOnUse">
<stop stop-color="#F9B90C"/>
<stop offset="0.25" stop-color="#F73172"/>
<stop offset="0.5" stop-color="#8259ED"/>
<stop offset="0.75" stop-color="#0091F8"/>
<stop offset="1" stop-color="#26F400"/>
</linearGradient>
</defs>
</svg>
