<svg width="21" height="41" viewBox="0 0 21 41" fill="none" xmlns="http://www.w3.org/2000/svg">
<path d="M7.01418 40.632C6.72575 40.632 6.46164 40.4305 6.39909 40.1351L3.96306 28.9696C3.91441 28.7507 3.98739 28.5214 4.15419 28.3685C4.32099 28.2155 4.5573 28.1669 4.76928 28.2329L7.34431 29.053L8.75519 24.6188L0.776413 26.5128C0.567908 26.5614 0.348979 26.5023 0.196075 26.3564C0.0396966 26.2104 -0.0298073 25.995 0.0118937 25.783L4.53645 1.44699C4.599 1.10296 4.92913 0.87708 5.27316 0.943107C5.6172 1.00566 5.84308 1.33579 5.77705 1.67982L1.42973 25.0637L9.55099 23.135C9.77339 23.0829 10.0062 23.1524 10.1591 23.3192C10.3155 23.486 10.3676 23.7223 10.2981 23.9412L8.35556 30.04C8.30343 30.1998 8.19223 30.3319 8.0428 30.4083C7.89337 30.4848 7.71962 30.4987 7.56324 30.45L5.42607 29.7689L7.62927 39.8675C7.70225 40.2081 7.48679 40.5451 7.14623 40.6181C7.10453 40.6251 7.05936 40.632 7.01418 40.632Z" fill="black"/>
<path d="M7.01667 40.632C6.85681 40.632 6.69349 40.5694 6.57186 40.4478C6.32513 40.2011 6.32513 39.8014 6.57186 39.5547L13.661 32.4655L11.3258 31.6176C11.152 31.555 11.0165 31.4195 10.9505 31.2492C10.8844 31.079 10.8983 30.8844 10.9852 30.7245L18.7173 16.4906L10.8532 18.1412C10.6308 18.1864 10.4014 18.1134 10.252 17.9432C10.1025 17.7729 10.0539 17.5366 10.1269 17.3211L13.7375 6.77771L4.86559 2.12458C4.55631 1.96125 4.43816 1.58247 4.59801 1.27318C4.76134 0.963902 5.14012 0.845749 5.4494 1.0056L14.7974 5.90199C15.0719 6.04795 15.204 6.37113 15.1032 6.66651L11.6768 16.6713L19.7911 14.9685C20.0309 14.9164 20.2811 15.0137 20.427 15.2083C20.573 15.4063 20.5938 15.6705 20.4757 15.8859L12.4413 30.6759L15.0163 31.6141C15.2179 31.6871 15.3708 31.8609 15.4159 32.0694C15.4611 32.2779 15.3986 32.5003 15.2457 32.6532L7.45453 40.4443C7.33985 40.5694 7.17652 40.632 7.01667 40.632Z" fill="url(#paint0_linear_197_6331)"/>
<defs>
<linearGradient id="paint0_linear_197_6331" x1="-3.31805" y1="9.1505" x2="17.7193" y2="30.1878" gradientUnits="userSpaceOnUse">
<stop stop-color="#F9B90C"/>
<stop offset="0.25" stop-color="#F73172"/>
<stop offset="0.5" stop-color="#8259ED"/>
<stop offset="0.75" stop-color="#0091F8"/>
<stop offset="1" stop-color="#26F400"/>
</linearGradient>
</defs>
</svg>
