<svg width="23" height="21" viewBox="0 0 23 21" fill="none" xmlns="http://www.w3.org/2000/svg">
<path d="M4.92164 20.3911C4.73303 20.3911 4.54778 20.3069 4.4299 20.1419C4.22782 19.8691 4.28844 19.4885 4.55789 19.2864C4.60504 19.2527 4.64882 19.2157 4.69261 19.1753C4.91153 18.9563 5.02941 18.6667 5.02941 18.3602C5.02941 18.0537 4.90816 17.7607 4.69261 17.5451C4.24129 17.0938 3.51042 17.0938 3.0591 17.5451C3.01869 17.5855 2.98164 17.6327 2.94796 17.6798C2.83344 17.8348 2.65157 17.9291 2.45622 17.9291H2.45285C2.2575 17.9291 2.07226 17.8314 1.96112 17.6731C0.960803 16.2787 0.28719 14.6486 0.00764168 12.9612C-0.0226708 12.7692 0.0379542 12.5705 0.176044 12.4324C0.314135 12.2943 0.509484 12.227 0.701463 12.2573C0.75872 12.2674 0.815976 12.2707 0.876601 12.2707C1.51316 12.2707 2.03184 11.7521 2.03184 11.1155C2.03184 10.4789 1.51316 9.96025 0.876601 9.96025C0.815976 9.96025 0.75872 9.96699 0.701463 9.97709C0.509484 10.0074 0.310767 9.94004 0.176044 9.80195C0.0413222 9.66386 -0.0226708 9.46514 0.00764168 9.27316C0.28719 7.58577 0.960803 5.95563 1.96112 4.56125C2.07563 4.40296 2.2575 4.30865 2.45285 4.30528C2.6482 4.30191 2.83344 4.39622 2.94796 4.55452C2.98164 4.60167 3.01869 4.64546 3.0591 4.68924C3.51042 5.14056 4.24129 5.14056 4.69261 4.68924C4.91153 4.47032 5.02941 4.18066 5.02941 3.87417C5.02941 3.56431 4.90816 3.27466 4.69261 3.0591C4.65219 3.01868 4.60504 2.98164 4.55789 2.94796C4.39959 2.83007 4.30865 2.6482 4.30865 2.45285C4.30865 2.2575 4.40632 2.07563 4.56462 1.96111C5.959 0.960802 7.58914 0.28719 9.27653 0.00764168C9.46851 -0.0226708 9.66723 0.0379542 9.80532 0.176045C9.94341 0.314135 10.0108 0.509483 9.98046 0.701462C9.97035 0.758719 9.96362 0.815976 9.96362 0.876601C9.96362 1.51316 10.4823 2.03184 11.1189 2.03184C11.7554 2.03184 12.2741 1.51316 12.2741 0.876601C12.2741 0.815976 12.2674 0.758719 12.2573 0.701462C12.227 0.509483 12.2943 0.314135 12.4324 0.176045C12.5705 0.0379542 12.7692 -0.0226708 12.9612 0.00764168C14.6486 0.28719 16.2787 0.960802 17.6731 1.96111C17.8314 2.07563 17.9257 2.2575 17.9291 2.45285C17.9291 2.6482 17.8381 2.83344 17.6798 2.94796C17.6327 2.98164 17.5889 3.01868 17.5451 3.0591C17.0938 3.51042 17.0938 4.24129 17.5451 4.69261C17.9964 5.14393 18.7273 5.14393 19.1786 4.69261C19.219 4.65219 19.2561 4.60504 19.2898 4.55789C19.4043 4.39959 19.5963 4.31539 19.7849 4.30865C19.9802 4.30865 20.1655 4.40632 20.2766 4.56462C21.2769 5.959 21.9505 7.58914 22.2301 9.27653C22.2604 9.46851 22.1998 9.66723 22.0617 9.80532C21.9236 9.94341 21.7282 10.0108 21.5363 9.98046C21.479 9.97035 21.4217 9.96362 21.3611 9.96362C20.7246 9.96362 20.2059 10.4823 20.2059 11.1189C20.2059 11.7554 20.7246 12.2741 21.3611 12.2741C21.4217 12.2741 21.479 12.2674 21.5363 12.2606C21.7282 12.2303 21.927 12.2977 22.0617 12.4358C22.1964 12.5739 22.2604 12.7726 22.2301 12.9646C22.0381 14.1299 21.6642 15.2515 21.122 16.3023C20.9671 16.6021 20.5966 16.7199 20.2968 16.565C19.9971 16.4101 19.8792 16.0396 20.0341 15.7398C20.4113 15.0123 20.6976 14.2478 20.8862 13.4529C19.8017 13.2306 18.9833 12.2707 18.9833 11.1222C18.9833 9.97372 19.8017 9.01382 20.8862 8.79153C20.6404 7.76091 20.2261 6.76733 19.6704 5.86132C18.7475 6.47094 17.4912 6.3699 16.6795 5.5582C15.8678 4.7465 15.7668 3.49021 16.3764 2.56736C15.4704 2.01164 14.4768 1.59737 13.4462 1.3515C13.2239 2.43601 12.264 3.25445 11.1155 3.25445C9.96698 3.25445 9.00709 2.43601 8.7848 1.3515C7.75417 1.59737 6.76059 2.00827 5.85459 2.56736C6.11056 2.95132 6.24865 3.40601 6.24865 3.87754C6.24865 4.5141 6.00278 5.11025 5.55146 5.5582C4.73976 6.3699 3.48348 6.47094 2.56063 5.86132C2.0049 6.76733 1.59063 7.76091 1.34476 8.79153C2.42927 9.01382 3.24771 9.97372 3.24771 11.1222C3.24771 12.2707 2.42927 13.2306 1.34476 13.4529C1.59063 14.4836 2.00153 15.4771 2.56063 16.3831C3.48348 15.7735 4.73976 15.8746 5.55146 16.6863C5.99941 17.1342 6.24865 17.7337 6.24865 18.3669C6.24865 19.0001 6.00278 19.5996 5.55146 20.0476C5.474 20.125 5.38306 20.2025 5.27865 20.28C5.17424 20.3507 5.04626 20.3911 4.92164 20.3911Z" fill="url(#paint0_linear_197_6307)"/>
<path d="M14.9888 12.8467C14.9316 12.8467 14.8743 12.84 14.817 12.8232C14.4937 12.7288 14.3051 12.3887 14.3994 12.0653C14.487 11.7588 14.5341 11.4389 14.5341 11.1155C14.5341 9.2328 13.0017 7.69697 11.1155 7.69697C9.22943 7.69697 7.69697 9.22944 7.69697 11.1155C7.69697 11.4389 7.74075 11.7588 7.83169 12.0653C7.926 12.3887 7.73739 12.7288 7.41405 12.8232C7.09072 12.9175 6.75055 12.7288 6.65624 12.4055C6.53499 11.9879 6.47437 11.5534 6.47437 11.1155C6.47437 8.55582 8.55582 6.47437 11.1155 6.47437C13.6753 6.47437 15.7567 8.55582 15.7567 11.1155C15.7567 11.5534 15.6961 11.9879 15.5749 12.4055C15.5008 12.6716 15.2549 12.8467 14.9888 12.8467Z" fill="url(#paint1_linear_197_6307)"/>
<defs>
<linearGradient id="paint0_linear_197_6307" x1="3.25482" y1="3.24983" x2="18.7319" y2="18.7269" gradientUnits="userSpaceOnUse">
<stop stop-color="#F9B90C"/>
<stop offset="0.25" stop-color="#F73172"/>
<stop offset="0.5" stop-color="#8259ED"/>
<stop offset="0.75" stop-color="#0091F8"/>
<stop offset="1" stop-color="#26F400"/>
</linearGradient>
<linearGradient id="paint1_linear_197_6307" x1="8.01522" y1="7.65861" x2="14.2228" y2="13.8662" gradientUnits="userSpaceOnUse">
<stop stop-color="#F9B90C"/>
<stop offset="0.25" stop-color="#F73172"/>
<stop offset="0.5" stop-color="#8259ED"/>
<stop offset="0.75" stop-color="#0091F8"/>
<stop offset="1" stop-color="#26F400"/>
</linearGradient>
</defs>
</svg>
