<svg width="42" height="42" viewBox="0 0 42 42" fill="none" xmlns="http://www.w3.org/2000/svg">
<path d="M40.7862 41.7191C40.4915 41.7191 40.2249 41.5121 40.1618 41.2139L35.1907 17.5548C35.117 17.211 35.338 16.8742 35.6818 16.8005C36.0256 16.7269 36.3624 16.9479 36.4361 17.2917L41.4072 40.9508C41.4808 41.2946 41.2598 41.6314 40.916 41.705C40.8704 41.7156 40.8283 41.7191 40.7862 41.7191Z" fill="url(#paint0_linear_3080_1254)"/>
<path d="M18.7268 41.7191C18.6847 41.7191 18.6391 41.7156 18.5934 41.7051C18.2496 41.6314 18.0286 41.2946 18.1023 40.9508L20.4563 29.7387C20.53 29.3949 20.8667 29.1739 21.2105 29.2476C21.5543 29.3212 21.7754 29.658 21.7017 30.0018L19.3477 41.2139C19.2846 41.5121 19.0214 41.7191 18.7268 41.7191Z" fill="url(#paint1_linear_3080_1254)"/>
<path d="M39.0671 29.8686C39.0671 30.2194 38.783 30.5071 38.4286 30.5071H30.5002C30.1493 30.5071 29.8617 30.2229 29.8617 29.8686C29.8617 29.5143 30.1458 29.2301 30.5002 29.2301H38.4286C38.783 29.2301 39.0671 29.5178 39.0671 29.8686ZM37.4674 25.9254C37.8182 25.9254 38.1059 25.6413 38.1059 25.2869C38.1059 24.9326 37.8217 24.6484 37.4674 24.6484H30.2967C29.9459 24.6484 29.6582 24.9326 29.6582 25.2869C29.6582 25.6413 29.9424 25.9254 30.2967 25.9254H37.4674Z" fill="url(#paint2_linear_3080_1254)"/>
<path d="M26.5676 9.85092C26.5676 10.2298 26.529 10.6052 26.4484 10.963C26.3817 11.2612 26.1186 11.4612 25.8274 11.4612C25.7818 11.4612 25.7362 11.4577 25.6906 11.4471C25.3468 11.37 25.1293 11.0297 25.2065 10.6859C25.2661 10.4192 25.2942 10.1351 25.2942 9.84741C25.2942 8.48624 24.6452 7.53552 24.0628 7.53552C23.712 7.53552 23.4243 7.25136 23.4243 6.89703C23.4243 6.54271 23.7085 6.25854 24.0628 6.25854C25.4696 6.26205 26.5676 7.83722 26.5676 9.85092ZM35.4468 6.26205C34.0435 6.26205 32.942 7.83722 32.942 9.84741C32.942 10.2298 32.9806 10.6017 33.0613 10.9595C33.1279 11.2577 33.391 11.4577 33.6822 11.4577C33.7278 11.4577 33.7734 11.4542 33.8225 11.4436C34.1663 11.3664 34.3838 11.0262 34.3067 10.6824C34.247 10.4157 34.2154 10.1316 34.2154 9.8439C34.2154 8.48273 34.8645 7.53201 35.4468 7.53201C35.7976 7.53201 36.0853 7.24785 36.0853 6.89352C36.0853 6.5392 35.7976 6.26205 35.4468 6.26205Z" fill="url(#paint3_linear_3080_1254)"/>
<path d="M35.1169 4.42363C34.766 4.42363 34.4608 4.11842 34.4608 3.7676C34.4608 3.41678 34.766 3.11157 35.1169 3.11157C35.4677 3.11157 35.7729 3.41678 35.7729 3.7676C35.7729 4.11842 35.4677 4.42363 35.1169 4.42363ZM30.1984 4.42363C29.8476 4.42363 29.5424 4.11842 29.5424 3.7676C29.5424 3.41678 29.8476 3.11157 30.1984 3.11157C30.5492 3.11157 30.8544 3.41678 30.8544 3.7676C30.8544 4.11842 30.5527 4.42363 30.1984 4.42363ZM24.3924 4.42363C24.0415 4.42363 23.7363 4.11842 23.7363 3.7676C23.7363 3.41678 24.0415 3.11157 24.3924 3.11157C24.7432 3.11157 25.0484 3.41678 25.0484 3.7676C25.0484 4.11842 24.7432 4.42363 24.3924 4.42363Z" fill="url(#paint4_linear_3080_1254)"/>
<path d="M39.1126 18.0602H27.4585C27.1077 18.0602 26.82 17.776 26.82 17.4217C26.82 17.0674 27.1042 16.7832 27.4585 16.7832H38.4741V16.4745C38.4741 15.401 37.6006 14.5275 36.5271 14.5275H25.4483C25.0975 14.5275 24.8098 14.2433 24.8098 13.889C24.8098 13.5347 25.094 13.2505 25.4483 13.2505H36.5306C38.3058 13.2505 39.7511 14.6959 39.7511 16.471V17.4217C39.7476 17.776 39.4635 18.0602 39.1126 18.0602Z" fill="url(#paint5_linear_3080_1254)"/>
<path d="M36.2011 7.53555H23.3085C21.2317 7.53555 19.5408 5.84461 19.5408 3.76777C19.5408 1.69094 21.2317 0 23.3085 0H36.2011C38.2779 0 39.9688 1.69094 39.9688 3.76777C39.9688 5.84461 38.2814 7.53555 36.2011 7.53555ZM23.3085 1.27346C21.9333 1.27346 20.8142 2.39257 20.8142 3.76777C20.8142 5.14297 21.9333 6.26208 23.3085 6.26208H36.2011C37.5763 6.26208 38.6954 5.14297 38.6954 3.76777C38.6954 2.39257 37.5763 1.27346 36.2011 1.27346H23.3085Z" fill="url(#paint6_linear_3080_1254)"/>
<path d="M29.9939 26.7931L26.0615 16.5864C25.2403 14.4506 23.3467 13.125 21.1274 13.125C19.6054 13.125 18.2391 13.7505 17.2622 14.8308C15.7969 13.7611 13.9988 13.125 12.0521 13.125C7.16398 13.125 3.18557 17.1195 3.18557 22.0274C3.18557 23.4347 2.04584 24.579 0.644192 24.579C0.29024 24.579 0 24.8669 0 25.2258C0 25.5848 0.286701 25.8726 0.644192 25.8726C2.75374 25.8726 4.47041 24.149 4.47041 22.0309C4.47041 17.8338 7.87189 14.4186 12.0521 14.4186C13.7227 14.4186 15.2624 14.9694 16.5189 15.8934C16.3986 16.1138 16.2889 16.3483 16.1968 16.59L12.2609 26.7931C11.9317 27.6425 12.0308 28.5878 12.5051 29.3519H12.0414C12.0379 29.3519 12.0379 29.3519 12.0344 29.3519H7.9179C6.34282 29.3519 4.96948 28.2822 4.58014 26.7504C4.49165 26.4057 4.14123 26.196 3.7979 26.2849C3.45457 26.3737 3.24574 26.7256 3.33423 27.0703C3.76959 28.7797 5.09691 30.0697 6.73924 30.4926L4.49519 41.2217C4.42086 41.57 4.64385 41.9112 4.99072 41.9858C5.03673 41.9964 5.07921 42 5.12522 42C5.42254 42 5.69154 41.7903 5.75526 41.4882L8.02409 30.6419H11.2486L9.03639 41.2217C8.96206 41.57 9.18505 41.9112 9.53192 41.9858C9.57793 41.9964 9.62041 42 9.66642 42C9.96374 42 10.2327 41.7903 10.2965 41.4882L12.5653 30.6419H14.8023H15.7898L13.5776 41.2217C13.5033 41.57 13.7262 41.9112 14.0731 41.9858C14.1191 41.9964 14.1616 42 14.2076 42C14.5049 42 14.7739 41.7903 14.8377 41.4882L17.1065 30.6419H25.1695L27.4383 41.4882C27.5021 41.7939 27.7675 42 28.0684 42C28.1108 42 28.1569 41.9964 28.2029 41.9858C28.5497 41.9112 28.7727 41.57 28.6984 41.2217L26.4862 30.6419H27.4737C28.3728 30.6419 29.1833 30.2083 29.7001 29.4514C30.2204 28.6731 30.3337 27.678 29.9939 26.7931ZM28.6276 28.7228C28.3551 29.1244 27.9268 29.3554 27.4596 29.3554H25.6792C25.6757 29.3554 25.6757 29.3554 25.6721 29.3554H19.4319C20.0018 28.8152 20.4443 28.1329 20.6956 27.3439C20.8053 27.0028 20.6177 26.6403 20.2779 26.5337C19.9416 26.4235 19.5771 26.6118 19.4709 26.953C19.0143 28.3923 17.694 29.359 16.1898 29.359H14.7952C14.328 29.359 13.8997 29.128 13.6271 28.7264C13.3334 28.2999 13.2732 27.7526 13.4608 27.2622L17.3932 17.0556C17.4321 16.956 17.4746 16.8601 17.5171 16.7677C18.8232 18.1359 19.6337 19.9875 19.6337 22.0309C19.6337 24.149 21.3504 25.8726 23.4599 25.8726C23.8139 25.8726 24.1041 25.5848 24.1041 25.2258C24.1041 24.8669 23.8174 24.579 23.4599 24.579C22.0583 24.579 20.9185 23.4347 20.9185 22.0274C20.9185 19.5361 19.8921 17.283 18.2462 15.666C19.0815 14.7669 20.1929 14.415 21.1274 14.415C22.4405 14.415 24.1112 15.108 24.8616 17.052L28.794 27.2586C28.9816 27.7491 28.9214 28.2928 28.6276 28.7228Z" fill="black"/>
<defs>
<linearGradient id="paint0_linear_3080_1254" x1="30.6923" y1="21.6444" x2="45.9078" y2="36.8599" gradientUnits="userSpaceOnUse">
<stop stop-color="#F9B90C"/>
<stop offset="0.25" stop-color="#F73172"/>
<stop offset="0.5" stop-color="#8259ED"/>
<stop offset="0.75" stop-color="#0091F8"/>
<stop offset="1" stop-color="#26F400"/>
</linearGradient>
<linearGradient id="paint1_linear_3080_1254" x1="17.2378" y1="32.8102" x2="22.5675" y2="38.1399" gradientUnits="userSpaceOnUse">
<stop stop-color="#F9B90C"/>
<stop offset="0.25" stop-color="#F73172"/>
<stop offset="0.5" stop-color="#8259ED"/>
<stop offset="0.75" stop-color="#0091F8"/>
<stop offset="1" stop-color="#26F400"/>
</linearGradient>
<linearGradient id="paint2_linear_3080_1254" x1="30.5443" y1="24.1378" x2="37.803" y2="31.3964" gradientUnits="userSpaceOnUse">
<stop stop-color="#F9B90C"/>
<stop offset="0.25" stop-color="#F73172"/>
<stop offset="0.5" stop-color="#8259ED"/>
<stop offset="0.75" stop-color="#0091F8"/>
<stop offset="1" stop-color="#26F400"/>
</linearGradient>
<linearGradient id="paint3_linear_3080_1254" x1="25.9187" y1="4.14477" x2="33.5916" y2="11.8176" gradientUnits="userSpaceOnUse">
<stop stop-color="#F9B90C"/>
<stop offset="0.25" stop-color="#F73172"/>
<stop offset="0.5" stop-color="#8259ED"/>
<stop offset="0.75" stop-color="#0091F8"/>
<stop offset="1" stop-color="#26F400"/>
</linearGradient>
<linearGradient id="paint4_linear_3080_1254" x1="26.6137" y1="0.627646" x2="32.8962" y2="6.91012" gradientUnits="userSpaceOnUse">
<stop stop-color="#F9B90C"/>
<stop offset="0.25" stop-color="#F73172"/>
<stop offset="0.5" stop-color="#8259ED"/>
<stop offset="0.75" stop-color="#0091F8"/>
<stop offset="1" stop-color="#26F400"/>
</linearGradient>
<linearGradient id="paint5_linear_3080_1254" x1="27.6547" y1="10.7834" x2="37.1538" y2="20.2824" gradientUnits="userSpaceOnUse">
<stop stop-color="#F9B90C"/>
<stop offset="0.25" stop-color="#F73172"/>
<stop offset="0.5" stop-color="#8259ED"/>
<stop offset="0.75" stop-color="#0091F8"/>
<stop offset="1" stop-color="#26F400"/>
</linearGradient>
<linearGradient id="paint6_linear_3080_1254" x1="23.8682" y1="-2.11781" x2="35.6419" y2="9.65589" gradientUnits="userSpaceOnUse">
<stop stop-color="#F9B90C"/>
<stop offset="0.25" stop-color="#F73172"/>
<stop offset="0.5" stop-color="#8259ED"/>
<stop offset="0.75" stop-color="#0091F8"/>
<stop offset="1" stop-color="#26F400"/>
</linearGradient>
</defs>
</svg>
