<svg width="32" height="24" viewBox="0 0 32 24" fill="none" xmlns="http://www.w3.org/2000/svg">
<path d="M31.563 15.6334H17.4984C17.2583 15.6334 17.0614 15.8279 17.0614 16.0705V22.943C17.0614 23.1832 17.2559 23.3801 17.4984 23.3801H20.0799C20.32 23.3801 20.5169 23.1856 20.5169 22.943V19.1297H28.5445V22.943C28.5445 23.1832 28.739 23.3801 28.9815 23.3801H31.563C31.8031 23.3801 32 23.1856 32 22.943V16.0705C31.9976 15.8303 31.8031 15.6334 31.563 15.6334ZM31.1259 22.506H29.4162V18.6927C29.4162 18.4526 29.2217 18.2557 28.9791 18.2557H20.0799C19.8397 18.2557 19.6428 18.4502 19.6428 18.6927V22.506H17.9331V16.5075H31.1259V22.506ZM10.8852 10.4009L9.50924 22.9887C9.48523 23.212 9.29552 23.3777 9.077 23.3777C9.06019 23.3777 9.04579 23.3777 9.02898 23.3753C8.78885 23.3489 8.61595 23.1327 8.64236 22.895L10.0063 10.4009H6.69729C6.45716 10.4009 6.26025 10.2064 6.26025 9.9639C6.26025 9.72136 6.45476 9.52686 6.69729 9.52686H25.3027C25.5429 9.52686 25.7398 9.72136 25.7398 9.9639C25.7398 10.2064 25.5453 10.4009 25.3027 10.4009H21.9913L22.4211 14.3367C22.4476 14.5768 22.2747 14.7905 22.0345 14.817C22.0177 14.8194 22.0033 14.8194 21.9865 14.8194C21.768 14.8194 21.5783 14.6537 21.5543 14.4304L21.1148 10.4009H10.8852Z" fill="black"/>
<path d="M31.563 1.76568H0.43704C0.196908 1.76568 0 1.57117 0 1.32864C0 1.08611 0.194507 0.891602 0.43704 0.891602H31.563C31.8031 0.891602 32 1.08611 32 1.32864C32 1.57117 31.8031 1.76568 31.563 1.76568Z" fill="url(#paint0_linear_3080_712)"/>
<path d="M25.3027 8.6214H6.69729C6.45716 8.6214 6.26025 8.42689 6.26025 8.18436C6.26025 7.94182 6.45476 7.74731 6.69729 7.74731H25.3027C25.5429 7.74731 25.7398 7.94182 25.7398 8.18436C25.7398 8.42689 25.5429 8.6214 25.3027 8.6214Z" fill="url(#paint1_linear_3080_712)"/>
<path d="M31.9975 14.3677C31.9975 14.6078 31.803 14.8047 31.5605 14.8047H23.5641C23.3239 14.8047 23.127 14.6102 23.127 14.3677C23.127 14.1252 23.3215 13.9307 23.5641 13.9307H31.5629C31.803 13.9331 31.9975 14.1276 31.9975 14.3677ZM20.4423 13.9331H17.4983C17.2582 13.9331 17.0613 14.1276 17.0613 14.3701C17.0613 14.6126 17.2558 14.8071 17.4983 14.8071H20.4423C20.6825 14.8071 20.8794 14.6126 20.8794 14.3701C20.8794 14.1276 20.6825 13.9331 20.4423 13.9331Z" fill="url(#paint2_linear_3080_712)"/>
<path d="M6.69741 20.5583H3.00418C2.76405 20.5583 2.56714 20.3638 2.56714 20.1212V3.08865C2.56714 2.84852 2.76165 2.65161 3.00418 2.65161H28.9937C29.2338 2.65161 29.4307 2.84612 29.4307 3.08865V14.3845C29.4307 14.6246 29.2362 14.8215 28.9937 14.8215C28.7511 14.8215 28.5566 14.627 28.5566 14.3845V3.52329H3.44122V19.6866H6.69741C6.93754 19.6866 7.13445 19.8811 7.13445 20.1236C7.13445 20.3662 6.93754 20.5583 6.69741 20.5583Z" fill="url(#paint3_linear_3080_712)"/>
<defs>
<linearGradient id="paint0_linear_3080_712" x1="7.91036" y1="-6.76118" x2="24.0896" y2="9.41806" gradientUnits="userSpaceOnUse">
<stop stop-color="#F9B90C"/>
<stop offset="0.25" stop-color="#F73172"/>
<stop offset="0.5" stop-color="#8259ED"/>
<stop offset="0.75" stop-color="#0091F8"/>
<stop offset="1" stop-color="#26F400"/>
</linearGradient>
<linearGradient id="paint1_linear_3080_712" x1="11.0401" y1="3.2244" x2="20.9599" y2="13.1443" gradientUnits="userSpaceOnUse">
<stop stop-color="#F9B90C"/>
<stop offset="0.25" stop-color="#F73172"/>
<stop offset="0.5" stop-color="#8259ED"/>
<stop offset="0.75" stop-color="#0091F8"/>
<stop offset="1" stop-color="#26F400"/>
</linearGradient>
<linearGradient id="paint2_linear_3080_712" x1="20.7049" y1="10.5441" x2="28.3544" y2="18.1936" gradientUnits="userSpaceOnUse">
<stop stop-color="#F9B90C"/>
<stop offset="0.25" stop-color="#F73172"/>
<stop offset="0.5" stop-color="#8259ED"/>
<stop offset="0.75" stop-color="#0091F8"/>
<stop offset="1" stop-color="#26F400"/>
</linearGradient>
<linearGradient id="paint3_linear_3080_712" x1="4.93568" y1="0.540514" x2="24.1954" y2="19.8002" gradientUnits="userSpaceOnUse">
<stop stop-color="#F9B90C"/>
<stop offset="0.25" stop-color="#F73172"/>
<stop offset="0.5" stop-color="#8259ED"/>
<stop offset="0.75" stop-color="#0091F8"/>
<stop offset="1" stop-color="#26F400"/>
</linearGradient>
</defs>
</svg>
