<svg width="42" height="42" viewBox="0 0 42 42" fill="none" xmlns="http://www.w3.org/2000/svg">
<path d="M41.4462 18.4195H40.8372V14.315C40.8372 14.0067 40.5894 13.7538 40.2803 13.7538C39.9835 13.7538 39.7418 13.5102 39.7418 13.2111V10.9692C39.7418 10.6608 39.4939 10.4079 39.1849 10.4079H37.8722C37.5662 10.4079 37.3153 10.6577 37.3153 10.9692C37.3153 11.2806 37.5632 11.5304 37.8722 11.5304H38.628V13.2111C38.628 13.9296 39.0839 14.5463 39.7204 14.7745V18.4164H37.4408V15.3018C37.4408 14.9935 37.1929 14.7406 36.8839 14.7406C36.5748 14.7406 36.327 14.9904 36.327 15.3018V18.4164H31.8993V16.8375C32.6184 16.6001 33.1386 15.9217 33.1386 15.1199V13.063C33.1386 12.7547 32.8907 12.5018 32.5817 12.5018H30.1032C29.7972 12.5018 29.5463 12.7516 29.5463 13.063V15.1199C29.5463 15.9217 30.0664 16.6032 30.7855 16.8375V18.4164H10.2843H9.08174C8.77575 18.4164 8.52484 18.6662 8.52484 18.9777C8.52484 19.2891 8.77269 19.5389 9.08174 19.5389H9.72738V24.4205C9.72738 24.7288 9.97523 24.9817 10.2843 24.9817C10.5933 24.9817 10.8412 24.7319 10.8412 24.4205V19.5389H39.6806V33.0025H34.2493V27.3284H36.5381C36.8441 27.3284 37.095 27.0786 37.095 26.7672V23.2764C37.095 22.968 36.8471 22.7152 36.5381 22.7152H30.8528C30.5468 22.7152 30.2959 22.9649 30.2959 23.2764V26.7672C30.2959 27.0756 30.5438 27.3284 30.8528 27.3284H33.1416V33.0025H26.8995C26.5935 33.0025 26.3426 33.2523 26.3426 33.5638C26.3426 33.8752 26.5904 34.125 26.8995 34.125H40.2406C40.5466 34.125 40.7975 33.8752 40.7975 33.5638V19.5389H41.4431C41.7491 19.5389 42 19.2891 42 18.9777C42 18.6662 41.7552 18.4195 41.4462 18.4195ZM30.6692 13.6274H32.037V15.123C32.037 15.5023 31.731 15.8106 31.3547 15.8106C30.9783 15.8106 30.6723 15.5023 30.6723 15.123V13.6274H30.6692ZM31.4158 23.8376H35.9904V26.2059H31.4158V23.8376ZM20.593 15.9062C20.593 15.5979 20.3452 15.345 20.0361 15.345H18.5582V12.0762H20.0361C20.3421 12.0762 20.593 11.8265 20.593 11.515C20.593 11.2066 20.3452 10.9538 20.0361 10.9538H18.5582V7.68498H20.0361C20.3421 7.68498 20.593 7.4352 20.593 7.12374C20.593 6.81228 20.3452 6.5625 20.0361 6.5625H18.0044H10.2965H2.58866H0.556899C0.25091 6.5625 0 6.81228 0 7.12374C0 7.4352 0.24785 7.68498 0.556899 7.68498H2.03482V10.9538H0.556899C0.25091 10.9538 0 11.2035 0 11.515C0 11.8234 0.24785 12.0762 0.556899 12.0762H2.03482V15.345H0.556899C0.25091 15.345 0 15.5948 0 15.9062C0 16.2177 0.24785 16.4675 0.556899 16.4675H20.0423C20.3452 16.4675 20.593 16.2146 20.593 15.9062ZM17.4475 15.345H10.8504V12.0762H17.4475V15.345ZM17.4475 10.9568H10.8504V7.68807H17.4475V10.9568ZM3.1425 7.68807H9.73962V10.9568H3.1425V7.68807ZM3.1425 12.0762H9.73962V15.345H3.1425V12.0762Z" fill="black"/>
<path d="M25.2764 38.1242H2.59971C2.28911 38.1242 2.03442 37.8726 2.03442 37.5589V26.3619C2.03442 26.0513 2.28601 25.7966 2.59971 25.7966H25.2764C25.587 25.7966 25.8417 26.0482 25.8417 26.3619V37.5589C25.8417 37.8726 25.587 38.1242 25.2764 38.1242ZM3.165 36.9967H24.7142V26.9272H3.165V36.9967Z" fill="url(#paint0_linear_3090_1898)"/>
<path d="M20.9062 23.703V23.057C20.9062 22.7464 20.6547 22.4917 20.3409 22.4917C20.0272 22.4917 19.7757 22.7433 19.7757 23.057V23.703C18.5457 23.9639 17.6201 25.0572 17.6201 26.3648C17.6201 26.6754 17.8717 26.9301 18.1854 26.9301H22.4965C22.8071 26.9301 23.0618 26.6785 23.0618 26.3648C23.0618 25.0572 22.1362 23.9608 20.9062 23.703ZM18.8532 25.7996C19.0799 25.2001 19.6638 24.7715 20.3409 24.7715C21.0212 24.7715 21.602 25.2001 21.8287 25.7996H18.8532Z" fill="url(#paint1_linear_3090_1898)"/>
<path d="M27.3139 26.9272H0.565286C0.254689 26.9272 0 26.6756 0 26.3619C0 26.0482 0.251583 25.7966 0.565286 25.7966H27.3139C27.6245 25.7966 27.8792 26.0482 27.8792 26.3619C27.8792 26.6756 27.6245 26.9272 27.3139 26.9272Z" fill="url(#paint2_linear_3090_1898)"/>
<path d="M2.59971 24.7714C2.28911 24.7714 2.03442 24.5198 2.03442 24.2061V18.7272C2.03442 18.4166 2.28601 18.1619 2.59971 18.1619C2.91341 18.1619 3.165 18.4134 3.165 18.7272V24.2061C3.165 24.5167 2.91031 24.7714 2.59971 24.7714Z" fill="url(#paint3_linear_3090_1898)"/>
<path d="M6.14365 24.7714C5.83306 24.7714 5.57837 24.5198 5.57837 24.2061V18.7272C5.57837 18.4166 5.82995 18.1619 6.14365 18.1619C6.45736 18.1619 6.70894 18.4134 6.70894 18.7272V24.2061C6.70583 24.5167 6.45425 24.7714 6.14365 24.7714Z" fill="url(#paint4_linear_3090_1898)"/>
<path d="M16.3839 9.63302H12.4518C12.1412 9.63302 11.8865 9.38143 11.8865 9.06773C11.8865 8.75403 12.1381 8.50244 12.4518 8.50244H16.3839C16.6945 8.50244 16.9492 8.75403 16.9492 9.06773C16.9492 9.38143 16.6945 9.63302 16.3839 9.63302Z" fill="url(#paint5_linear_3090_1898)"/>
<defs>
<linearGradient id="paint0_linear_3090_1898" x1="5.07091" y1="23.0939" x2="22.8062" y2="40.8292" gradientUnits="userSpaceOnUse">
<stop stop-color="#F9B90C"/>
<stop offset="0.25" stop-color="#F73172"/>
<stop offset="0.5" stop-color="#8259ED"/>
<stop offset="0.75" stop-color="#0091F8"/>
<stop offset="1" stop-color="#26F400"/>
</linearGradient>
<linearGradient id="paint1_linear_3090_1898" x1="18.5781" y1="24.0224" x2="22.1071" y2="27.5515" gradientUnits="userSpaceOnUse">
<stop stop-color="#F9B90C"/>
<stop offset="0.25" stop-color="#F73172"/>
<stop offset="0.5" stop-color="#8259ED"/>
<stop offset="0.75" stop-color="#0091F8"/>
<stop offset="1" stop-color="#26F400"/>
</linearGradient>
<linearGradient id="paint2_linear_3090_1898" x1="6.85248" y1="19.2764" x2="21.0245" y2="33.4485" gradientUnits="userSpaceOnUse">
<stop stop-color="#F9B90C"/>
<stop offset="0.25" stop-color="#F73172"/>
<stop offset="0.5" stop-color="#8259ED"/>
<stop offset="0.75" stop-color="#0091F8"/>
<stop offset="1" stop-color="#26F400"/>
</linearGradient>
<linearGradient id="paint3_linear_3090_1898" x1="0.831451" y1="19.6978" x2="4.36874" y2="23.2351" gradientUnits="userSpaceOnUse">
<stop stop-color="#F9B90C"/>
<stop offset="0.25" stop-color="#F73172"/>
<stop offset="0.5" stop-color="#8259ED"/>
<stop offset="0.75" stop-color="#0091F8"/>
<stop offset="1" stop-color="#26F400"/>
</linearGradient>
<linearGradient id="paint4_linear_3090_1898" x1="4.37347" y1="19.6978" x2="7.91076" y2="23.2351" gradientUnits="userSpaceOnUse">
<stop stop-color="#F9B90C"/>
<stop offset="0.25" stop-color="#F73172"/>
<stop offset="0.5" stop-color="#8259ED"/>
<stop offset="0.75" stop-color="#0091F8"/>
<stop offset="1" stop-color="#26F400"/>
</linearGradient>
<linearGradient id="paint5_linear_3090_1898" x1="13.0355" y1="7.68818" x2="15.7987" y2="10.4511" gradientUnits="userSpaceOnUse">
<stop stop-color="#F9B90C"/>
<stop offset="0.25" stop-color="#F73172"/>
<stop offset="0.5" stop-color="#8259ED"/>
<stop offset="0.75" stop-color="#0091F8"/>
<stop offset="1" stop-color="#26F400"/>
</linearGradient>
</defs>
</svg>
