<svg width="42" height="42" viewBox="0 0 42 42" fill="none" xmlns="http://www.w3.org/2000/svg">
<path d="M21 9.1875C14.4866 9.1875 9.1875 14.4866 9.1875 21C9.1875 27.5134 14.4866 32.8125 21 32.8125C27.5134 32.8125 32.8125 27.5134 32.8125 21C32.8125 14.4866 27.5134 9.1875 21 9.1875ZM21 31.5779C15.1669 31.5779 10.4222 26.8331 10.4222 21C10.4222 15.1669 15.1669 10.4222 21 10.4222C26.8331 10.4222 31.5779 15.1669 31.5779 21C31.5779 26.8331 26.8331 31.5779 21 31.5779ZM26.0849 22.2381H15.9152C15.575 22.2381 15.2961 22.5136 15.2961 22.8571C15.2961 26.0032 17.8539 28.561 21 28.561C24.1461 28.561 26.7039 26.0032 26.7039 22.8571C26.7039 22.5136 26.4284 22.2381 26.0849 22.2381ZM21 27.3229C18.745 27.3229 16.8743 25.6461 16.575 23.4727H25.425C25.1257 25.6461 23.255 27.3229 21 27.3229ZM15.0512 19.7177C14.7111 19.7177 14.4322 19.4422 14.4322 19.0987C14.4322 17.9457 15.371 17.0103 16.5206 17.0103C17.6736 17.0103 18.6089 17.9491 18.6089 19.0987C18.6089 19.4388 18.3334 19.7177 17.9899 19.7177C17.6464 19.7177 17.3709 19.4422 17.3709 19.0987C17.3709 18.6293 16.9865 18.245 16.5172 18.245C16.0478 18.245 15.6635 18.6293 15.6635 19.0987C15.6703 19.4388 15.3948 19.7177 15.0512 19.7177ZM27.5644 19.0987C27.5644 19.4388 27.2889 19.7177 26.9454 19.7177C26.6018 19.7177 26.3263 19.4422 26.3263 19.0987C26.3263 18.6293 25.942 18.245 25.4726 18.245C25.0033 18.245 24.6189 18.6293 24.6189 19.0987C24.6189 19.4388 24.3434 19.7177 23.9999 19.7177C23.6564 19.7177 23.3809 19.4422 23.3809 19.0987C23.3809 17.9457 24.3196 17.0103 25.4692 17.0103C26.629 17.0103 27.5644 17.9457 27.5644 19.0987Z" fill="black"/>
<path d="M24.9877 38.0614C23.9907 38.0614 23.0772 37.5525 22.5208 36.6384C22.196 36.1035 21.6299 35.7858 21.0092 35.7858C20.3885 35.7858 19.8224 36.1035 19.4976 36.6384C18.7836 37.815 17.4714 38.3207 16.1592 37.935C14.847 37.546 14.0172 36.405 14.0461 35.0273C14.059 34.4017 13.7534 33.8247 13.2324 33.4843C12.7082 33.144 12.0617 33.1051 11.5021 33.3773C10.2703 33.977 8.89697 33.6918 7.99964 32.648C7.10554 31.6075 7.0187 30.1941 7.78094 29.0499C8.12829 28.5312 8.17975 27.8797 7.92246 27.3091C7.66516 26.7386 7.14091 26.3529 6.5234 26.2783C5.16616 26.1098 4.1627 25.1211 3.96973 23.7564C3.77676 22.3917 4.46181 21.1567 5.71613 20.6121C6.28862 20.3625 6.681 19.8438 6.76784 19.2247C6.85789 18.6056 6.62311 17.9961 6.14389 17.5942C5.09219 16.7125 4.777 15.3348 5.34627 14.0803C5.91554 12.8259 7.15378 12.1613 8.50137 12.3882C9.11567 12.4887 9.72353 12.2683 10.132 11.795C10.5405 11.3218 10.6691 10.6832 10.4826 10.0835C10.0709 8.77067 10.5469 7.43838 11.6951 6.69283C12.8465 5.94727 14.2455 6.06396 15.2586 6.98781C15.7186 7.40921 16.3521 7.55184 16.9471 7.3768C17.5421 7.20175 17.9956 6.73497 18.1597 6.1288C18.5167 4.79976 19.6327 3.9375 20.9996 3.9375C22.3665 3.9375 23.4825 4.79651 23.8395 6.1288C24.0035 6.73497 24.4538 7.20175 25.052 7.3768C25.647 7.55184 26.2806 7.40921 26.7405 6.98781C27.7536 6.06396 29.1527 5.94727 30.3041 6.69283C31.4555 7.43838 31.9315 8.76743 31.5166 10.0835C31.33 10.6799 31.4587 11.3218 31.8672 11.795C32.2756 12.2683 32.8835 12.4887 33.4978 12.3882C34.8486 12.1613 36.0868 12.8291 36.6529 14.0803C37.2221 15.3348 36.907 16.7125 35.8553 17.5942C35.376 17.9929 35.1445 18.6023 35.2313 19.2247C35.3181 19.8438 35.7137 20.3625 36.283 20.6121C37.5373 21.1567 38.2256 22.3917 38.0294 23.7564C37.8332 25.1211 36.833 26.1098 35.4757 26.2783C34.8582 26.3529 34.3372 26.7386 34.0767 27.3091C33.8194 27.8797 33.8709 28.5312 34.2182 29.0499C34.9804 30.1941 34.8968 31.6042 33.9995 32.648C33.1054 33.6885 31.7289 33.977 30.497 33.3773C29.9374 33.1051 29.291 33.144 28.7667 33.4843C28.2425 33.8247 27.9402 34.3984 27.953 35.0273C27.982 36.405 27.1522 37.546 25.84 37.935C25.5666 38.0193 25.2739 38.0614 24.9877 38.0614ZM12.2772 32.0191C12.8304 32.0191 13.3804 32.178 13.866 32.4924C14.7344 33.0532 15.2393 34.0095 15.2168 35.05C15.1943 36.0581 15.889 36.6254 16.4904 36.8037C17.0919 36.982 17.9795 36.8847 18.5038 36.0225C19.0441 35.1375 19.98 34.6059 21.0124 34.6059C22.0448 34.6059 22.9808 35.1343 23.5211 36.0225C24.0453 36.8847 24.933 36.982 25.5344 36.8037C26.1359 36.6254 26.8306 36.0614 26.8081 35.05C26.7855 34.0095 27.2905 33.0532 28.1589 32.4924C29.0272 31.9316 30.0982 31.8635 31.0277 32.3174C31.9315 32.7582 32.7291 32.3563 33.1408 31.8765C33.5524 31.4 33.8323 30.5442 33.2726 29.7079C32.6969 28.8456 32.6101 27.7662 33.0379 26.8197C33.4656 25.8731 34.334 25.2345 35.3567 25.1081C36.3506 24.9849 36.8073 24.2135 36.8973 23.5878C36.9874 22.9622 36.7654 22.0902 35.8456 21.6915C34.9 21.2798 34.2439 20.4208 34.0992 19.39C33.9513 18.3624 34.3372 17.3511 35.1316 16.6866C35.9035 16.0415 35.8713 15.1436 35.6108 14.5698C35.3503 13.9961 34.6942 13.3834 33.7068 13.5487C32.6905 13.7173 31.6774 13.351 31.002 12.5665C30.3266 11.7821 30.1079 10.7188 30.4199 9.73017C30.7222 8.76742 30.214 8.02835 29.6866 7.68474C29.1591 7.34438 28.2811 7.18554 27.5381 7.86303C26.7727 8.55996 25.7242 8.80308 24.7368 8.5081C23.7462 8.21636 22.9968 7.44163 22.7267 6.43674C22.4662 5.46103 21.6396 5.11743 21.0157 5.11743C20.3917 5.11743 19.5651 5.46428 19.3046 6.43674C19.0345 7.44163 18.2819 8.21312 17.2945 8.5081C16.3039 8.79984 15.2586 8.55996 14.4932 7.86303C13.7502 7.18554 12.8722 7.34438 12.3447 7.68474C11.8173 8.02511 11.3091 8.76742 11.6114 9.73017C11.9234 10.7221 11.7047 11.7821 11.0293 12.5665C10.3539 13.351 9.34402 13.7205 8.32448 13.5487C7.33389 13.3834 6.681 13.9961 6.42048 14.5698C6.15997 15.1436 6.13103 16.0415 6.8997 16.6866C7.6941 17.3511 8.08005 18.3624 7.9321 19.39C7.78416 20.4176 7.13127 21.2798 6.1857 21.6915C5.26586 22.0902 5.04395 22.9622 5.134 23.5878C5.22405 24.2135 5.68076 24.9849 6.67456 25.1081C7.69732 25.2345 8.5657 25.8731 8.99345 26.8197C9.42121 27.7662 9.33437 28.8456 8.75867 29.7079C8.19905 30.5442 8.47886 31.4 8.89053 31.8765C9.30221 32.353 10.0998 32.755 11.0004 32.3141C11.4056 32.1164 11.843 32.0191 12.2772 32.0191Z" fill="url(#paint0_linear_3090_1930)"/>
<defs>
<linearGradient id="paint0_linear_3090_1930" x1="8.96428" y1="9.35006" x2="33.2433" y2="33.4393" gradientUnits="userSpaceOnUse">
<stop stop-color="#F9B90C"/>
<stop offset="0.25" stop-color="#F73172"/>
<stop offset="0.5" stop-color="#8259ED"/>
<stop offset="0.75" stop-color="#0091F8"/>
<stop offset="1" stop-color="#26F400"/>
</linearGradient>
</defs>
</svg>
