<svg width="42" height="42" viewBox="0 0 42 42" fill="none" xmlns="http://www.w3.org/2000/svg">
<path d="M33.8167 16.7376C33.4576 16.7376 33.1417 16.4294 33.1417 16.0791C33.1417 15.7289 33.4576 15.4206 33.8167 15.4206C34.1757 15.4206 34.4916 15.7289 34.4916 16.0791C34.4916 16.4294 34.1793 16.7376 33.8167 16.7376ZM17.3556 16.7376C16.9966 16.7376 16.6807 16.4294 16.6807 16.0791C16.6807 15.7289 16.9966 15.4206 17.3556 15.4206C17.7146 15.4206 18.0306 15.7289 18.0306 16.0791C18.0306 16.4294 17.7146 16.7376 17.3556 16.7376ZM25.5628 9.38561C25.2038 9.38561 24.8879 9.07738 24.8879 8.72712C24.8879 8.37685 25.2038 8.06862 25.5628 8.06862C25.9218 8.06862 26.2378 8.37685 26.2378 8.72712C26.2378 9.07738 25.9254 9.38561 25.5628 9.38561ZM33.8167 9.3646C33.4576 9.3646 33.1417 9.05636 33.1417 8.7061C33.1417 8.35584 33.4576 8.04761 33.8167 8.04761C34.1757 8.04761 34.4916 8.35584 34.4916 8.7061C34.4916 9.05636 34.1793 9.3646 33.8167 9.3646ZM34.445 8.7061H34.4485H34.445ZM17.3556 9.3646C16.9966 9.3646 16.6807 9.05636 16.6807 8.7061C16.6807 8.35584 16.9966 8.04761 17.3556 8.04761C17.7146 8.04761 18.0306 8.35584 18.0306 8.7061C18.0306 9.05636 17.7146 9.3646 17.3556 9.3646Z" fill="url(#paint0_linear_3092_2032)"/>
<path d="M36.064 23.2456C35.705 23.2456 35.4106 22.9618 35.4106 22.6081V7.1965H15.7148V22.6081C15.7148 22.9583 15.424 23.2456 15.0614 23.2456C14.6988 23.2456 14.408 22.9618 14.408 22.6081V6.56253C14.408 6.21226 14.6988 5.92505 15.0614 5.92505H36.0604C36.4195 5.92505 36.7139 6.20876 36.7139 6.56253V22.6081C36.7174 22.9583 36.4231 23.2456 36.064 23.2456Z" fill="url(#paint1_linear_3092_2032)"/>
<path d="M31.4756 23.2456C31.1166 23.2456 30.8222 22.9619 30.8222 22.6081V11.5573H20.3029V22.6081C20.3029 22.9584 20.0121 23.2456 19.6495 23.2456C19.2869 23.2456 18.9961 22.9619 18.9961 22.6081V10.9234C18.9961 10.5731 19.2869 10.2859 19.6495 10.2859H31.4756C31.8346 10.2859 32.129 10.5696 32.129 10.9234V22.6081C32.129 22.9584 31.8346 23.2456 31.4756 23.2456Z" fill="url(#paint2_linear_3092_2032)"/>
<path d="M27.9537 15.1721L22.8449 20.1564C22.7192 20.279 22.5505 20.342 22.3853 20.342C22.2202 20.342 22.0515 20.279 21.9258 20.1564C21.6709 19.9077 21.6709 19.5049 21.9258 19.2562L27.0346 14.272C27.2896 14.0233 27.7024 14.0233 27.9573 14.272C28.2086 14.5207 28.2086 14.9235 27.9537 15.1721ZM29.2031 17.3788C28.9482 17.1301 28.5354 17.1301 28.2804 17.3788L25.1067 20.4751C24.8518 20.7238 24.8518 21.1266 25.1067 21.3753C25.2324 21.4979 25.4011 21.5609 25.5663 21.5609C25.7314 21.5609 25.9001 21.4979 26.0258 21.3753L29.1995 18.279C29.458 18.0303 29.458 17.6275 29.2031 17.3788Z" fill="url(#paint3_linear_3092_2032)"/>
<path d="M24.9756 27.5266C24.9756 27.1577 25.2928 26.8331 25.6532 26.8331C26.0137 26.8331 26.3308 27.1577 26.3308 27.5266C26.3308 27.8955 26.0137 28.2201 25.6532 28.2201C25.2928 28.2201 24.9756 27.8955 24.9756 27.5266ZM39.375 25.0477V30.0018C39.375 30.3707 39.083 30.6731 38.719 30.6731H34.5956V38.7036C34.5956 39.0725 34.3037 39.375 33.9396 39.375C33.5756 39.375 33.2836 39.0762 33.2836 38.7036V30.6731H18.0697V38.7036C18.0697 39.0725 17.7777 39.375 17.4137 39.375C17.0496 39.375 16.7577 39.0762 16.7577 38.7036V30.6731H12.5874C12.227 30.6731 11.9314 30.3744 11.9314 30.0018V25.0477C11.9314 24.6789 12.2234 24.3764 12.5874 24.3764H38.7226C39.083 24.3764 39.375 24.6789 39.375 25.0477ZM38.0666 25.7191H13.2398V29.3341H38.0666V25.7191ZM12.3748 36.092H9.98149V17.8472H13.0632C14.5554 17.8472 15.7665 16.6078 15.7665 15.0806C15.7665 14.7117 15.4745 14.4093 15.1105 14.4093C14.7464 14.4093 14.4545 14.7081 14.4545 15.0806C14.4545 15.8663 13.8273 16.5082 13.0596 16.5082H9.97788V5.92136C9.97788 5.55248 9.68593 5.25 9.32189 5.25C8.95785 5.25 8.6659 5.54879 8.6659 5.92136V12.0927H5.33547C4.56775 12.0927 3.94059 11.4509 3.94059 10.6651C3.94059 10.2963 3.64864 9.99378 3.2846 9.99378C2.92056 9.99378 2.6286 10.2926 2.6286 10.6651C2.6286 12.1923 3.83967 13.4317 5.33187 13.4317H8.66229V22.0045H5.33187C4.56414 22.0045 3.93698 21.3626 3.93698 20.5769C3.93698 20.208 3.64503 19.9056 3.28099 19.9056C2.91695 19.9056 2.625 20.2044 2.625 20.5769C2.625 22.1041 3.83606 23.3435 5.32827 23.3435H8.65869V36.0883H6.0167C4.611 36.0883 3.46842 37.2576 3.46842 38.6963C3.46842 39.0651 3.76037 39.3676 4.12441 39.3676C4.48845 39.3676 4.7804 39.0688 4.7804 38.6963C4.7804 37.9954 5.33547 37.4273 6.0203 37.4273H12.3676C13.0524 37.4273 13.6075 37.9954 13.6075 38.6963C13.6075 39.0651 13.8994 39.3676 14.2635 39.3676C14.6275 39.3676 14.9195 39.0688 14.9195 38.6963C14.9267 37.2613 13.7805 36.092 12.3748 36.092Z" fill="black"/>
<defs>
<linearGradient id="paint0_linear_3092_2032" x1="19.1094" y1="6.07198" x2="31.745" y2="19.0234" gradientUnits="userSpaceOnUse">
<stop stop-color="#F9B90C"/>
<stop offset="0.25" stop-color="#F73172"/>
<stop offset="0.5" stop-color="#8259ED"/>
<stop offset="0.75" stop-color="#0091F8"/>
<stop offset="1" stop-color="#26F400"/>
</linearGradient>
<linearGradient id="paint1_linear_3092_2032" x1="15.7405" y1="5.00088" x2="34.902" y2="24.6415" gradientUnits="userSpaceOnUse">
<stop stop-color="#F9B90C"/>
<stop offset="0.25" stop-color="#F73172"/>
<stop offset="0.5" stop-color="#8259ED"/>
<stop offset="0.75" stop-color="#0091F8"/>
<stop offset="1" stop-color="#26F400"/>
</linearGradient>
<linearGradient id="paint2_linear_3092_2032" x1="19.1518" y1="10.5098" x2="31.6589" y2="23.3296" gradientUnits="userSpaceOnUse">
<stop stop-color="#F9B90C"/>
<stop offset="0.25" stop-color="#F73172"/>
<stop offset="0.5" stop-color="#8259ED"/>
<stop offset="0.75" stop-color="#0091F8"/>
<stop offset="1" stop-color="#26F400"/>
</linearGradient>
<linearGradient id="paint3_linear_3092_2032" x1="21.7329" y1="17.823" x2="29.3945" y2="17.823" gradientUnits="userSpaceOnUse">
<stop stop-color="#F9B90C"/>
<stop offset="0.25" stop-color="#F73172"/>
<stop offset="0.5" stop-color="#8259ED"/>
<stop offset="0.75" stop-color="#0091F8"/>
<stop offset="1" stop-color="#26F400"/>
</linearGradient>
</defs>
</svg>
