<svg width="41" height="32" viewBox="0 0 41 32" fill="none" xmlns="http://www.w3.org/2000/svg">
<path d="M32.6811 0.562549C32.6811 0.539917 32.6778 0.52052 32.6745 0.497889C32.6712 0.47849 32.668 0.462326 32.6614 0.442928C32.6581 0.423529 32.6516 0.407362 32.645 0.387964C32.6385 0.368566 32.6286 0.349167 32.6188 0.329769C32.6155 0.32007 32.6122 0.310373 32.6057 0.303907C32.6024 0.297441 32.5958 0.290973 32.5926 0.284507C32.5827 0.265109 32.5696 0.248945 32.5565 0.232779C32.5466 0.216614 32.5335 0.20368 32.5204 0.190748C32.5073 0.177816 32.4942 0.164886 32.4811 0.151953C32.4647 0.139021 32.4516 0.126088 32.4352 0.113156C32.4188 0.103457 32.4057 0.0937589 32.3893 0.0840598C32.3729 0.0743607 32.3565 0.0646602 32.3368 0.0549611C32.3204 0.048495 32.3007 0.0420297 32.2843 0.0355637C32.2647 0.0290976 32.2483 0.0226305 32.2286 0.0193975C32.2122 0.0161644 32.1925 0.0129318 32.1761 0.00969873C32.1532 0.00646569 32.1335 0.00323373 32.1105 0.00323373C32.104 0.00323373 32.0974 0 32.0876 0H0.596765C0.590207 0 0.583649 0.00323373 0.573813 0.00323373C0.55086 0.00323373 0.531186 0.00646569 0.508234 0.00969873C0.491839 0.0129318 0.472166 0.0161644 0.455771 0.0193975C0.436097 0.0226305 0.416424 0.0290976 0.40003 0.0355637C0.383635 0.0420297 0.363962 0.048495 0.347567 0.0549611C0.331172 0.0646602 0.311499 0.0743607 0.295104 0.0840598C0.278709 0.0937589 0.262314 0.103457 0.249198 0.113156C0.232803 0.126088 0.219688 0.135788 0.203293 0.151953C0.190178 0.164886 0.173783 0.177816 0.163946 0.190748C0.150831 0.20368 0.140994 0.219847 0.127878 0.232779C0.114762 0.248945 0.101646 0.265109 0.0918096 0.284507C0.0885307 0.290973 0.0819738 0.297441 0.0786948 0.303907C0.072137 0.313606 0.0721367 0.323303 0.0655788 0.329769C0.055742 0.349167 0.0459047 0.368566 0.0393468 0.387964C0.0327889 0.404129 0.0262313 0.423529 0.0229524 0.442928C0.0196735 0.462326 0.0131153 0.47849 0.00983639 0.497889C0.00655746 0.52052 0.00327838 0.539917 0.00327838 0.562549C0.00327838 0.572248 0 0.581948 0 0.591647V17.9919C0 18.3152 0.265593 18.5803 0.596765 18.5803H15.7323C16.0602 18.5803 16.3291 18.3184 16.3291 17.9919C16.3291 17.6653 16.0635 17.4035 15.7323 17.4035H1.19353V1.59389L16.0536 9.80258C16.1454 9.85108 16.2438 9.87694 16.3455 9.87694C16.4471 9.87694 16.5455 9.85108 16.6373 9.80258L31.4974 1.59389V6.74736C31.4974 7.07066 31.763 7.33577 32.0942 7.33577C32.4253 7.33577 32.6909 7.0739 32.6909 6.74736V0.591647C32.6844 0.581948 32.6811 0.572248 32.6811 0.562549ZM16.3422 8.61929L2.87562 1.18006H29.8055L16.3422 8.61929Z" fill="black"/>
<path d="M32.1979 27.5173C27.3447 27.5173 23.3962 23.5099 23.3962 18.5842C23.3962 13.6585 27.3447 9.65112 32.1979 9.65112C37.0512 9.65112 40.9996 13.6585 40.9996 18.5842C40.9996 23.5099 37.0512 27.5173 32.1979 27.5173ZM32.1979 10.8667C28.0027 10.8667 24.5906 14.3297 24.5906 18.5876C24.5906 22.8454 28.0027 26.3084 32.1979 26.3084C36.3931 26.3084 39.8052 22.8454 39.8052 18.5876C39.8052 14.3297 36.3931 10.8667 32.1979 10.8667Z" fill="url(#paint0_linear_3069_203)"/>
<path d="M32.199 31.8519C24.9899 31.8519 19.1265 25.9009 19.1265 18.5841C19.1265 16.3834 19.6694 14.2061 20.6927 12.2825C20.8506 11.9887 21.2125 11.8785 21.5021 12.0388C21.7916 12.1991 21.9002 12.5664 21.7423 12.8603C20.8111 14.6068 20.3209 16.5871 20.3209 18.5841C20.3209 25.2297 25.6479 30.6396 32.199 30.6396C32.528 30.6396 32.7978 30.9101 32.7978 31.2474C32.7978 31.5847 32.528 31.8519 32.199 31.8519Z" fill="url(#paint1_linear_3069_203)"/>
<path d="M32.199 23.1426C31.87 23.1426 31.6002 22.8721 31.6002 22.5348C31.6002 22.1975 31.8667 21.927 32.199 21.927C34.0153 21.927 35.4959 20.4276 35.4959 18.5808C35.4959 16.7375 34.0186 15.2347 32.199 15.2347C30.8006 15.2347 29.5503 16.133 29.0863 17.4721C28.9778 17.7894 28.6356 17.953 28.3263 17.8428C28.0137 17.7326 27.8525 17.3853 27.9611 17.0714C28.5928 15.248 30.2939 14.0225 32.199 14.0225C34.6766 14.0225 36.6903 16.0662 36.6903 18.5808C36.6903 21.0988 34.6766 23.1426 32.199 23.1426Z" fill="url(#paint2_linear_3069_203)"/>
<path d="M28.5236 17.883C28.4315 17.883 28.3361 17.8596 28.2472 17.8128L24.4107 15.7758C24.1179 15.6222 24.006 15.2548 24.1573 14.9576C24.3087 14.6604 24.6706 14.5468 24.9635 14.7005L28.8 16.7375C29.0928 16.8911 29.2047 17.2585 29.0534 17.5557C28.9481 17.7627 28.7375 17.883 28.5236 17.883Z" fill="url(#paint3_linear_3069_203)"/>
<defs>
<linearGradient id="paint0_linear_3069_203" x1="25.9775" y1="12.2718" x2="38.6027" y2="24.7112" gradientUnits="userSpaceOnUse">
<stop stop-color="#F9B90C"/>
<stop offset="0.25" stop-color="#F73172"/>
<stop offset="0.5" stop-color="#8259ED"/>
<stop offset="0.75" stop-color="#0091F8"/>
<stop offset="1" stop-color="#26F400"/>
</linearGradient>
<linearGradient id="paint1_linear_3069_203" x1="17.6513" y1="15.334" x2="33.4169" y2="30.8677" gradientUnits="userSpaceOnUse">
<stop stop-color="#F9B90C"/>
<stop offset="0.25" stop-color="#F73172"/>
<stop offset="0.5" stop-color="#8259ED"/>
<stop offset="0.75" stop-color="#0091F8"/>
<stop offset="1" stop-color="#26F400"/>
</linearGradient>
<linearGradient id="paint2_linear_3069_203" x1="29.4257" y1="14.9533" x2="35.87" y2="21.3028" gradientUnits="userSpaceOnUse">
<stop stop-color="#F9B90C"/>
<stop offset="0.25" stop-color="#F73172"/>
<stop offset="0.5" stop-color="#8259ED"/>
<stop offset="0.75" stop-color="#0091F8"/>
<stop offset="1" stop-color="#26F400"/>
</linearGradient>
<linearGradient id="paint3_linear_3069_203" x1="24.7209" y1="14.3442" x2="28.5448" y2="18.112" gradientUnits="userSpaceOnUse">
<stop stop-color="#F9B90C"/>
<stop offset="0.25" stop-color="#F73172"/>
<stop offset="0.5" stop-color="#8259ED"/>
<stop offset="0.75" stop-color="#0091F8"/>
<stop offset="1" stop-color="#26F400"/>
</linearGradient>
</defs>
</svg>
