<svg width="26" height="26" viewBox="0 0 26 26" fill="none" xmlns="http://www.w3.org/2000/svg">
<path fill-rule="evenodd" clip-rule="evenodd" d="M1 13C1 6.37258 6.37258 1 13 1C19.6274 1 25 6.37258 25 13C25 19.6274 19.6274 25 13 25C6.37258 25 1 19.6274 1 13Z" stroke="white"/>
<path fill-rule="evenodd" clip-rule="evenodd" d="M10.3616 6.63864C11.0443 6.60758 11.2624 6.59998 13.0006 6.59998H12.9986C14.7373 6.59998 14.9546 6.60758 15.6373 6.63864C16.3186 6.66984 16.7839 6.77771 17.192 6.93598C17.6133 7.09931 17.9693 7.31798 18.3253 7.67399C18.6813 8.02972 18.9 8.38679 19.064 8.80773C19.2213 9.21467 19.3293 9.67974 19.3613 10.3611C19.392 11.0438 19.4 11.2619 19.4 13C19.4 14.7382 19.392 14.9558 19.3613 15.6385C19.3293 16.3195 19.2213 16.7847 19.064 17.1918C18.9 17.6126 18.6813 17.9697 18.3253 18.3254C17.9697 18.6814 17.6132 18.9006 17.1924 19.0641C16.7851 19.2224 16.3195 19.3302 15.6382 19.3614C14.9555 19.3925 14.7381 19.4001 12.9998 19.4001C11.2618 19.4001 11.0438 19.3925 10.3611 19.3614C9.67987 19.3302 9.21467 19.2224 8.80747 19.0641C8.38679 18.9006 8.02972 18.6814 7.67412 18.3254C7.31825 17.9697 7.09958 17.6126 6.93598 17.1917C6.77784 16.7847 6.66998 16.3197 6.63864 15.6383C6.60771 14.9557 6.59998 14.7382 6.59998 13C6.59998 11.2619 6.60798 11.0436 6.63851 10.3609C6.66918 9.67987 6.77718 9.21467 6.93585 8.8076C7.09985 8.38679 7.31852 8.02972 7.67452 7.67399C8.03026 7.31812 8.38733 7.09945 8.80827 6.93598C9.2152 6.77771 9.68027 6.66984 10.3616 6.63864ZM12.7873 7.75328C12.6579 7.75322 12.538 7.75317 12.4265 7.75334V7.75174C11.2337 7.75307 11.0049 7.76107 10.4145 7.78774C9.79046 7.81641 9.45166 7.92041 9.22606 8.00841C8.92739 8.12468 8.71405 8.26334 8.49005 8.48735C8.26604 8.71135 8.12711 8.92469 8.01111 9.22335C7.92351 9.44896 7.81924 9.78763 7.79071 10.4116C7.76004 11.0863 7.75391 11.2879 7.75391 12.997C7.75391 14.7061 7.76004 14.9087 7.79071 15.5834C7.81911 16.2074 7.92351 16.5461 8.01111 16.7714C8.12738 17.0702 8.26604 17.283 8.49005 17.507C8.71405 17.731 8.92739 17.8697 9.22606 17.9857C9.45179 18.0733 9.79046 18.1776 10.4145 18.2064C11.0891 18.237 11.2917 18.2437 13.0006 18.2437C14.7094 18.2437 14.9121 18.237 15.5868 18.2064C16.2108 18.1778 16.5497 18.0738 16.7751 17.9858C17.0739 17.8698 17.2865 17.7312 17.5105 17.5072C17.7345 17.2833 17.8735 17.0706 17.9895 16.772C18.0771 16.5466 18.1813 16.208 18.2099 15.584C18.2405 14.9093 18.2472 14.7066 18.2472 12.9986C18.2472 11.2906 18.2405 11.0879 18.2099 10.4132C18.1815 9.78923 18.0771 9.45056 17.9895 9.22522C17.8732 8.92655 17.7345 8.71322 17.5105 8.48921C17.2867 8.26521 17.0737 8.12654 16.7751 8.01054C16.5495 7.92294 16.2108 7.81867 15.5868 7.79014C14.912 7.75947 14.7094 7.75334 13.0006 7.75334C12.9268 7.75334 12.8557 7.75331 12.7873 7.75328Z" fill="white"/>
<path fill-rule="evenodd" clip-rule="evenodd" d="M16.4169 8.81594C15.9929 8.81594 15.6489 9.15954 15.6489 9.58368C15.6489 10.0077 15.9929 10.3517 16.4169 10.3517C16.8409 10.3517 17.1849 10.0077 17.1849 9.58368C17.1849 9.15968 16.8409 8.81567 16.4169 8.81567V8.81594Z" fill="white"/>
<path fill-rule="evenodd" clip-rule="evenodd" d="M9.71387 13.0001C9.71387 11.185 11.1854 9.71345 13.0004 9.71338C14.8155 9.71338 16.2867 11.185 16.2867 13.0001C16.2867 14.8152 14.8157 16.2861 13.0006 16.2861C11.1855 16.2861 9.71387 14.8152 9.71387 13.0001ZM15.134 13.0001C15.134 11.8218 14.1787 10.8667 13.0006 10.8667C11.8223 10.8667 10.8672 11.8218 10.8672 13.0001C10.8672 14.1782 11.8223 15.1334 13.0006 15.1334C14.1787 15.1334 15.134 14.1782 15.134 13.0001Z" fill="white"/>
</svg>
