<svg width="18" height="32" viewBox="0 0 18 32" fill="none" xmlns="http://www.w3.org/2000/svg">
<path d="M16.0504 0H1.9525C0.878049 0 0.00288893 0.914889 0.00288893 2.03812V8.19173C0.00288893 8.49368 0.236843 8.74127 0.528563 8.74127C0.820283 8.74127 1.05424 8.4967 1.05424 8.19173V3.81355H16.9544V25.161H0.525674C0.236842 25.161 0 25.4055 0 25.7105V29.9619C0 31.0851 0.87516 32 1.94961 32H16.0504C17.1248 32 18 31.0851 18 29.9619V2.03812C18 0.914889 17.1277 0 16.0504 0ZM1.05135 2.71749V2.04114C1.05135 1.5218 1.45571 1.09908 1.9525 1.09908H16.0533C16.5501 1.09908 16.9544 1.5218 16.9544 2.04114V2.71749H1.05135ZM16.0504 30.9009H1.9525C1.45571 30.9009 1.05135 30.4782 1.05135 29.9589V26.257H16.9515V29.9589C16.9515 30.4812 16.5472 30.9009 16.0504 30.9009ZM9.55167 28.5005C9.55167 28.8568 9.27439 29.1496 8.93068 29.1496C8.58697 29.1496 8.30969 28.8598 8.30969 28.5005C8.30969 28.1412 8.58697 27.8513 8.93068 27.8513C9.27439 27.8513 9.55167 28.1442 9.55167 28.5005Z" fill="black"/>
</svg>
