<svg width="24" height="24" viewBox="0 0 24 24" fill="none" xmlns="http://www.w3.org/2000/svg">
<path d="M2.22434 17.7678L2.16926 17.969L0.710941 23.2966L6.17813 21.8624L6.37022 21.812L6.54453 21.9071C8.20766 22.8148 10.0863 23.293 11.9933 23.294C18.2719 23.2939 23.3831 18.1829 23.386 11.9018L2.22434 17.7678ZM2.22434 17.7678L2.12007 17.5871M2.22434 17.7678L2.12007 17.5871M2.12007 17.5871C1.12313 15.8594 0.599042 13.9008 0.6 11.8912C0.602874 5.61112 5.71421 0.5 11.9928 0.5C15.0412 0.500958 17.9 1.68721 20.0523 3.8414M2.12007 17.5871L20.0523 3.8414M20.0523 3.8414C22.2035 5.99557 23.3869 8.85637 23.386 11.9018L20.0523 3.8414Z" stroke="white"/>
<path d="M17.414 14.382C17.712 14.531 17.91 14.605 17.984 14.729C18.059 14.853 18.059 15.448 17.811 16.143C17.563 16.837 16.376 17.471 15.805 17.556C15.293 17.632 14.645 17.664 13.933 17.438C13.502 17.301 12.948 17.118 12.239 16.812C9.25795 15.525 7.31195 12.523 7.16295 12.325L7.15943 12.3203C6.99886 12.1056 5.94995 10.7029 5.94995 9.25102C5.94995 7.78802 6.71795 7.07002 6.98995 6.77202C7.26195 6.47402 7.58395 6.40002 7.78195 6.40002L8.35195 6.41002C8.53395 6.41902 8.77895 6.34102 9.02095 6.92002C9.26795 7.51502 9.86195 8.97802 9.93695 9.12602C10.012 9.27502 10.061 9.44902 9.96195 9.64702C9.86195 9.84602 9.81295 9.97002 9.66195 10.142C9.51295 10.316 9.34995 10.53 9.21595 10.663C9.06795 10.811 8.91295 10.972 9.08595 11.269C9.25895 11.567 9.85595 12.54 10.739 13.328C11.874 14.341 12.832 14.654 13.129 14.803C13.426 14.952 13.6 14.927 13.773 14.729C13.946 14.531 14.516 13.861 14.714 13.564C14.913 13.266 15.111 13.316 15.383 13.415C15.656 13.514 17.117 14.233 17.414 14.382Z" fill="white"/>
</svg>
