<svg width="26" height="26" viewBox="0 0 26 26" fill="none" xmlns="http://www.w3.org/2000/svg">
<path fill-rule="evenodd" clip-rule="evenodd" d="M13 25C19.6274 25 25 19.6274 25 13C25 6.37258 19.6274 1 13 1C6.37258 1 1 6.37258 1 13C1 19.6274 6.37258 25 13 25Z" stroke="white"/>
<path fill-rule="evenodd" clip-rule="evenodd" d="M11.0042 15.4411L11.004 15.441L11.0042 15.4408L11.0042 15.4407L11.0042 15.4407L16.5684 10.4195C16.8126 10.2028 16.5151 10.0971 16.1909 10.2937L9.32361 14.6262L6.35731 13.7003C5.71672 13.5042 5.71212 13.064 6.50113 12.7475L18.0601 8.29042C18.5881 8.05074 19.0976 8.41722 18.8961 9.22524L16.9276 18.5015C16.7901 19.1607 16.3918 19.3184 15.84 19.0139L12.8413 16.7985L11.4 18.2C11.3954 18.2044 11.3909 18.2088 11.3864 18.2132C11.2252 18.3702 11.0918 18.5 10.8 18.5L11.0042 15.4411Z" fill="white"/>
</svg>
