<svg width="35" height="31" viewBox="0 0 35 31" fill="none" xmlns="http://www.w3.org/2000/svg">
<path d="M13.9676 24.9648C12.3023 24.9648 10.9482 26.3181 10.9482 27.9824C10.9482 29.6467 12.3023 31 13.9676 31C15.6329 31 16.987 29.6467 16.987 27.9824C16.987 26.3181 15.6329 24.9648 13.9676 24.9648ZM13.9676 29.8359C12.944 29.8359 12.1129 29.0054 12.1129 27.9824C12.1129 26.9594 12.944 26.1289 13.9676 26.1289C14.9912 26.1289 15.8222 26.9594 15.8222 27.9824C15.8222 29.0022 14.9912 29.8359 13.9676 29.8359ZM27.3384 24.9648C25.673 24.9648 24.3189 26.3181 24.3189 27.9824C24.3189 29.6467 25.673 31 27.3384 31C29.0037 31 30.3578 29.6467 30.3578 27.9824C30.3578 26.3181 29.0037 24.9648 27.3384 24.9648ZM27.3384 29.8359C26.3148 29.8359 25.4837 29.0054 25.4837 27.9824C25.4837 26.9594 26.3148 26.1289 27.3384 26.1289C28.3619 26.1289 29.193 26.9594 29.193 27.9824C29.193 29.0022 28.3587 29.8359 27.3384 29.8359ZM30.3578 22.5405C30.3578 22.8612 30.0979 23.1241 29.7738 23.1241H11.1985C10.9289 23.1241 10.6947 22.9413 10.6337 22.6784L5.57035 1.86635C5.47088 1.45588 5.10508 1.16727 4.68153 1.16727H0.583988C0.263116 1.16727 0 0.90752 0 0.583635C0 0.25975 0.259907 0 0.583988 0H4.68153C5.64415 0 6.47521 0.654185 6.70303 1.58736L11.6573 21.9537H29.7738C30.0947 21.9569 30.3578 22.2198 30.3578 22.5405ZM34.9238 7.77004L32.7675 16.6112C32.4466 17.9291 31.2723 18.8495 29.915 18.8495H15.0008C14.6799 18.8495 14.4168 18.5897 14.4168 18.2659C14.4168 17.942 14.6767 17.6822 15.0008 17.6822H29.915C30.7332 17.6822 31.4423 17.1274 31.6348 16.3322L33.7911 7.49105C33.897 7.05813 33.7975 6.60598 33.5216 6.25644C33.2456 5.9069 32.8317 5.70487 32.3825 5.70487H10.3995C10.0786 5.70487 9.8155 5.44512 9.8155 5.12124C9.8155 4.79735 10.0754 4.5376 10.3995 4.5376H32.3889C33.1943 4.5376 33.9451 4.89997 34.4425 5.53491C34.9398 6.17306 35.1163 6.98759 34.9238 7.77004Z" fill="black"/>
</svg>
