<svg width="31" height="31" viewBox="0 0 31 31" fill="none" xmlns="http://www.w3.org/2000/svg">
<path d="M19.1704 15.729C22.0259 14.3926 23.9999 11.5524 23.9999 8.27122C23.9999 3.7118 20.189 0 15.5 0C10.811 0 7.00011 3.70838 7.00011 8.27122C7.00011 11.5524 8.97757 14.396 11.8296 15.729C5.05076 17.3354 0 23.2927 0 30.3779C0 30.7197 0.2845 31 0.639248 31C0.993995 31 1.2785 30.7232 1.2785 30.3779C1.2785 22.7493 7.65692 16.539 15.5 16.539C23.3396 16.539 29.7215 22.7459 29.7215 30.3779C29.7215 30.7197 30.006 31 30.3608 31C30.7155 31 31 30.7232 31 30.3779C30.9965 23.2927 25.9492 17.3388 19.1704 15.729ZM8.27861 8.27122C8.27861 4.39537 11.5205 1.2441 15.5 1.2441C19.4795 1.2441 22.7214 4.39879 22.7214 8.27122C22.7214 12.1437 19.4795 15.2983 15.5 15.2983C11.5205 15.2983 8.27861 12.1471 8.27861 8.27122Z" fill="black"/>
</svg>
